SplineFontDB: 3.0
FontName: WorkAvec-SemiBold
FullName: Work Avec SemiBold
FamilyName: Work Avec SemiBold
Weight: Bold
Copyright: Copyright (c) 2015 by Wei Huang - Modified by Pierre Huyghebaert for OSP, 2015
Version: 1.400
ItalicAngle: 0
UnderlinePosition: -50
UnderlineWidth: 50
Ascent: 800
Descent: 200
InvalidEm: 0
sfntRevision: 0x00016666
LayerCount: 2
Layer: 0 1 "Arri+AOgA-re" 1
Layer: 1 1 "Avant" 0
XUID: [1021 878 1716694747 10176244]
FSType: 0
OS2Version: 3
OS2_WeightWidthSlopeOnly: 0
OS2_UseTypoMetrics: 1
CreationTime: 1438434648
ModificationTime: 1445958845
PfmFamily: 81
TTFWeight: 600
TTFWidth: 5
LineGap: 0
VLineGap: 0
Panose: 0 0 7 0 0 0 0 0 0 0
OS2TypoAscent: 930
OS2TypoAOffset: 0
OS2TypoDescent: -243
OS2TypoDOffset: 0
OS2TypoLinegap: 0
OS2WinAscent: 930
OS2WinAOffset: 0
OS2WinDescent: 243
OS2WinDOffset: 0
HheadAscent: 930
HheadAOffset: 0
HheadDescent: -243
HheadDOffset: 0
OS2SubXSize: 650
OS2SubYSize: 600
OS2SubXOff: 0
OS2SubYOff: 75
OS2SupXSize: 650
OS2SupYSize: 600
OS2SupXOff: 0
OS2SupYOff: 350
OS2StrikeYSize: 50
OS2StrikeYPos: 300
OS2CapHeight: 0
OS2XHeight: 0
OS2Vendor: 'UKWN'
OS2CodePages: 20000093.00000000
OS2UnicodeRanges: 00000007.00000001.00000000.00000000
Lookup: 1 0 0 "'aalt' Access All Alternates lookup 0" { "'aalt' Access All Alternates lookup 0 subtable"  } ['aalt' ('DFLT' <'dflt' > 'grek' <'dflt' > 'latn' <'CAT ' 'MOL ' 'NLD ' 'ROM ' 'TRK ' 'dflt' > ) ]
Lookup: 3 0 0 "'aalt' Access All Alternates lookup 1" { "'aalt' Access All Alternates lookup 1 subtable"  } ['aalt' ('DFLT' <'dflt' > 'grek' <'dflt' > 'latn' <'CAT ' 'MOL ' 'NLD ' 'ROM ' 'TRK ' 'dflt' > ) ]
Lookup: 1 0 0 "'locl' Localized Forms in Latin lookup 2" { "'locl' Localized Forms in Latin lookup 2 subtable"  } ['locl' ('latn' <'TRK ' > ) ]
Lookup: 1 0 0 "'locl' Localized Forms in Latin lookup 3" { "'locl' Localized Forms in Latin lookup 3 subtable"  } ['locl' ('latn' <'TAT ' > ) ]

StartChar: .notdef
Encoding: 65536 -1 0
Width: 500
Flags: W
LayerCount: 2
Back
Fore
SplineSet
50 660 m 1,0,-1
 450 660 l 1,1,-1
 450 0 l 1,2,-1
 50 0 l 1,3,-1
 50 660 l 1,0,-1
370 80 m 1,4,-1
 370 580 l 1,5,-1
 130 580 l 1,6,-1
 130 80 l 1,7,-1
 370 80 l 1,4,-1
EndSplineSet
Validated: 1
EndChar

StartChar: A
Encoding: 65 65 2
Width: 671
GlyphClass: 2
Flags: W
LayerCount: 2
Back
Fore
SplineSet
461 161 m 1,0,-1
 207 161 l 1,1,-1
 153 0 l 1,2,-1
 12 0 l 1,3,-1
 253 660 l 1,4,-1
 418 660 l 1,5,-1
 659 0 l 1,6,-1
 516 0 l 1,7,-1
 461 161 l 1,0,-1
427 263 m 1,8,-1
 365 449 l 1,9,-1
 335 549 l 1,10,-1
 333 549 l 1,11,-1
 305 451 l 1,12,-1
 241 263 l 1,13,-1
 427 263 l 1,8,-1
EndSplineSet
Validated: 1
Substitution2: "Single Substitution lookup 56 subtable" A.swsh
Substitution2: "Single Substitution lookup 55 subtable" ordfeminine
Substitution2: "'swsh' Swash lookup 32 subtable" A.swsh
Substitution2: "'c2sc' Capitals to Small Capitals lookup 11 subtable" a.sc
AlternateSubs2: "'aalt' Access All Alternates lookup 1 subtable" a.sc ordfeminine A.swsh
EndChar

StartChar: Aacute
Encoding: 193 193 3
Width: 671
GlyphClass: 2
Flags: W
LayerCount: 2
Back
Fore
SplineSet
377 730 m 1,0,-1
 274 730 l 1,1,-1
 330 885 l 1,2,-1
 466 885 l 1,3,-1
 377 730 l 1,0,-1
461 161 m 1,4,-1
 207 161 l 1,5,-1
 153 0 l 1,6,-1
 12 0 l 1,7,-1
 253 660 l 1,8,-1
 418 660 l 1,9,-1
 659 0 l 1,10,-1
 516 0 l 1,11,-1
 461 161 l 1,4,-1
427 263 m 1,12,-1
 365 449 l 1,13,-1
 335 549 l 1,14,-1
 333 549 l 1,15,-1
 305 451 l 1,16,-1
 241 263 l 1,17,-1
 427 263 l 1,12,-1
EndSplineSet
Validated: 1
Substitution2: "Single Substitution lookup 56 subtable" Aacute.swsh
Substitution2: "'swsh' Swash lookup 32 subtable" Aacute.swsh
Substitution2: "'c2sc' Capitals to Small Capitals lookup 11 subtable" aacute.sc
AlternateSubs2: "'aalt' Access All Alternates lookup 1 subtable" aacute.sc Aacute.swsh
EndChar

StartChar: Acircumflex
Encoding: 194 194 5
Width: 671
GlyphClass: 2
Flags: W
LayerCount: 2
Back
Fore
SplineSet
261 726 m 1,0,-1
 155 726 l 1,1,-1
 266 893 l 1,2,-1
 404 893 l 1,3,-1
 515 726 l 1,4,-1
 409 726 l 1,5,-1
 335 824 l 1,6,-1
 261 726 l 1,0,-1
461 161 m 1,7,-1
 207 161 l 1,8,-1
 153 0 l 1,9,-1
 12 0 l 1,10,-1
 253 660 l 1,11,-1
 418 660 l 1,12,-1
 659 0 l 1,13,-1
 516 0 l 1,14,-1
 461 161 l 1,7,-1
427 263 m 1,15,-1
 365 449 l 1,16,-1
 335 549 l 1,17,-1
 333 549 l 1,18,-1
 305 451 l 1,19,-1
 241 263 l 1,20,-1
 427 263 l 1,15,-1
EndSplineSet
Validated: 1
Substitution2: "Single Substitution lookup 56 subtable" Acircumflex.swsh
Substitution2: "'swsh' Swash lookup 32 subtable" Acircumflex.swsh
Substitution2: "'c2sc' Capitals to Small Capitals lookup 11 subtable" acircumflex.sc
AlternateSubs2: "'aalt' Access All Alternates lookup 1 subtable" acircumflex.sc Acircumflex.swsh
EndChar

StartChar: Agrave
Encoding: 192 192 7
Width: 671
GlyphClass: 2
Flags: W
LayerCount: 2
Back
Fore
SplineSet
280 730 m 1,0,-1
 191 885 l 1,1,-1
 327 885 l 1,2,-1
 383 730 l 1,3,-1
 280 730 l 1,0,-1
461 161 m 1,4,-1
 207 161 l 1,5,-1
 153 0 l 1,6,-1
 12 0 l 1,7,-1
 253 660 l 1,8,-1
 418 660 l 1,9,-1
 659 0 l 1,10,-1
 516 0 l 1,11,-1
 461 161 l 1,4,-1
427 263 m 1,12,-1
 365 449 l 1,13,-1
 335 549 l 1,14,-1
 333 549 l 1,15,-1
 305 451 l 1,16,-1
 241 263 l 1,17,-1
 427 263 l 1,12,-1
EndSplineSet
Validated: 1
Substitution2: "Single Substitution lookup 56 subtable" Agrave.swsh
Substitution2: "'swsh' Swash lookup 32 subtable" Agrave.swsh
Substitution2: "'c2sc' Capitals to Small Capitals lookup 11 subtable" agrave.sc
AlternateSubs2: "'aalt' Access All Alternates lookup 1 subtable" agrave.sc Agrave.swsh
EndChar

StartChar: Aogonek
Encoding: 260 260 9
Width: 671
GlyphClass: 2
Flags: W
LayerCount: 2
Back
Fore
SplineSet
668 -193 m 1,0,1
 635 -215 635 -215 572 -215 c 0,2,3
 513 -215 513 -215 476.5 -186.5 c 128,-1,4
 440 -158 440 -158 440 -105 c 0,5,6
 440 -35 440 -35 514 4 c 1,7,-1
 461 161 l 1,8,-1
 207 161 l 1,9,-1
 153 0 l 1,10,-1
 12 0 l 1,11,-1
 253 660 l 1,12,-1
 418 660 l 1,13,-1
 659 0 l 1,14,15
 592 -16 592 -16 565.5 -37 c 128,-1,16
 539 -58 539 -58 539 -87 c 0,17,18
 539 -109 539 -109 555 -121.5 c 128,-1,19
 571 -134 571 -134 598 -134 c 0,20,21
 631 -134 631 -134 648 -123 c 1,22,-1
 668 -193 l 1,0,1
427 263 m 1,23,-1
 365 449 l 1,24,-1
 335 549 l 1,25,-1
 333 549 l 1,26,-1
 305 451 l 1,27,-1
 241 263 l 1,28,-1
 427 263 l 1,23,-1
EndSplineSet
Validated: 1
Substitution2: "Single Substitution lookup 56 subtable" Aogonek.swsh
Substitution2: "'swsh' Swash lookup 32 subtable" Aogonek.swsh
Substitution2: "'c2sc' Capitals to Small Capitals lookup 11 subtable" aogonek.sc
AlternateSubs2: "'aalt' Access All Alternates lookup 1 subtable" aogonek.sc Aogonek.swsh
EndChar

StartChar: Aring
Encoding: 197 197 10
Width: 671
GlyphClass: 2
Flags: W
LayerCount: 2
Back
Fore
SplineSet
461 161 m 1,0,-1
 207 161 l 1,1,-1
 153 0 l 1,2,-1
 12 0 l 1,3,-1
 247 634 l 1,4,5
 222 649 222 649 208.5 674 c 128,-1,6
 195 699 195 699 195 732 c 0,7,8
 195 789 195 789 233.5 823.5 c 128,-1,9
 272 858 272 858 336 858 c 0,10,11
 401 858 401 858 439 823.5 c 128,-1,12
 477 789 477 789 477 732 c 0,13,14
 477 700 477 700 463 674.5 c 128,-1,15
 449 649 449 649 424 634 c 1,16,-1
 659 0 l 1,17,-1
 516 0 l 1,18,-1
 461 161 l 1,0,-1
290.5 773 m 128,-1,20
 273 756 273 756 273 729 c 256,21,22
 273 702 273 702 290.5 685 c 128,-1,23
 308 668 308 668 336 668 c 256,24,25
 364 668 364 668 381.5 685 c 128,-1,26
 399 702 399 702 399 729 c 256,27,28
 399 756 399 756 381.5 773 c 128,-1,29
 364 790 364 790 336 790 c 256,30,19
 308 790 308 790 290.5 773 c 128,-1,20
427 263 m 1,31,-1
 365 449 l 1,32,-1
 336 549 l 1,33,-1
 333 549 l 1,34,-1
 305 451 l 1,35,-1
 241 263 l 1,36,-1
 427 263 l 1,31,-1
EndSplineSet
Validated: 1
Substitution2: "'c2sc' Capitals to Small Capitals lookup 11 subtable" aring.sc
Substitution2: "'aalt' Access All Alternates lookup 0 subtable" aring.sc
EndChar

StartChar: AE
Encoding: 198 198 12
Width: 935
GlyphClass: 2
Flags: W
LayerCount: 2
Back
Fore
SplineSet
897 108 m 1,0,-1
 897 0 l 1,1,-1
 432 0 l 1,2,-1
 432 202 l 1,3,-1
 232 202 l 1,4,-1
 141 0 l 1,5,-1
 0 0 l 1,6,-1
 321 660 l 1,7,-1
 883 660 l 1,8,-1
 883 552 l 1,9,-1
 563 552 l 1,10,-1
 563 384 l 1,11,-1
 807 384 l 1,12,-1
 807 281 l 1,13,-1
 563 281 l 1,14,-1
 563 108 l 1,15,-1
 897 108 l 1,0,-1
432 301 m 1,16,-1
 432 555 l 1,17,-1
 392 555 l 1,18,-1
 277 301 l 1,19,-1
 432 301 l 1,16,-1
EndSplineSet
Validated: 1
Substitution2: "'c2sc' Capitals to Small Capitals lookup 11 subtable" ae.sc
Substitution2: "'aalt' Access All Alternates lookup 0 subtable" ae.sc
EndChar

StartChar: B
Encoding: 66 66 13
Width: 672
GlyphClass: 2
Flags: W
LayerCount: 2
Back
Fore
SplineSet
86 660 m 1,0,-1
 375 660 l 2,1,2
 493 660 493 660 551 613.5 c 128,-1,3
 609 567 609 567 609 480 c 0,4,5
 609 425 609 425 576 384.5 c 128,-1,6
 543 344 543 344 483 334 c 1,7,-1
 483 333 l 1,8,9
 551 323 551 323 588.5 281.5 c 128,-1,10
 626 240 626 240 626 181 c 0,11,12
 626 95 626 95 564 47.5 c 128,-1,13
 502 0 502 0 385 0 c 2,14,-1
 86 0 l 1,15,-1
 86 660 l 1,0,-1
356 383 m 2,16,17
 466 383 466 383 466 468 c 256,18,19
 466 553 466 553 356 553 c 2,20,-1
 220 553 l 1,21,-1
 220 383 l 1,22,-1
 356 383 l 2,16,17
373 104 m 2,23,24
 428 104 428 104 455.5 126.5 c 128,-1,25
 483 149 483 149 483 191 c 256,26,27
 483 233 483 233 455.5 255 c 128,-1,28
 428 277 428 277 373 277 c 2,29,-1
 220 277 l 1,30,-1
 220 104 l 1,31,-1
 373 104 l 2,23,24
EndSplineSet
Validated: 1
Substitution2: "'c2sc' Capitals to Small Capitals lookup 11 subtable" b.sc
Substitution2: "'aalt' Access All Alternates lookup 0 subtable" b.sc
EndChar

StartChar: C
Encoding: 67 67 14
Width: 683
GlyphClass: 2
Flags: W
LayerCount: 2
Back
Fore
SplineSet
548 38.5 m 128,-1,1
 474 -10 474 -10 371 -10 c 0,2,3
 274 -10 274 -10 202 31 c 128,-1,4
 130 72 130 72 91.5 148.5 c 128,-1,5
 53 225 53 225 53 330 c 256,6,7
 53 435 53 435 91.5 511.5 c 128,-1,8
 130 588 130 588 201.5 629 c 128,-1,9
 273 670 273 670 369 670 c 0,10,11
 472 670 472 670 543.5 627 c 128,-1,12
 615 584 615 584 642 499 c 1,13,-1
 517 446 l 1,14,15
 501 505 501 505 467 531 c 128,-1,16
 433 557 433 557 375 557 c 0,17,18
 291 557 291 557 243.5 498 c 128,-1,19
 196 439 196 439 196 330 c 256,20,21
 196 221 196 221 242 162 c 128,-1,22
 288 103 288 103 372 103 c 0,23,24
 493 103 493 103 524 220 c 1,25,-1
 651 182 l 1,26,0
 622 87 622 87 548 38.5 c 128,-1,1
EndSplineSet
Validated: 1
Substitution2: "'c2sc' Capitals to Small Capitals lookup 11 subtable" c.sc
Substitution2: "'aalt' Access All Alternates lookup 0 subtable" c.sc
EndChar

StartChar: Cacute
Encoding: 262 262 15
Width: 683
GlyphClass: 2
Flags: W
LayerCount: 2
Back
Fore
SplineSet
497 885 m 1,0,-1
 408 730 l 1,1,-1
 305 730 l 1,2,-1
 361 885 l 1,3,-1
 497 885 l 1,0,-1
548 38.5 m 128,-1,5
 474 -10 474 -10 371 -10 c 0,6,7
 274 -10 274 -10 202 31 c 128,-1,8
 130 72 130 72 91.5 148.5 c 128,-1,9
 53 225 53 225 53 330 c 256,10,11
 53 435 53 435 91.5 511.5 c 128,-1,12
 130 588 130 588 201.5 629 c 128,-1,13
 273 670 273 670 369 670 c 0,14,15
 472 670 472 670 543.5 627 c 128,-1,16
 615 584 615 584 642 499 c 1,17,-1
 517 446 l 1,18,19
 501 505 501 505 467 531 c 128,-1,20
 433 557 433 557 375 557 c 0,21,22
 291 557 291 557 243.5 498 c 128,-1,23
 196 439 196 439 196 330 c 256,24,25
 196 221 196 221 242 162 c 128,-1,26
 288 103 288 103 372 103 c 0,27,28
 493 103 493 103 524 220 c 1,29,-1
 651 182 l 1,30,4
 622 87 622 87 548 38.5 c 128,-1,5
EndSplineSet
Validated: 1
Substitution2: "'c2sc' Capitals to Small Capitals lookup 11 subtable" cacute.sc
Substitution2: "'aalt' Access All Alternates lookup 0 subtable" cacute.sc
EndChar

StartChar: Ccaron
Encoding: 268 268 16
Width: 683
GlyphClass: 2
Flags: W
LayerCount: 2
Back
Fore
SplineSet
433 727 m 1,0,-1
 295 727 l 1,1,-1
 184 894 l 1,2,-1
 290 894 l 1,3,-1
 364 796 l 1,4,-1
 438 894 l 1,5,-1
 544 894 l 1,6,-1
 433 727 l 1,0,-1
548 38.5 m 128,-1,8
 474 -10 474 -10 371 -10 c 0,9,10
 274 -10 274 -10 202 31 c 128,-1,11
 130 72 130 72 91.5 148.5 c 128,-1,12
 53 225 53 225 53 330 c 256,13,14
 53 435 53 435 91.5 511.5 c 128,-1,15
 130 588 130 588 201.5 629 c 128,-1,16
 273 670 273 670 369 670 c 0,17,18
 472 670 472 670 543.5 627 c 128,-1,19
 615 584 615 584 642 499 c 1,20,-1
 517 446 l 1,21,22
 501 505 501 505 467 531 c 128,-1,23
 433 557 433 557 375 557 c 0,24,25
 291 557 291 557 243.5 498 c 128,-1,26
 196 439 196 439 196 330 c 256,27,28
 196 221 196 221 242 162 c 128,-1,29
 288 103 288 103 372 103 c 0,30,31
 493 103 493 103 524 220 c 1,32,-1
 651 182 l 1,33,7
 622 87 622 87 548 38.5 c 128,-1,8
EndSplineSet
Validated: 1
Substitution2: "'c2sc' Capitals to Small Capitals lookup 11 subtable" ccaron.sc
Substitution2: "'aalt' Access All Alternates lookup 0 subtable" ccaron.sc
EndChar

StartChar: Ccedilla
Encoding: 199 199 17
Width: 683
GlyphClass: 2
Flags: W
LayerCount: 2
Back
Fore
SplineSet
572 57 m 128,-1,1
 517 10 517 10 439 -4 c 1,2,3
 466 -23 466 -23 480 -48 c 128,-1,4
 494 -73 494 -73 494 -101 c 0,5,6
 494 -154 494 -154 457.5 -184.5 c 128,-1,7
 421 -215 421 -215 361 -215 c 0,8,9
 283 -215 283 -215 242 -177 c 1,10,-1
 278 -106 l 1,11,12
 291 -120 291 -120 309.5 -128 c 128,-1,13
 328 -136 328 -136 349 -136 c 0,14,15
 373 -136 373 -136 388.5 -121.5 c 128,-1,16
 404 -107 404 -107 404 -83 c 0,17,18
 404 -58 404 -58 389 -41 c 128,-1,19
 374 -24 374 -24 333 -8 c 1,20,21
 202 3 202 3 127.5 92.5 c 128,-1,22
 53 182 53 182 53 330 c 0,23,24
 53 435 53 435 91.5 511.5 c 128,-1,25
 130 588 130 588 201.5 629 c 128,-1,26
 273 670 273 670 369 670 c 0,27,28
 472 670 472 670 543.5 627 c 128,-1,29
 615 584 615 584 642 499 c 1,30,-1
 517 446 l 1,31,32
 501 505 501 505 467 531 c 128,-1,33
 433 557 433 557 375 557 c 0,34,35
 291 557 291 557 243.5 498 c 128,-1,36
 196 439 196 439 196 330 c 256,37,38
 196 221 196 221 242 162 c 128,-1,39
 288 103 288 103 372 103 c 0,40,41
 493 103 493 103 524 220 c 1,42,-1
 651 182 l 1,43,0
 627 104 627 104 572 57 c 128,-1,1
EndSplineSet
Validated: 1
Substitution2: "'c2sc' Capitals to Small Capitals lookup 11 subtable" ccedilla.sc
Substitution2: "'aalt' Access All Alternates lookup 0 subtable" ccedilla.sc
EndChar

StartChar: D
Encoding: 68 68 18
Width: 719
GlyphClass: 2
Flags: W
LayerCount: 2
Back
Fore
SplineSet
581 574 m 128,-1,1
 666 488 666 488 666 330 c 256,2,3
 666 172 666 172 581 86 c 128,-1,4
 496 0 496 0 341 0 c 2,5,-1
 86 0 l 1,6,-1
 86 660 l 1,7,-1
 341 660 l 2,8,0
 496 660 496 660 581 574 c 128,-1,1
475.5 166.5 m 128,-1,10
 523 223 523 223 523 330 c 256,11,12
 523 437 523 437 475.5 493.5 c 128,-1,13
 428 550 428 550 334 550 c 2,14,-1
 224 550 l 1,15,-1
 224 110 l 1,16,-1
 334 110 l 2,17,9
 428 110 428 110 475.5 166.5 c 128,-1,10
EndSplineSet
Validated: 1
Substitution2: "'c2sc' Capitals to Small Capitals lookup 11 subtable" d.sc
Substitution2: "'aalt' Access All Alternates lookup 0 subtable" d.sc
EndChar

StartChar: Dcaron
Encoding: 270 270 20
Width: 719
GlyphClass: 2
Flags: W
LayerCount: 2
Back
Fore
SplineSet
256 727 m 1,0,-1
 145 894 l 1,1,-1
 251 894 l 1,2,-1
 325 796 l 1,3,-1
 399 894 l 1,4,-1
 505 894 l 1,5,-1
 394 727 l 1,6,-1
 256 727 l 1,0,-1
581 574 m 128,-1,8
 666 488 666 488 666 330 c 256,9,10
 666 172 666 172 581 86 c 128,-1,11
 496 0 496 0 341 0 c 2,12,-1
 86 0 l 1,13,-1
 86 660 l 1,14,-1
 341 660 l 2,15,7
 496 660 496 660 581 574 c 128,-1,8
475.5 166.5 m 128,-1,17
 523 223 523 223 523 330 c 256,18,19
 523 437 523 437 475.5 493.5 c 128,-1,20
 428 550 428 550 334 550 c 2,21,-1
 224 550 l 1,22,-1
 224 110 l 1,23,-1
 334 110 l 2,24,16
 428 110 428 110 475.5 166.5 c 128,-1,17
EndSplineSet
Validated: 1
Substitution2: "'c2sc' Capitals to Small Capitals lookup 11 subtable" dcaron.sc
Substitution2: "'aalt' Access All Alternates lookup 0 subtable" dcaron.sc
EndChar

StartChar: Dcroat
Encoding: 272 272 21
Width: 740
GlyphClass: 2
Flags: W
LayerCount: 2
Back
Fore
SplineSet
601.5 574 m 128,-1,1
 686 488 686 488 686 330 c 256,2,3
 686 172 686 172 601.5 86 c 128,-1,4
 517 0 517 0 362 0 c 2,5,-1
 107 0 l 1,6,-1
 107 284 l 1,7,-1
 18 284 l 1,8,-1
 18 378 l 1,9,-1
 107 378 l 1,10,-1
 107 660 l 1,11,-1
 362 660 l 2,12,0
 517 660 517 660 601.5 574 c 128,-1,1
496 166.5 m 128,-1,14
 544 223 544 223 544 330 c 256,15,16
 544 437 544 437 496 493.5 c 128,-1,17
 448 550 448 550 354 550 c 2,18,-1
 245 550 l 1,19,-1
 245 378 l 1,20,-1
 399 378 l 1,21,-1
 399 284 l 1,22,-1
 245 284 l 1,23,-1
 245 110 l 1,24,-1
 354 110 l 2,25,13
 448 110 448 110 496 166.5 c 128,-1,14
EndSplineSet
Validated: 1
Substitution2: "'c2sc' Capitals to Small Capitals lookup 11 subtable" dcroat.sc
Substitution2: "'aalt' Access All Alternates lookup 0 subtable" dcroat.sc
EndChar

StartChar: E
Encoding: 69 69 22
Width: 633
GlyphClass: 2
Flags: W
AnchorPoint: "Anchor-0" 335 0 basechar 0
LayerCount: 2
Back
Fore
SplineSet
595 111 m 1,0,-1
 595 0 l 1,1,-1
 86 0 l 1,2,-1
 86 660 l 1,3,-1
 581 660 l 1,4,-1
 581 549 l 1,5,-1
 224 549 l 1,6,-1
 224 385 l 1,7,-1
 505 385 l 1,8,-1
 505 279 l 1,9,-1
 224 279 l 1,10,-1
 224 111 l 1,11,-1
 595 111 l 1,0,-1
EndSplineSet
Validated: 1
Substitution2: "Single Substitution lookup 57 subtable" E.swsh.001
Substitution2: "Single Substitution lookup 56 subtable" E.swsh
AlternateSubs2: "'swsh' Swash lookup 33 subtable" E.swsh E.swsh.001
Substitution2: "'c2sc' Capitals to Small Capitals lookup 11 subtable" e.sc
AlternateSubs2: "'aalt' Access All Alternates lookup 1 subtable" e.sc E.swsh E.swsh.001
EndChar

StartChar: Eacute
Encoding: 201 201 23
Width: 633
GlyphClass: 2
Flags: W
AnchorPoint: "Anchor-0" 335 0 basechar 0
LayerCount: 2
Back
Fore
SplineSet
371 730 m 1,0,-1
 268 730 l 1,1,-1
 324 885 l 1,2,-1
 460 885 l 1,3,-1
 371 730 l 1,0,-1
595 111 m 1,4,-1
 595 0 l 1,5,-1
 86 0 l 1,6,-1
 86 660 l 1,7,-1
 581 660 l 1,8,-1
 581 549 l 1,9,-1
 224 549 l 1,10,-1
 224 385 l 1,11,-1
 505 385 l 1,12,-1
 505 279 l 1,13,-1
 224 279 l 1,14,-1
 224 111 l 1,15,-1
 595 111 l 1,4,-1
EndSplineSet
Validated: 1
Substitution2: "Single Substitution lookup 57 subtable" Eacute.swsh.001
Substitution2: "Single Substitution lookup 56 subtable" Eacute.swsh
AlternateSubs2: "'swsh' Swash lookup 33 subtable" Eacute.swsh Eacute.swsh.001
Substitution2: "'c2sc' Capitals to Small Capitals lookup 11 subtable" eacute.sc
AlternateSubs2: "'aalt' Access All Alternates lookup 1 subtable" eacute.sc Eacute.swsh Eacute.swsh.001
EndChar

StartChar: Ecaron
Encoding: 282 282 24
Width: 633
GlyphClass: 2
Flags: W
AnchorPoint: "Anchor-0" 335 0 basechar 0
LayerCount: 2
Back
Fore
SplineSet
258 727 m 1,0,-1
 147 894 l 1,1,-1
 253 894 l 1,2,-1
 327 796 l 1,3,-1
 401 894 l 1,4,-1
 507 894 l 1,5,-1
 396 727 l 1,6,-1
 258 727 l 1,0,-1
595 111 m 1,7,-1
 595 0 l 1,8,-1
 86 0 l 1,9,-1
 86 660 l 1,10,-1
 581 660 l 1,11,-1
 581 549 l 1,12,-1
 224 549 l 1,13,-1
 224 385 l 1,14,-1
 505 385 l 1,15,-1
 505 279 l 1,16,-1
 224 279 l 1,17,-1
 224 111 l 1,18,-1
 595 111 l 1,7,-1
EndSplineSet
Validated: 1
Substitution2: "Single Substitution lookup 57 subtable" Ecaron.swsh.001
Substitution2: "Single Substitution lookup 56 subtable" Ecaron.swsh
AlternateSubs2: "'swsh' Swash lookup 33 subtable" Ecaron.swsh Ecaron.swsh.001
Substitution2: "'c2sc' Capitals to Small Capitals lookup 11 subtable" ecaron.sc
AlternateSubs2: "'aalt' Access All Alternates lookup 1 subtable" ecaron.sc Ecaron.swsh Ecaron.swsh.001
EndChar

StartChar: Ecircumflex
Encoding: 202 202 25
Width: 633
GlyphClass: 2
Flags: W
AnchorPoint: "Anchor-0" 335 0 basechar 0
LayerCount: 2
Back
Fore
SplineSet
255 726 m 1,0,-1
 149 726 l 1,1,-1
 260 893 l 1,2,-1
 398 893 l 1,3,-1
 509 726 l 1,4,-1
 403 726 l 1,5,-1
 329 824 l 1,6,-1
 255 726 l 1,0,-1
595 111 m 1,7,-1
 595 0 l 1,8,-1
 86 0 l 1,9,-1
 86 660 l 1,10,-1
 581 660 l 1,11,-1
 581 549 l 1,12,-1
 224 549 l 1,13,-1
 224 385 l 1,14,-1
 505 385 l 1,15,-1
 505 279 l 1,16,-1
 224 279 l 1,17,-1
 224 111 l 1,18,-1
 595 111 l 1,7,-1
EndSplineSet
Validated: 1
Substitution2: "Single Substitution lookup 57 subtable" Ecircumflex.swsh.001
Substitution2: "Single Substitution lookup 56 subtable" Ecircumflex.swsh
AlternateSubs2: "'swsh' Swash lookup 33 subtable" Ecircumflex.swsh Ecircumflex.swsh.001
Substitution2: "'c2sc' Capitals to Small Capitals lookup 11 subtable" ecircumflex.sc
AlternateSubs2: "'aalt' Access All Alternates lookup 1 subtable" ecircumflex.sc Ecircumflex.swsh Ecircumflex.swsh.001
EndChar

StartChar: Egrave
Encoding: 200 200 28
Width: 633
GlyphClass: 2
Flags: W
AnchorPoint: "Anchor-0" 335 0 basechar 0
LayerCount: 2
Back
Fore
SplineSet
295 730 m 1,0,-1
 206 885 l 1,1,-1
 342 885 l 1,2,-1
 398 730 l 1,3,-1
 295 730 l 1,0,-1
595 111 m 1,4,-1
 595 0 l 1,5,-1
 86 0 l 1,6,-1
 86 660 l 1,7,-1
 581 660 l 1,8,-1
 581 549 l 1,9,-1
 224 549 l 1,10,-1
 224 385 l 1,11,-1
 505 385 l 1,12,-1
 505 279 l 1,13,-1
 224 279 l 1,14,-1
 224 111 l 1,15,-1
 595 111 l 1,4,-1
EndSplineSet
Validated: 1
Substitution2: "Single Substitution lookup 57 subtable" Egrave.swsh.001
Substitution2: "Single Substitution lookup 56 subtable" Egrave.swsh
AlternateSubs2: "'swsh' Swash lookup 33 subtable" Egrave.swsh Egrave.swsh.001
Substitution2: "'c2sc' Capitals to Small Capitals lookup 11 subtable" egrave.sc
AlternateSubs2: "'aalt' Access All Alternates lookup 1 subtable" egrave.sc Egrave.swsh Egrave.swsh.001
EndChar

StartChar: Eogonek
Encoding: 280 280 30
Width: 633
GlyphClass: 2
Flags: W
AnchorPoint: "Anchor-0" 335 0 basechar 0
LayerCount: 2
Back
Fore
SplineSet
604 -193 m 1,0,1
 571 -215 571 -215 508 -215 c 0,2,3
 449 -215 449 -215 413 -187 c 128,-1,4
 377 -159 377 -159 377 -109 c 0,5,6
 377 -36 377 -36 459 0 c 1,7,-1
 86 0 l 1,8,-1
 86 660 l 1,9,-1
 581 660 l 1,10,-1
 581 549 l 1,11,-1
 224 549 l 1,12,-1
 224 385 l 1,13,-1
 505 385 l 1,14,-1
 505 279 l 1,15,-1
 224 279 l 1,16,-1
 224 111 l 1,17,-1
 595 111 l 1,18,-1
 595 1 l 1,19,-1
 596 0 l 1,20,21
 529 -16 529 -16 502.5 -37.5 c 128,-1,22
 476 -59 476 -59 476 -87 c 0,23,24
 476 -109 476 -109 491.5 -121.5 c 128,-1,25
 507 -134 507 -134 534 -134 c 0,26,27
 567 -134 567 -134 584 -123 c 1,28,-1
 604 -193 l 1,0,1
EndSplineSet
Validated: 1
Substitution2: "'c2sc' Capitals to Small Capitals lookup 11 subtable" eogonek.sc
Substitution2: "'aalt' Access All Alternates lookup 0 subtable" eogonek.sc
EndChar

StartChar: F
Encoding: 70 70 31
Width: 612
GlyphClass: 2
Flags: W
LayerCount: 2
Back
Fore
SplineSet
224 549 m 1,0,-1
 224 382 l 1,1,-1
 505 382 l 1,2,-1
 505 270 l 1,3,-1
 224 270 l 1,4,-1
 224 0 l 1,5,-1
 86 0 l 1,6,-1
 86 660 l 1,7,-1
 580 660 l 1,8,-1
 580 549 l 1,9,-1
 224 549 l 1,0,-1
EndSplineSet
Validated: 1
Substitution2: "Single Substitution lookup 56 subtable" F.swsh
Substitution2: "'swsh' Swash lookup 34 subtable" F.swsh
Substitution2: "'c2sc' Capitals to Small Capitals lookup 11 subtable" f.sc
AlternateSubs2: "'aalt' Access All Alternates lookup 1 subtable" f.sc F.swsh
EndChar

StartChar: G
Encoding: 71 71 32
Width: 723
GlyphClass: 2
Flags: W
AnchorPoint: "Anchor-0" 394 0 basechar 0
LayerCount: 2
Back
Fore
SplineSet
658 248 m 1,0,1
 658 -10.0601503759 658 -10.0601503759 367.924868562 -10.0601503759 c 0,2,3
 363.496240602 -10.0601503759 363.496240602 -10.0601503759 359 -10 c 0,4,5
 265.850393701 -8.75385142075 265.850393701 -8.75385142075 199 30 c 0,6,7
 130 70 130 70 91.5 146.5 c 128,-1,8
 53 223 53 223 53 329 c 0,9,10
 53 434 53 434 92.5 511 c 128,-1,11
 132 588 132 588 204.5 629 c 128,-1,12
 277 670 277 670 374 670 c 0,13,14
 481 670 481 670 548.5 631 c 128,-1,15
 616 592 616 592 655 508 c 1,16,-1
 528 453 l 1,17,18
 513 504 513 504 473.5 530.5 c 128,-1,19
 434 557 434 557 378 557 c 0,20,21
 292 557 292 557 244 498 c 128,-1,22
 196 439 196 439 196 330 c 0,23,24
 196 217 196 217 243 159 c 128,-1,25
 290 101 290 101 381 101 c 0,26,27
 451 101 451 101 495 134.5 c 128,-1,28
 539 168 539 168 539 232 c 2,29,-1
 539 247 l 1,30,-1
 346 247 l 1,31,-1
 346 349 l 1,32,-1
 658 349 l 1,33,-1
 658 248 l 1,0,1
EndSplineSet
Substitution2: "'ss04' Style Set 4 lookup 50 subtable" G.ss04
Substitution2: "'salt' Stylistic Alternatives lookup 42 subtable" G.ss04
Substitution2: "'c2sc' Capitals to Small Capitals lookup 11 subtable" g.sc
AlternateSubs2: "'aalt' Access All Alternates lookup 1 subtable" g.sc G.ss04
EndChar

StartChar: H
Encoding: 72 72 34
Width: 739
GlyphClass: 2
Flags: W
LayerCount: 2
Back
Fore
SplineSet
653 660 m 1,0,-1
 653 0 l 1,1,-1
 515 0 l 1,2,-1
 515 278 l 1,3,-1
 224 278 l 1,4,-1
 224 0 l 1,5,-1
 86 0 l 1,6,-1
 86 660 l 1,7,-1
 224 660 l 1,8,-1
 224 389 l 1,9,-1
 515 389 l 1,10,-1
 515 660 l 1,11,-1
 653 660 l 1,0,-1
EndSplineSet
Validated: 1
Substitution2: "'sups' Superscript lookup 15 subtable" Hsuperior
Substitution2: "'subs' Subscript lookup 14 subtable" Hinferior
Substitution2: "'sinf' Scientific Inferiors lookup 13 subtable" Hinferior
Substitution2: "'c2sc' Capitals to Small Capitals lookup 11 subtable" h.sc
AlternateSubs2: "'aalt' Access All Alternates lookup 1 subtable" h.sc Hinferior Hsuperior
EndChar

StartChar: I
Encoding: 73 73 35
Width: 310
GlyphClass: 2
Flags: W
LayerCount: 2
Back
Fore
SplineSet
224 0 m 1,0,-1
 86 0 l 1,1,-1
 86 660 l 1,2,-1
 224 660 l 1,3,-1
 224 0 l 1,0,-1
EndSplineSet
Validated: 1
Substitution2: "'c2sc' Capitals to Small Capitals lookup 11 subtable" i.sc
Substitution2: "'aalt' Access All Alternates lookup 0 subtable" i.sc
EndChar

StartChar: Iacute
Encoding: 205 205 37
Width: 310
GlyphClass: 2
Flags: W
LayerCount: 2
Back
Fore
SplineSet
286 885 m 1,0,-1
 197 730 l 1,1,-1
 94 730 l 1,2,-1
 150 885 l 1,3,-1
 286 885 l 1,0,-1
224 0 m 1,4,-1
 86 0 l 1,5,-1
 86 660 l 1,6,-1
 224 660 l 1,7,-1
 224 0 l 1,4,-1
EndSplineSet
Validated: 1
Substitution2: "'c2sc' Capitals to Small Capitals lookup 11 subtable" iacute.sc
Substitution2: "'aalt' Access All Alternates lookup 0 subtable" iacute.sc
EndChar

StartChar: Icircumflex
Encoding: 206 206 38
Width: 310
GlyphClass: 2
Flags: W
LayerCount: 2
Back
Fore
SplineSet
229 726 m 1,0,-1
 155 824 l 1,1,-1
 81 726 l 1,2,-1
 -25 726 l 1,3,-1
 86 893 l 1,4,-1
 224 893 l 1,5,-1
 335 726 l 1,6,-1
 229 726 l 1,0,-1
224 0 m 1,7,-1
 86 0 l 1,8,-1
 86 660 l 1,9,-1
 224 660 l 1,10,-1
 224 0 l 1,7,-1
EndSplineSet
Validated: 1
Substitution2: "'c2sc' Capitals to Small Capitals lookup 11 subtable" icircumflex.sc
Substitution2: "'aalt' Access All Alternates lookup 0 subtable" icircumflex.sc
EndChar

StartChar: Idieresis
Encoding: 207 207 39
Width: 310
GlyphClass: 2
Flags: W
LayerCount: 2
Back
Fore
SplineSet
112 846 m 128,-1,1
 132 827 132 827 132 795 c 256,2,3
 132 763 132 763 112 744 c 128,-1,4
 92 725 92 725 58 725 c 0,5,6
 25 725 25 725 5.5 744 c 128,-1,7
 -14 763 -14 763 -14 795 c 256,8,9
 -14 827 -14 827 5.5 846 c 128,-1,10
 25 865 25 865 58 865 c 0,11,0
 92 865 92 865 112 846 c 128,-1,1
304 846 m 128,-1,13
 324 827 324 827 324 795 c 256,14,15
 324 763 324 763 304 744 c 128,-1,16
 284 725 284 725 250 725 c 0,17,18
 217 725 217 725 197.5 744 c 128,-1,19
 178 763 178 763 178 795 c 256,20,21
 178 827 178 827 197.5 846 c 128,-1,22
 217 865 217 865 250 865 c 0,23,12
 284 865 284 865 304 846 c 128,-1,13
224 0 m 1,24,-1
 86 0 l 1,25,-1
 86 660 l 1,26,-1
 224 660 l 1,27,-1
 224 0 l 1,24,-1
EndSplineSet
Validated: 1
Substitution2: "'c2sc' Capitals to Small Capitals lookup 11 subtable" idieresis.sc
Substitution2: "'aalt' Access All Alternates lookup 0 subtable" idieresis.sc
EndChar

StartChar: Igrave
Encoding: 204 204 41
Width: 310
GlyphClass: 2
Flags: W
LayerCount: 2
Back
Fore
SplineSet
203 730 m 1,0,-1
 100 730 l 1,1,-1
 11 885 l 1,2,-1
 147 885 l 1,3,-1
 203 730 l 1,0,-1
224 0 m 1,4,-1
 86 0 l 1,5,-1
 86 660 l 1,6,-1
 224 660 l 1,7,-1
 224 0 l 1,4,-1
EndSplineSet
Validated: 1
Substitution2: "'c2sc' Capitals to Small Capitals lookup 11 subtable" igrave.sc
Substitution2: "'aalt' Access All Alternates lookup 0 subtable" igrave.sc
EndChar

StartChar: Imacron
Encoding: 298 298 42
Width: 310
GlyphClass: 2
Flags: W
LayerCount: 2
Back
Fore
SplineSet
284 739 m 1,0,-1
 25 739 l 1,1,-1
 25 830 l 1,2,-1
 284 830 l 1,3,-1
 284 739 l 1,0,-1
224 0 m 1,4,-1
 86 0 l 1,5,-1
 86 660 l 1,6,-1
 224 660 l 1,7,-1
 224 0 l 1,4,-1
EndSplineSet
Validated: 1
Substitution2: "'c2sc' Capitals to Small Capitals lookup 11 subtable" imacron.sc
Substitution2: "'aalt' Access All Alternates lookup 0 subtable" imacron.sc
EndChar

StartChar: Iogonek
Encoding: 302 302 43
Width: 310
GlyphClass: 2
Flags: W
LayerCount: 2
Back
Fore
SplineSet
244 -191 m 1,0,1
 207 -215 207 -215 146 -215 c 0,2,3
 88 -215 88 -215 52.5 -187 c 128,-1,4
 17 -159 17 -159 17 -109 c 0,5,6
 17 -75 17 -75 36 -47 c 128,-1,7
 55 -19 55 -19 90 0 c 1,8,-1
 86 0 l 1,9,-1
 86 660 l 1,10,-1
 224 660 l 1,11,-1
 224 0 l 1,12,13
 163 -19 163 -19 139 -39.5 c 128,-1,14
 115 -60 115 -60 115 -85 c 0,15,16
 115 -108 115 -108 129 -120.5 c 128,-1,17
 143 -133 143 -133 170 -133 c 0,18,19
 203 -133 203 -133 222 -121 c 1,20,-1
 244 -191 l 1,0,1
EndSplineSet
Validated: 1
Substitution2: "'c2sc' Capitals to Small Capitals lookup 11 subtable" iogonek.sc
Substitution2: "'aalt' Access All Alternates lookup 0 subtable" iogonek.sc
EndChar

StartChar: J
Encoding: 74 74 44
Width: 601
GlyphClass: 2
Flags: W
LayerCount: 2
Back
Fore
SplineSet
525 243 m 2,0,1
 525 124 525 124 457 57 c 128,-1,2
 389 -10 389 -10 266 -10 c 0,3,4
 152 -10 152 -10 93 42.5 c 128,-1,5
 34 95 34 95 34 186 c 0,6,7
 34 214 34 214 40 245 c 1,8,-1
 175 269 l 1,9,10
 171 241 171 241 171 213 c 0,11,12
 171 156 171 156 195 129.5 c 128,-1,13
 219 103 219 103 270 103 c 0,14,15
 334 103 334 103 360.5 141.5 c 128,-1,16
 387 180 387 180 387 262 c 2,17,-1
 387 660 l 1,18,-1
 525 660 l 1,19,-1
 525 243 l 2,0,1
EndSplineSet
Validated: 1
Substitution2: "'c2sc' Capitals to Small Capitals lookup 11 subtable" j.sc
Substitution2: "'aalt' Access All Alternates lookup 0 subtable" j.sc
EndChar

StartChar: K
Encoding: 75 75 45
Width: 679
GlyphClass: 2
Flags: W
AnchorPoint: "Anchor-0" 367 0 basechar 0
LayerCount: 2
Back
Fore
SplineSet
318 302 m 1,0,-1
 224 195 l 1,1,-1
 224 0 l 1,2,-1
 86 0 l 1,3,-1
 86 660 l 1,4,-1
 224 660 l 1,5,-1
 224 347 l 1,6,-1
 495 660 l 1,7,-1
 655 660 l 1,8,-1
 418 391 l 1,9,-1
 663 0 l 1,10,-1
 505 0 l 1,11,-1
 318 302 l 1,0,-1
EndSplineSet
Validated: 1
Substitution2: "'c2sc' Capitals to Small Capitals lookup 11 subtable" k.sc
Substitution2: "'aalt' Access All Alternates lookup 0 subtable" k.sc
EndChar

StartChar: L
Encoding: 76 76 46
Width: 601
GlyphClass: 2
Flags: W
AnchorPoint: "Anchor-0" 345 0 basechar 0
LayerCount: 2
Back
Fore
SplineSet
572 111 m 1,0,-1
 572 0 l 1,1,-1
 86 0 l 1,2,-1
 86 660 l 1,3,-1
 224 660 l 1,4,-1
 224 111 l 1,5,-1
 572 111 l 1,0,-1
EndSplineSet
Validated: 1
Substitution2: "Single Substitution lookup 57 subtable" L.swsh
Substitution2: "'swsh' Swash lookup 34 subtable" L.swsh
Substitution2: "'c2sc' Capitals to Small Capitals lookup 11 subtable" l.sc
AlternateSubs2: "'aalt' Access All Alternates lookup 1 subtable" l.sc L.swsh
Position2: "Single Positioning lookup 6 per glyph data 0" dx=0 dy=0 dh=-152 dv=0
EndChar

StartChar: Lacute
Encoding: 313 313 47
Width: 601
GlyphClass: 2
Flags: W
AnchorPoint: "Anchor-0" 345 0 basechar 0
LayerCount: 2
Back
Fore
SplineSet
197 730 m 1,0,-1
 94 730 l 1,1,-1
 150 885 l 1,2,-1
 286 885 l 1,3,-1
 197 730 l 1,0,-1
572 111 m 1,4,-1
 572 0 l 1,5,-1
 86 0 l 1,6,-1
 86 660 l 1,7,-1
 224 660 l 1,8,-1
 224 111 l 1,9,-1
 572 111 l 1,4,-1
EndSplineSet
Validated: 1
Substitution2: "Single Substitution lookup 57 subtable" Lacute.swsh
Substitution2: "'swsh' Swash lookup 34 subtable" Lacute.swsh
Substitution2: "'c2sc' Capitals to Small Capitals lookup 11 subtable" lacute.sc
AlternateSubs2: "'aalt' Access All Alternates lookup 1 subtable" lacute.sc Lacute.swsh
EndChar

StartChar: Lcaron
Encoding: 317 317 48
Width: 601
GlyphClass: 2
Flags: W
AnchorPoint: "Anchor-0" 345 0 basechar 0
LayerCount: 2
Back
Fore
SplineSet
400 477 m 1,0,-1
 311 477 l 1,1,-1
 334 701 l 1,2,-1
 452 701 l 1,3,-1
 400 477 l 1,0,-1
572 111 m 1,4,-1
 572 0 l 1,5,-1
 86 0 l 1,6,-1
 86 660 l 1,7,-1
 224 660 l 1,8,-1
 224 111 l 1,9,-1
 572 111 l 1,4,-1
EndSplineSet
Validated: 1
Substitution2: "Single Substitution lookup 57 subtable" Lcaron.swsh
Substitution2: "'swsh' Swash lookup 34 subtable" Lcaron.swsh
Substitution2: "'c2sc' Capitals to Small Capitals lookup 11 subtable" lcaron.sc
AlternateSubs2: "'aalt' Access All Alternates lookup 1 subtable" lcaron.sc Lcaron.swsh
EndChar

StartChar: Lslash
Encoding: 321 321 50
Width: 638
GlyphClass: 2
Flags: W
AnchorPoint: "Anchor-0" 383 0 basechar 0
LayerCount: 2
Back
Fore
SplineSet
610 111 m 1,0,-1
 610 0 l 1,1,-1
 124 0 l 1,2,-1
 124 232 l 1,3,-1
 15 177 l 1,4,-1
 15 287 l 1,5,-1
 124 341 l 1,6,-1
 124 660 l 1,7,-1
 262 660 l 1,8,-1
 262 411 l 1,9,-1
 435 498 l 1,10,-1
 435 388 l 1,11,-1
 262 301 l 1,12,-1
 262 111 l 1,13,-1
 610 111 l 1,0,-1
EndSplineSet
Validated: 1
Substitution2: "Single Substitution lookup 57 subtable" Lslash.swsh
Substitution2: "'swsh' Swash lookup 34 subtable" Lslash.swsh
Substitution2: "'c2sc' Capitals to Small Capitals lookup 11 subtable" lslash.sc
AlternateSubs2: "'aalt' Access All Alternates lookup 1 subtable" lslash.sc Lslash.swsh
EndChar

StartChar: M
Encoding: 77 77 51
Width: 890
GlyphClass: 2
Flags: W
LayerCount: 2
Back
Fore
SplineSet
804 0 m 1,0,-1
 680 0 l 1,1,-1
 680 344 l 1,2,-1
 686 537 l 1,3,-1
 684 537 l 1,4,-1
 501 0 l 1,5,-1
 388 0 l 1,6,-1
 206 537 l 1,7,-1
 204 537 l 1,8,-1
 211 344 l 1,9,-1
 211 0 l 1,10,-1
 86 0 l 1,11,-1
 86 660 l 1,12,-1
 286 660 l 1,13,-1
 405 300 l 1,14,-1
 447 151 l 1,15,-1
 449 151 l 1,16,-1
 492 299 l 1,17,-1
 610 660 l 1,18,-1
 804 660 l 1,19,-1
 804 0 l 1,0,-1
EndSplineSet
Validated: 1
Substitution2: "Single Substitution lookup 56 subtable" M.swsh
AlternateSubs2: "'swsh' Swash lookup 35 subtable" M.swsh M.swsh.001
Substitution2: "'c2sc' Capitals to Small Capitals lookup 11 subtable" m.sc
AlternateSubs2: "'aalt' Access All Alternates lookup 1 subtable" m.sc M.swsh M.swsh.001
EndChar

StartChar: N
Encoding: 78 78 52
Width: 739
GlyphClass: 2
Flags: W
AnchorPoint: "Anchor-0" 388 0 basechar 0
LayerCount: 2
Back
Fore
SplineSet
653 0 m 1,0,-1
 495 0 l 1,1,-1
 264 388 l 1,2,-1
 207 499 l 1,3,-1
 206 499 l 1,4,-1
 210 382 l 1,5,-1
 210 0 l 1,6,-1
 86 0 l 1,7,-1
 86 660 l 1,8,-1
 243 660 l 1,9,-1
 474 273 l 1,10,-1
 531 161 l 1,11,-1
 533 161 l 1,12,-1
 529 278 l 1,13,-1
 529 660 l 1,14,-1
 653 660 l 1,15,-1
 653 0 l 1,0,-1
EndSplineSet
Validated: 1
Substitution2: "Single Substitution lookup 57 subtable" N.swsh
Substitution2: "'swsh' Swash lookup 36 subtable" N.swsh
Substitution2: "'c2sc' Capitals to Small Capitals lookup 11 subtable" n.sc
AlternateSubs2: "'aalt' Access All Alternates lookup 1 subtable" n.sc N.swsh
EndChar

StartChar: Nacute
Encoding: 323 323 53
Width: 739
GlyphClass: 2
Flags: W
AnchorPoint: "Anchor-0" 388 0 basechar 0
LayerCount: 2
Back
Fore
SplineSet
503 885 m 1,0,-1
 414 730 l 1,1,-1
 311 730 l 1,2,-1
 367 885 l 1,3,-1
 503 885 l 1,0,-1
653 0 m 1,4,-1
 495 0 l 1,5,-1
 264 388 l 1,6,-1
 207 499 l 1,7,-1
 206 499 l 1,8,-1
 210 382 l 1,9,-1
 210 0 l 1,10,-1
 86 0 l 1,11,-1
 86 660 l 1,12,-1
 243 660 l 1,13,-1
 474 273 l 1,14,-1
 531 161 l 1,15,-1
 533 161 l 1,16,-1
 529 278 l 1,17,-1
 529 660 l 1,18,-1
 653 660 l 1,19,-1
 653 0 l 1,4,-1
EndSplineSet
Validated: 1
Substitution2: "Single Substitution lookup 57 subtable" Nacute.swsh
Substitution2: "'swsh' Swash lookup 36 subtable" Nacute.swsh
Substitution2: "'c2sc' Capitals to Small Capitals lookup 11 subtable" nacute.sc
AlternateSubs2: "'aalt' Access All Alternates lookup 1 subtable" nacute.sc Nacute.swsh
EndChar

StartChar: Ncaron
Encoding: 327 327 54
Width: 739
GlyphClass: 2
Flags: W
AnchorPoint: "Anchor-0" 388 0 basechar 0
LayerCount: 2
Back
Fore
SplineSet
438 727 m 1,0,-1
 300 727 l 1,1,-1
 189 894 l 1,2,-1
 295 894 l 1,3,-1
 369 796 l 1,4,-1
 443 894 l 1,5,-1
 549 894 l 1,6,-1
 438 727 l 1,0,-1
653 0 m 1,7,-1
 495 0 l 1,8,-1
 264 388 l 1,9,-1
 207 499 l 1,10,-1
 206 499 l 1,11,-1
 210 382 l 1,12,-1
 210 0 l 1,13,-1
 86 0 l 1,14,-1
 86 660 l 1,15,-1
 243 660 l 1,16,-1
 474 273 l 1,17,-1
 531 161 l 1,18,-1
 533 161 l 1,19,-1
 529 278 l 1,20,-1
 529 660 l 1,21,-1
 653 660 l 1,22,-1
 653 0 l 1,7,-1
EndSplineSet
Validated: 1
Substitution2: "Single Substitution lookup 57 subtable" Ncaron.swsh
Substitution2: "'swsh' Swash lookup 36 subtable" Ncaron.swsh
Substitution2: "'c2sc' Capitals to Small Capitals lookup 11 subtable" ncaron.sc
AlternateSubs2: "'aalt' Access All Alternates lookup 1 subtable" ncaron.sc Ncaron.swsh
EndChar

StartChar: O
Encoding: 79 79 56
Width: 741
GlyphClass: 2
Flags: W
LayerCount: 2
Back
Fore
SplineSet
539.5 629 m 128,-1,1
 611 588 611 588 649.5 511.5 c 128,-1,2
 688 435 688 435 688 330 c 256,3,4
 688 225 688 225 649.5 148.5 c 128,-1,5
 611 72 611 72 539.5 31 c 128,-1,6
 468 -10 468 -10 371 -10 c 256,7,8
 274 -10 274 -10 202 31 c 128,-1,9
 130 72 130 72 91.5 148.5 c 128,-1,10
 53 225 53 225 53 330 c 256,11,12
 53 435 53 435 91.5 511.5 c 128,-1,13
 130 588 130 588 202 629 c 128,-1,14
 274 670 274 670 371 670 c 256,15,0
 468 670 468 670 539.5 629 c 128,-1,1
241.5 498.5 m 128,-1,17
 196 440 196 440 196 330 c 256,18,19
 196 220 196 220 241.5 161.5 c 128,-1,20
 287 103 287 103 371 103 c 0,21,22
 454 103 454 103 499.5 161.5 c 128,-1,23
 545 220 545 220 545 330 c 256,24,25
 545 440 545 440 499.5 498.5 c 128,-1,26
 454 557 454 557 371 557 c 0,27,16
 287 557 287 557 241.5 498.5 c 128,-1,17
EndSplineSet
Validated: 1
Substitution2: "Single Substitution lookup 55 subtable" ordmasculine
Substitution2: "'nalt' Alternate Annotation Forms lookup 23 subtable" indexring
Substitution2: "'sups' Superscript lookup 15 subtable" Osuperior
Substitution2: "'subs' Subscript lookup 14 subtable" Oinferior
Substitution2: "'sinf' Scientific Inferiors lookup 13 subtable" Oinferior
Substitution2: "'c2sc' Capitals to Small Capitals lookup 11 subtable" o.sc
AlternateSubs2: "'aalt' Access All Alternates lookup 1 subtable" o.sc Oinferior Osuperior ordmasculine indexring
EndChar

StartChar: Oacute
Encoding: 211 211 57
Width: 741
GlyphClass: 2
Flags: W
LayerCount: 2
Back
Fore
SplineSet
502 885 m 1,0,-1
 413 730 l 1,1,-1
 310 730 l 1,2,-1
 366 885 l 1,3,-1
 502 885 l 1,0,-1
539.5 629 m 128,-1,5
 611 588 611 588 649.5 511.5 c 128,-1,6
 688 435 688 435 688 330 c 256,7,8
 688 225 688 225 649.5 148.5 c 128,-1,9
 611 72 611 72 539.5 31 c 128,-1,10
 468 -10 468 -10 371 -10 c 256,11,12
 274 -10 274 -10 202 31 c 128,-1,13
 130 72 130 72 91.5 148.5 c 128,-1,14
 53 225 53 225 53 330 c 256,15,16
 53 435 53 435 91.5 511.5 c 128,-1,17
 130 588 130 588 202 629 c 128,-1,18
 274 670 274 670 371 670 c 256,19,4
 468 670 468 670 539.5 629 c 128,-1,5
241.5 498.5 m 128,-1,21
 196 440 196 440 196 330 c 256,22,23
 196 220 196 220 241.5 161.5 c 128,-1,24
 287 103 287 103 371 103 c 0,25,26
 454 103 454 103 499.5 161.5 c 128,-1,27
 545 220 545 220 545 330 c 256,28,29
 545 440 545 440 499.5 498.5 c 128,-1,30
 454 557 454 557 371 557 c 0,31,20
 287 557 287 557 241.5 498.5 c 128,-1,21
EndSplineSet
Validated: 1
Substitution2: "'c2sc' Capitals to Small Capitals lookup 11 subtable" oacute.sc
Substitution2: "'aalt' Access All Alternates lookup 0 subtable" oacute.sc
EndChar

StartChar: Ocircumflex
Encoding: 212 212 58
Width: 741
GlyphClass: 2
Flags: W
LayerCount: 2
Back
Fore
SplineSet
445 726 m 1,0,-1
 371 824 l 1,1,-1
 297 726 l 1,2,-1
 191 726 l 1,3,-1
 302 893 l 1,4,-1
 440 893 l 1,5,-1
 551 726 l 1,6,-1
 445 726 l 1,0,-1
539.5 629 m 128,-1,8
 611 588 611 588 649.5 511.5 c 128,-1,9
 688 435 688 435 688 330 c 256,10,11
 688 225 688 225 649.5 148.5 c 128,-1,12
 611 72 611 72 539.5 31 c 128,-1,13
 468 -10 468 -10 371 -10 c 256,14,15
 274 -10 274 -10 202 31 c 128,-1,16
 130 72 130 72 91.5 148.5 c 128,-1,17
 53 225 53 225 53 330 c 256,18,19
 53 435 53 435 91.5 511.5 c 128,-1,20
 130 588 130 588 202 629 c 128,-1,21
 274 670 274 670 371 670 c 256,22,7
 468 670 468 670 539.5 629 c 128,-1,8
241.5 498.5 m 128,-1,24
 196 440 196 440 196 330 c 256,25,26
 196 220 196 220 241.5 161.5 c 128,-1,27
 287 103 287 103 371 103 c 0,28,29
 454 103 454 103 499.5 161.5 c 128,-1,30
 545 220 545 220 545 330 c 256,31,32
 545 440 545 440 499.5 498.5 c 128,-1,33
 454 557 454 557 371 557 c 0,34,23
 287 557 287 557 241.5 498.5 c 128,-1,24
EndSplineSet
Validated: 1
Substitution2: "'c2sc' Capitals to Small Capitals lookup 11 subtable" ocircumflex.sc
Substitution2: "'aalt' Access All Alternates lookup 0 subtable" ocircumflex.sc
EndChar

StartChar: Ograve
Encoding: 210 210 60
Width: 741
GlyphClass: 2
Flags: W
LayerCount: 2
Back
Fore
SplineSet
419 730 m 1,0,-1
 316 730 l 1,1,-1
 227 885 l 1,2,-1
 363 885 l 1,3,-1
 419 730 l 1,0,-1
539.5 629 m 128,-1,5
 611 588 611 588 649.5 511.5 c 128,-1,6
 688 435 688 435 688 330 c 256,7,8
 688 225 688 225 649.5 148.5 c 128,-1,9
 611 72 611 72 539.5 31 c 128,-1,10
 468 -10 468 -10 371 -10 c 256,11,12
 274 -10 274 -10 202 31 c 128,-1,13
 130 72 130 72 91.5 148.5 c 128,-1,14
 53 225 53 225 53 330 c 256,15,16
 53 435 53 435 91.5 511.5 c 128,-1,17
 130 588 130 588 202 629 c 128,-1,18
 274 670 274 670 371 670 c 256,19,4
 468 670 468 670 539.5 629 c 128,-1,5
241.5 498.5 m 128,-1,21
 196 440 196 440 196 330 c 256,22,23
 196 220 196 220 241.5 161.5 c 128,-1,24
 287 103 287 103 371 103 c 0,25,26
 454 103 454 103 499.5 161.5 c 128,-1,27
 545 220 545 220 545 330 c 256,28,29
 545 440 545 440 499.5 498.5 c 128,-1,30
 454 557 454 557 371 557 c 0,31,20
 287 557 287 557 241.5 498.5 c 128,-1,21
EndSplineSet
Validated: 1
Substitution2: "'c2sc' Capitals to Small Capitals lookup 11 subtable" ograve.sc
Substitution2: "'aalt' Access All Alternates lookup 0 subtable" ograve.sc
EndChar

StartChar: Ohungarumlaut
Encoding: 336 336 61
Width: 741
GlyphClass: 2
Flags: W
LayerCount: 2
Back
Fore
SplineSet
406 885 m 1,0,-1
 316 730 l 1,1,-1
 214 730 l 1,2,-1
 269 885 l 1,3,-1
 406 885 l 1,0,-1
613 885 m 1,4,-1
 523 730 l 1,5,-1
 421 730 l 1,6,-1
 476 885 l 1,7,-1
 613 885 l 1,4,-1
539.5 629 m 128,-1,9
 611 588 611 588 649.5 511.5 c 128,-1,10
 688 435 688 435 688 330 c 256,11,12
 688 225 688 225 649.5 148.5 c 128,-1,13
 611 72 611 72 539.5 31 c 128,-1,14
 468 -10 468 -10 371 -10 c 256,15,16
 274 -10 274 -10 202 31 c 128,-1,17
 130 72 130 72 91.5 148.5 c 128,-1,18
 53 225 53 225 53 330 c 256,19,20
 53 435 53 435 91.5 511.5 c 128,-1,21
 130 588 130 588 202 629 c 128,-1,22
 274 670 274 670 371 670 c 256,23,8
 468 670 468 670 539.5 629 c 128,-1,9
241.5 498.5 m 128,-1,25
 196 440 196 440 196 330 c 256,26,27
 196 220 196 220 241.5 161.5 c 128,-1,28
 287 103 287 103 371 103 c 0,29,30
 454 103 454 103 499.5 161.5 c 128,-1,31
 545 220 545 220 545 330 c 256,32,33
 545 440 545 440 499.5 498.5 c 128,-1,34
 454 557 454 557 371 557 c 0,35,24
 287 557 287 557 241.5 498.5 c 128,-1,25
EndSplineSet
Validated: 1
Substitution2: "'c2sc' Capitals to Small Capitals lookup 11 subtable" ohungarumlaut.sc
Substitution2: "'aalt' Access All Alternates lookup 0 subtable" ohungarumlaut.sc
EndChar

StartChar: Oslash
Encoding: 216 216 63
Width: 741
GlyphClass: 2
Flags: W
LayerCount: 2
Back
Fore
SplineSet
665 475.5 m 128,-1,1
 688 411 688 411 688 330 c 0,2,3
 688 225 688 225 649.5 148.5 c 128,-1,4
 611 72 611 72 539.5 31 c 128,-1,5
 468 -10 468 -10 371 -10 c 0,6,7
 271 -10 271 -10 199 33 c 1,8,-1
 153 -31 l 1,9,-1
 73 -31 l 1,10,-1
 146 72 l 1,11,12
 101 117 101 117 77 182.5 c 128,-1,13
 53 248 53 248 53 330 c 0,14,15
 53 435 53 435 91.5 511.5 c 128,-1,16
 130 588 130 588 202 629 c 128,-1,17
 274 670 274 670 371 670 c 0,18,19
 473 670 473 670 547 625 c 1,20,-1
 588 682 l 1,21,-1
 668 682 l 1,22,-1
 598 584 l 1,23,0
 642 540 642 540 665 475.5 c 128,-1,1
241.5 498.5 m 128,-1,25
 196 440 196 440 196 330 c 0,26,27
 196 236 196 236 229 180 c 1,28,-1
 472 526 l 1,29,30
 430 557 430 557 371 557 c 0,31,24
 287 557 287 557 241.5 498.5 c 128,-1,25
499.5 161.5 m 128,-1,33
 545 220 545 220 545 330 c 0,34,35
 545 417 545 417 516 473 c 1,36,-1
 275 130 l 1,37,38
 314 103 314 103 371 103 c 0,39,32
 454 103 454 103 499.5 161.5 c 128,-1,33
EndSplineSet
Validated: 1
Substitution2: "'c2sc' Capitals to Small Capitals lookup 11 subtable" oslash.sc
Substitution2: "'aalt' Access All Alternates lookup 0 subtable" oslash.sc
EndChar

StartChar: OE
Encoding: 338 338 65
Width: 1060
GlyphClass: 2
Flags: W
LayerCount: 2
Back
Fore
SplineSet
1022 111 m 1,0,-1
 1022 0 l 1,1,-1
 569 0 l 1,2,-1
 569 85 l 1,3,4
 531 40 531 40 478.5 15 c 128,-1,5
 426 -10 426 -10 361 -10 c 0,6,7
 267 -10 267 -10 197.5 31 c 128,-1,8
 128 72 128 72 90.5 148.5 c 128,-1,9
 53 225 53 225 53 330 c 256,10,11
 53 435 53 435 90.5 511.5 c 128,-1,12
 128 588 128 588 198 629 c 128,-1,13
 268 670 268 670 363 670 c 0,14,15
 428 670 428 670 480 646 c 128,-1,16
 532 622 532 622 569 577 c 1,17,-1
 569 660 l 1,18,-1
 1008 660 l 1,19,-1
 1008 549 l 1,20,-1
 669 549 l 1,21,-1
 669 385 l 1,22,-1
 932 385 l 1,23,-1
 932 279 l 1,24,-1
 669 279 l 1,25,-1
 669 111 l 1,26,-1
 1022 111 l 1,0,-1
490.5 162 m 128,-1,28
 535 221 535 221 535 330 c 256,29,30
 535 439 535 439 490.5 498 c 128,-1,31
 446 557 446 557 368 557 c 0,32,33
 283 557 283 557 238.5 498.5 c 128,-1,34
 194 440 194 440 194 330 c 256,35,36
 194 220 194 220 238.5 161.5 c 128,-1,37
 283 103 283 103 368 103 c 0,38,27
 446 103 446 103 490.5 162 c 128,-1,28
EndSplineSet
Validated: 1
Substitution2: "'c2sc' Capitals to Small Capitals lookup 11 subtable" oe.sc
Substitution2: "'aalt' Access All Alternates lookup 0 subtable" oe.sc
EndChar

StartChar: P
Encoding: 80 80 66
Width: 646
GlyphClass: 2
Flags: W
LayerCount: 2
Back
Fore
SplineSet
542 604.5 m 128,-1,1
 606 549 606 549 606 448 c 0,2,3
 606 350 606 350 542 295 c 128,-1,4
 478 240 478 240 363 240 c 2,5,-1
 224 240 l 1,6,-1
 224 0 l 1,7,-1
 86 0 l 1,8,-1
 86 660 l 1,9,-1
 363 660 l 2,10,0
 478 660 478 660 542 604.5 c 128,-1,1
436 372.5 m 128,-1,12
 466 398 466 398 466 449 c 256,13,14
 466 500 466 500 436 525 c 128,-1,15
 406 550 406 550 342 550 c 2,16,-1
 224 550 l 1,17,-1
 224 347 l 1,18,-1
 342 347 l 2,19,11
 406 347 406 347 436 372.5 c 128,-1,12
EndSplineSet
Validated: 1
Substitution2: "'c2sc' Capitals to Small Capitals lookup 11 subtable" p.sc
Substitution2: "'aalt' Access All Alternates lookup 0 subtable" p.sc
EndChar

StartChar: Thorn
Encoding: 222 222 67
Width: 652
GlyphClass: 2
Flags: W
LayerCount: 2
Back
Fore
SplineSet
542.5 498 m 128,-1,1
 608 443 608 443 607 337 c 0,2,3
 608 232 608 232 542.5 176.5 c 128,-1,4
 477 121 477 121 352 121 c 2,5,-1
 224 121 l 1,6,-1
 224 0 l 1,7,-1
 86 0 l 1,8,-1
 86 660 l 1,9,-1
 224 660 l 1,10,-1
 224 553 l 1,11,-1
 352 553 l 2,12,0
 477 553 477 553 542.5 498 c 128,-1,1
436 256.5 m 128,-1,14
 467 283 467 283 467 337 c 256,15,16
 467 391 467 391 436 417.5 c 128,-1,17
 405 444 405 444 342 444 c 2,18,-1
 224 444 l 1,19,-1
 224 230 l 1,20,-1
 342 230 l 2,21,13
 405 230 405 230 436 256.5 c 128,-1,14
EndSplineSet
Validated: 33
Substitution2: "'c2sc' Capitals to Small Capitals lookup 11 subtable" thorn.sc
Substitution2: "'aalt' Access All Alternates lookup 0 subtable" thorn.sc
EndChar

StartChar: Q
Encoding: 81 81 68
Width: 741
GlyphClass: 2
Flags: W
LayerCount: 2
Back
Fore
SplineSet
598 -76 m 128,-1,1
 629 -66 629 -66 649 -48 c 1,2,-1
 685 -154 l 1,3,4
 659 -176 659 -176 615.5 -188.5 c 128,-1,5
 572 -201 572 -201 523 -201 c 0,6,7
 427 -201 427 -201 373 -151.5 c 128,-1,8
 319 -102 319 -102 321 -7 c 1,9,10
 195 8 195 8 124 97 c 128,-1,11
 53 186 53 186 53 330 c 0,12,13
 53 435 53 435 91.5 511.5 c 128,-1,14
 130 588 130 588 202 629 c 128,-1,15
 274 670 274 670 371 670 c 256,16,17
 468 670 468 670 539.5 629 c 128,-1,18
 611 588 611 588 649.5 511.5 c 128,-1,19
 688 435 688 435 688 330 c 0,20,21
 688 185 688 185 616 96 c 128,-1,22
 544 7 544 7 417 -7 c 1,23,24
 422 -52 422 -52 450 -69 c 128,-1,25
 478 -86 478 -86 528 -86 c 0,26,0
 567 -86 567 -86 598 -76 c 128,-1,1
241.5 161.5 m 128,-1,28
 287 103 287 103 371 103 c 0,29,30
 454 103 454 103 499.5 161.5 c 128,-1,31
 545 220 545 220 545 330 c 256,32,33
 545 440 545 440 499.5 498.5 c 128,-1,34
 454 557 454 557 371 557 c 0,35,36
 287 557 287 557 241.5 498.5 c 128,-1,37
 196 440 196 440 196 330 c 256,38,27
 196 220 196 220 241.5 161.5 c 128,-1,28
EndSplineSet
Validated: 33
Substitution2: "'c2sc' Capitals to Small Capitals lookup 11 subtable" q.sc
Substitution2: "'aalt' Access All Alternates lookup 0 subtable" q.sc
EndChar

StartChar: R
Encoding: 82 82 69
Width: 680
GlyphClass: 2
Flags: W
AnchorPoint: "Anchor-0" 364 0 basechar 0
LayerCount: 2
Back
Fore
SplineSet
346 253 m 1,0,-1
 222 253 l 1,1,-1
 222 0 l 1,2,-1
 86 0 l 1,3,-1
 86 660 l 1,4,-1
 377 660 l 2,5,6
 490 660 490 660 553.5 606.5 c 128,-1,7
 617 553 617 553 617 456 c 0,8,9
 617 385 617 385 582 337 c 128,-1,10
 547 289 547 289 482 268 c 1,11,-1
 656 0 l 1,12,-1
 501 0 l 1,13,-1
 346 253 l 1,0,-1
222 358 m 1,14,-1
 359 358 l 2,15,16
 419 358 419 358 447.5 381.5 c 128,-1,17
 476 405 476 405 476 454 c 256,18,19
 476 503 476 503 447.5 526.5 c 128,-1,20
 419 550 419 550 359 550 c 2,21,-1
 222 550 l 1,22,-1
 222 358 l 1,14,-1
EndSplineSet
Validated: 1
Substitution2: "Single Substitution lookup 57 subtable" R.swsh.001
Substitution2: "Single Substitution lookup 56 subtable" R.swsh
Substitution2: "'ss03' Style Set 3 lookup 49 subtable" R.ss03
Substitution2: "'salt' Stylistic Alternatives lookup 42 subtable" R.ss03
AlternateSubs2: "'swsh' Swash lookup 37 subtable" R.swsh R.swsh.001
Substitution2: "'c2sc' Capitals to Small Capitals lookup 11 subtable" r.sc
AlternateSubs2: "'aalt' Access All Alternates lookup 1 subtable" r.sc R.swsh R.swsh.001 R.ss03
EndChar

StartChar: Racute
Encoding: 340 340 70
Width: 680
GlyphClass: 2
Flags: W
AnchorPoint: "Anchor-0" 364 0 basechar 0
LayerCount: 2
Back
Fore
SplineSet
369 730 m 1,0,-1
 266 730 l 1,1,-1
 322 885 l 1,2,-1
 458 885 l 1,3,-1
 369 730 l 1,0,-1
346 253 m 1,4,-1
 222 253 l 1,5,-1
 222 0 l 1,6,-1
 86 0 l 1,7,-1
 86 660 l 1,8,-1
 377 660 l 2,9,10
 490 660 490 660 553.5 606.5 c 128,-1,11
 617 553 617 553 617 456 c 0,12,13
 617 385 617 385 582 337 c 128,-1,14
 547 289 547 289 482 268 c 1,15,-1
 656 0 l 1,16,-1
 501 0 l 1,17,-1
 346 253 l 1,4,-1
222 358 m 1,18,-1
 359 358 l 2,19,20
 419 358 419 358 447.5 381.5 c 128,-1,21
 476 405 476 405 476 454 c 256,22,23
 476 503 476 503 447.5 526.5 c 128,-1,24
 419 550 419 550 359 550 c 2,25,-1
 222 550 l 1,26,-1
 222 358 l 1,18,-1
EndSplineSet
Validated: 1
Substitution2: "Single Substitution lookup 57 subtable" Racute.swsh.001
Substitution2: "Single Substitution lookup 56 subtable" Racute.swsh
Substitution2: "'ss03' Style Set 3 lookup 49 subtable" Racute.ss03
Substitution2: "'salt' Stylistic Alternatives lookup 42 subtable" Racute.ss03
AlternateSubs2: "'swsh' Swash lookup 37 subtable" Racute.swsh Racute.swsh.001
Substitution2: "'c2sc' Capitals to Small Capitals lookup 11 subtable" racute.sc
AlternateSubs2: "'aalt' Access All Alternates lookup 1 subtable" racute.sc Racute.swsh Racute.swsh.001 Racute.ss03
EndChar

StartChar: Rcaron
Encoding: 344 344 71
Width: 680
GlyphClass: 2
Flags: W
AnchorPoint: "Anchor-0" 364 0 basechar 0
LayerCount: 2
Back
Fore
SplineSet
255 727 m 1,0,-1
 144 894 l 1,1,-1
 250 894 l 1,2,-1
 324 796 l 1,3,-1
 398 894 l 1,4,-1
 504 894 l 1,5,-1
 393 727 l 1,6,-1
 255 727 l 1,0,-1
346 253 m 1,7,-1
 222 253 l 1,8,-1
 222 0 l 1,9,-1
 86 0 l 1,10,-1
 86 660 l 1,11,-1
 377 660 l 2,12,13
 490 660 490 660 553.5 606.5 c 128,-1,14
 617 553 617 553 617 456 c 0,15,16
 617 385 617 385 582 337 c 128,-1,17
 547 289 547 289 482 268 c 1,18,-1
 656 0 l 1,19,-1
 501 0 l 1,20,-1
 346 253 l 1,7,-1
222 358 m 1,21,-1
 359 358 l 2,22,23
 419 358 419 358 447.5 381.5 c 128,-1,24
 476 405 476 405 476 454 c 256,25,26
 476 503 476 503 447.5 526.5 c 128,-1,27
 419 550 419 550 359 550 c 2,28,-1
 222 550 l 1,29,-1
 222 358 l 1,21,-1
EndSplineSet
Validated: 1
Substitution2: "Single Substitution lookup 57 subtable" Rcaron.swsh.001
Substitution2: "Single Substitution lookup 56 subtable" Rcaron.swsh
Substitution2: "'ss03' Style Set 3 lookup 49 subtable" Rcaron.ss03
Substitution2: "'salt' Stylistic Alternatives lookup 42 subtable" Rcaron.ss03
AlternateSubs2: "'swsh' Swash lookup 37 subtable" Rcaron.swsh Rcaron.swsh.001
Substitution2: "'c2sc' Capitals to Small Capitals lookup 11 subtable" rcaron.sc
AlternateSubs2: "'aalt' Access All Alternates lookup 1 subtable" rcaron.sc Rcaron.swsh Rcaron.swsh.001 Rcaron.ss03
EndChar

StartChar: S
Encoding: 83 83 72
Width: 643
GlyphClass: 2
Flags: W
AnchorPoint: "Anchor-0" 351 0 basechar 0
LayerCount: 2
Back
Fore
SplineSet
485 639.5 m 128,-1,1
 551 609 551 609 601 543 c 1,2,-1
 506 450 l 1,3,4
 480 504 480 504 437 530.5 c 128,-1,5
 394 557 394 557 328 557 c 0,6,7
 268 557 268 557 235.5 534.5 c 128,-1,8
 203 512 203 512 203 475 c 0,9,10
 203 441 203 441 236 421 c 128,-1,11
 269 401 269 401 355 386 c 0,12,13
 445 369 445 369 498 344 c 128,-1,14
 551 319 551 319 575.5 281.5 c 128,-1,15
 600 244 600 244 600 188 c 0,16,17
 600 127 600 127 565.5 82.5 c 128,-1,18
 531 38 531 38 469.5 14 c 128,-1,19
 408 -10 408 -10 329 -10 c 0,20,21
 220 -10 220 -10 150.5 20.5 c 128,-1,22
 81 51 81 51 38 113 c 1,23,-1
 120 211 l 1,24,25
 157 150 157 150 205 126.5 c 128,-1,26
 253 103 253 103 324 103 c 0,27,28
 388 103 388 103 421.5 123 c 128,-1,29
 455 143 455 143 455 180 c 0,30,31
 455 207 455 207 423.5 225 c 128,-1,32
 392 243 392 243 311 259 c 0,33,34
 218 278 218 278 162.5 304 c 128,-1,35
 107 330 107 330 82 368 c 128,-1,36
 57 406 57 406 57 462 c 0,37,38
 57 521 57 521 89 568.5 c 128,-1,39
 121 616 121 616 182.5 643 c 128,-1,40
 244 670 244 670 327 670 c 0,41,0
 419 670 419 670 485 639.5 c 128,-1,1
EndSplineSet
Validated: 1
Substitution2: "Single Substitution lookup 57 subtable" S.swsh
Substitution2: "Single Substitution lookup 56 subtable" S.swsh
Substitution2: "'swsh' Swash lookup 38 subtable" S.swsh
Substitution2: "'c2sc' Capitals to Small Capitals lookup 11 subtable" s.sc
AlternateSubs2: "'aalt' Access All Alternates lookup 1 subtable" s.sc S.swsh
EndChar

StartChar: Sacute
Encoding: 346 346 73
Width: 643
GlyphClass: 2
Flags: W
AnchorPoint: "Anchor-0" 351 0 basechar 0
LayerCount: 2
Back
Fore
SplineSet
459 885 m 1,0,-1
 370 730 l 1,1,-1
 267 730 l 1,2,-1
 323 885 l 1,3,-1
 459 885 l 1,0,-1
485 639.5 m 128,-1,5
 551 609 551 609 601 543 c 1,6,-1
 506 450 l 1,7,8
 480 504 480 504 437 530.5 c 128,-1,9
 394 557 394 557 328 557 c 0,10,11
 268 557 268 557 235.5 534.5 c 128,-1,12
 203 512 203 512 203 475 c 0,13,14
 203 441 203 441 236 421 c 128,-1,15
 269 401 269 401 355 386 c 0,16,17
 445 369 445 369 498 344 c 128,-1,18
 551 319 551 319 575.5 281.5 c 128,-1,19
 600 244 600 244 600 188 c 0,20,21
 600 127 600 127 565.5 82.5 c 128,-1,22
 531 38 531 38 469.5 14 c 128,-1,23
 408 -10 408 -10 329 -10 c 0,24,25
 220 -10 220 -10 150.5 20.5 c 128,-1,26
 81 51 81 51 38 113 c 1,27,-1
 120 211 l 1,28,29
 157 150 157 150 205 126.5 c 128,-1,30
 253 103 253 103 324 103 c 0,31,32
 388 103 388 103 421.5 123 c 128,-1,33
 455 143 455 143 455 180 c 0,34,35
 455 207 455 207 423.5 225 c 128,-1,36
 392 243 392 243 311 259 c 0,37,38
 218 278 218 278 162.5 304 c 128,-1,39
 107 330 107 330 82 368 c 128,-1,40
 57 406 57 406 57 462 c 0,41,42
 57 521 57 521 89 568.5 c 128,-1,43
 121 616 121 616 182.5 643 c 128,-1,44
 244 670 244 670 327 670 c 0,45,4
 419 670 419 670 485 639.5 c 128,-1,5
EndSplineSet
Validated: 1
Substitution2: "Single Substitution lookup 57 subtable" Sacute.swsh
Substitution2: "'swsh' Swash lookup 38 subtable" Sacute.swsh
Substitution2: "'c2sc' Capitals to Small Capitals lookup 11 subtable" sacute.sc
AlternateSubs2: "'aalt' Access All Alternates lookup 1 subtable" sacute.sc Sacute.swsh
EndChar

StartChar: Scaron
Encoding: 352 352 74
Width: 643
GlyphClass: 2
Flags: W
AnchorPoint: "Anchor-0" 351 0 basechar 0
LayerCount: 2
Back
Fore
SplineSet
395 727 m 1,0,-1
 257 727 l 1,1,-1
 146 894 l 1,2,-1
 252 894 l 1,3,-1
 326 796 l 1,4,-1
 400 894 l 1,5,-1
 506 894 l 1,6,-1
 395 727 l 1,0,-1
485 639.5 m 128,-1,8
 551 609 551 609 601 543 c 1,9,-1
 506 450 l 1,10,11
 480 504 480 504 437 530.5 c 128,-1,12
 394 557 394 557 328 557 c 0,13,14
 268 557 268 557 235.5 534.5 c 128,-1,15
 203 512 203 512 203 475 c 0,16,17
 203 441 203 441 236 421 c 128,-1,18
 269 401 269 401 355 386 c 0,19,20
 445 369 445 369 498 344 c 128,-1,21
 551 319 551 319 575.5 281.5 c 128,-1,22
 600 244 600 244 600 188 c 0,23,24
 600 127 600 127 565.5 82.5 c 128,-1,25
 531 38 531 38 469.5 14 c 128,-1,26
 408 -10 408 -10 329 -10 c 0,27,28
 220 -10 220 -10 150.5 20.5 c 128,-1,29
 81 51 81 51 38 113 c 1,30,-1
 120 211 l 1,31,32
 157 150 157 150 205 126.5 c 128,-1,33
 253 103 253 103 324 103 c 0,34,35
 388 103 388 103 421.5 123 c 128,-1,36
 455 143 455 143 455 180 c 0,37,38
 455 207 455 207 423.5 225 c 128,-1,39
 392 243 392 243 311 259 c 0,40,41
 218 278 218 278 162.5 304 c 128,-1,42
 107 330 107 330 82 368 c 128,-1,43
 57 406 57 406 57 462 c 0,44,45
 57 521 57 521 89 568.5 c 128,-1,46
 121 616 121 616 182.5 643 c 128,-1,47
 244 670 244 670 327 670 c 0,48,7
 419 670 419 670 485 639.5 c 128,-1,8
EndSplineSet
Validated: 1
Substitution2: "Single Substitution lookup 57 subtable" Scaron.swsh
Substitution2: "'swsh' Swash lookup 38 subtable" Scaron.swsh
Substitution2: "'c2sc' Capitals to Small Capitals lookup 11 subtable" scaron.sc
AlternateSubs2: "'aalt' Access All Alternates lookup 1 subtable" scaron.sc Scaron.swsh
EndChar

StartChar: uni1E9E
Encoding: 7838 7838 75
Width: 709
GlyphClass: 2
Flags: W
LayerCount: 2
Back
Fore
SplineSet
625 318.5 m 128,-1,1
 680 273 680 273 680 187 c 0,2,3
 680 98 680 98 621 46.5 c 128,-1,4
 562 -5 562 -5 468 -5 c 0,5,6
 403 -5 403 -5 358 11 c 128,-1,7
 313 27 313 27 289 55 c 1,8,-1
 331 140 l 1,9,10
 350 121 350 121 379 110.5 c 128,-1,11
 408 100 408 100 443 100 c 0,12,13
 489 100 489 100 517.5 124.5 c 128,-1,14
 546 149 546 149 546 190 c 0,15,16
 546 233 546 233 515 256.5 c 128,-1,17
 484 280 484 280 428 280 c 2,18,-1
 344 280 l 1,19,-1
 344 366 l 1,20,-1
 501 550 l 1,21,-1
 359 550 l 2,22,23
 299 550 299 550 261.5 512 c 128,-1,24
 224 474 224 474 224 412 c 2,25,-1
 224 0 l 1,26,-1
 86 0 l 1,27,-1
 86 428 l 2,28,29
 86 498 86 498 117.5 550.5 c 128,-1,30
 149 603 149 603 206.5 631.5 c 128,-1,31
 264 660 264 660 340 660 c 2,32,-1
 640 660 l 1,33,-1
 640 551 l 1,34,-1
 478 366 l 1,35,0
 570 364 570 364 625 318.5 c 128,-1,1
EndSplineSet
Validated: 1
Substitution2: "'c2sc' Capitals to Small Capitals lookup 11 subtable" germandbls.sc
Substitution2: "'aalt' Access All Alternates lookup 0 subtable" germandbls.sc
EndChar

StartChar: T
Encoding: 84 84 76
Width: 635
GlyphClass: 2
Flags: W
AnchorPoint: "Anchor-0" 321 0 basechar 0
LayerCount: 2
Back
Fore
SplineSet
608 549 m 1,0,-1
 387 549 l 1,1,-1
 387 0 l 1,2,-1
 249 0 l 1,3,-1
 249 549 l 1,4,-1
 27 549 l 1,5,-1
 27 660 l 1,6,-1
 608 660 l 1,7,-1
 608 549 l 1,0,-1
EndSplineSet
Validated: 1
Substitution2: "Single Substitution lookup 56 subtable" T.swsh
Substitution2: "'swsh' Swash lookup 38 subtable" T.swsh
Substitution2: "'c2sc' Capitals to Small Capitals lookup 11 subtable" t.sc
AlternateSubs2: "'aalt' Access All Alternates lookup 1 subtable" t.sc T.swsh
EndChar

StartChar: Tcaron
Encoding: 356 356 77
Width: 635
GlyphClass: 2
Flags: W
AnchorPoint: "Anchor-0" 321 0 basechar 0
LayerCount: 2
Back
Fore
SplineSet
246 727 m 1,0,-1
 135 894 l 1,1,-1
 241 894 l 1,2,-1
 315 796 l 1,3,-1
 389 894 l 1,4,-1
 495 894 l 1,5,-1
 384 727 l 1,6,-1
 246 727 l 1,0,-1
608 549 m 1,7,-1
 387 549 l 1,8,-1
 387 0 l 1,9,-1
 249 0 l 1,10,-1
 249 549 l 1,11,-1
 27 549 l 1,12,-1
 27 660 l 1,13,-1
 608 660 l 1,14,-1
 608 549 l 1,7,-1
EndSplineSet
Validated: 1
Substitution2: "Single Substitution lookup 56 subtable" Tcaron.swsh
Substitution2: "'swsh' Swash lookup 38 subtable" Tcaron.swsh
Substitution2: "'c2sc' Capitals to Small Capitals lookup 11 subtable" tcaron.sc
AlternateSubs2: "'aalt' Access All Alternates lookup 1 subtable" tcaron.sc Tcaron.swsh
EndChar

StartChar: U
Encoding: 85 85 78
Width: 715
GlyphClass: 2
Flags: W
LayerCount: 2
Back
Fore
SplineSet
640 260 m 2,0,1
 640 126 640 126 568.5 58 c 128,-1,2
 497 -10 497 -10 358 -10 c 256,3,4
 219 -10 219 -10 147.5 58 c 128,-1,5
 76 126 76 126 76 260 c 2,6,-1
 76 660 l 1,7,-1
 214 660 l 1,8,-1
 214 266 l 2,9,10
 214 183 214 183 249.5 143 c 128,-1,11
 285 103 285 103 358 103 c 256,12,13
 431 103 431 103 466 143 c 128,-1,14
 501 183 501 183 501 266 c 2,15,-1
 501 660 l 1,16,-1
 640 660 l 1,17,-1
 640 260 l 2,0,1
EndSplineSet
Validated: 1
Substitution2: "'c2sc' Capitals to Small Capitals lookup 11 subtable" u.sc
Substitution2: "'aalt' Access All Alternates lookup 0 subtable" u.sc
EndChar

StartChar: Uacute
Encoding: 218 218 79
Width: 715
GlyphClass: 2
Flags: W
LayerCount: 2
Back
Fore
SplineSet
489 885 m 1,0,-1
 400 730 l 1,1,-1
 297 730 l 1,2,-1
 353 885 l 1,3,-1
 489 885 l 1,0,-1
640 260 m 2,4,5
 640 126 640 126 568.5 58 c 128,-1,6
 497 -10 497 -10 358 -10 c 256,7,8
 219 -10 219 -10 147.5 58 c 128,-1,9
 76 126 76 126 76 260 c 2,10,-1
 76 660 l 1,11,-1
 214 660 l 1,12,-1
 214 266 l 2,13,14
 214 183 214 183 249.5 143 c 128,-1,15
 285 103 285 103 358 103 c 256,16,17
 431 103 431 103 466 143 c 128,-1,18
 501 183 501 183 501 266 c 2,19,-1
 501 660 l 1,20,-1
 640 660 l 1,21,-1
 640 260 l 2,4,5
EndSplineSet
Validated: 1
Substitution2: "'c2sc' Capitals to Small Capitals lookup 11 subtable" uacute.sc
Substitution2: "'aalt' Access All Alternates lookup 0 subtable" uacute.sc
EndChar

StartChar: Ucircumflex
Encoding: 219 219 80
Width: 715
GlyphClass: 2
Flags: W
LayerCount: 2
Back
Fore
SplineSet
432 726 m 1,0,-1
 358 824 l 1,1,-1
 284 726 l 1,2,-1
 178 726 l 1,3,-1
 289 893 l 1,4,-1
 427 893 l 1,5,-1
 538 726 l 1,6,-1
 432 726 l 1,0,-1
640 260 m 2,7,8
 640 126 640 126 568.5 58 c 128,-1,9
 497 -10 497 -10 358 -10 c 256,10,11
 219 -10 219 -10 147.5 58 c 128,-1,12
 76 126 76 126 76 260 c 2,13,-1
 76 660 l 1,14,-1
 214 660 l 1,15,-1
 214 266 l 2,16,17
 214 183 214 183 249.5 143 c 128,-1,18
 285 103 285 103 358 103 c 256,19,20
 431 103 431 103 466 143 c 128,-1,21
 501 183 501 183 501 266 c 2,22,-1
 501 660 l 1,23,-1
 640 660 l 1,24,-1
 640 260 l 2,7,8
EndSplineSet
Validated: 1
Substitution2: "'c2sc' Capitals to Small Capitals lookup 11 subtable" ucircumflex.sc
Substitution2: "'aalt' Access All Alternates lookup 0 subtable" ucircumflex.sc
EndChar

StartChar: Ugrave
Encoding: 217 217 82
Width: 715
GlyphClass: 2
Flags: W
LayerCount: 2
Back
Fore
SplineSet
406 730 m 1,0,-1
 303 730 l 1,1,-1
 214 885 l 1,2,-1
 350 885 l 1,3,-1
 406 730 l 1,0,-1
640 260 m 2,4,5
 640 126 640 126 568.5 58 c 128,-1,6
 497 -10 497 -10 358 -10 c 256,7,8
 219 -10 219 -10 147.5 58 c 128,-1,9
 76 126 76 126 76 260 c 2,10,-1
 76 660 l 1,11,-1
 214 660 l 1,12,-1
 214 266 l 2,13,14
 214 183 214 183 249.5 143 c 128,-1,15
 285 103 285 103 358 103 c 256,16,17
 431 103 431 103 466 143 c 128,-1,18
 501 183 501 183 501 266 c 2,19,-1
 501 660 l 1,20,-1
 640 660 l 1,21,-1
 640 260 l 2,4,5
EndSplineSet
Validated: 1
Substitution2: "'c2sc' Capitals to Small Capitals lookup 11 subtable" ugrave.sc
Substitution2: "'aalt' Access All Alternates lookup 0 subtable" ugrave.sc
EndChar

StartChar: Uhungarumlaut
Encoding: 368 368 83
Width: 715
GlyphClass: 2
Flags: W
LayerCount: 2
Back
Fore
SplineSet
387 887 m 1,0,-1
 297 731 l 1,1,-1
 195 731 l 1,2,-1
 250 887 l 1,3,-1
 387 887 l 1,0,-1
590 885 m 1,4,-1
 500 730 l 1,5,-1
 398 730 l 1,6,-1
 454 885 l 1,7,-1
 590 885 l 1,4,-1
640 260 m 2,8,9
 640 126 640 126 568.5 58 c 128,-1,10
 497 -10 497 -10 358 -10 c 256,11,12
 219 -10 219 -10 147.5 58 c 128,-1,13
 76 126 76 126 76 260 c 2,14,-1
 76 660 l 1,15,-1
 214 660 l 1,16,-1
 214 266 l 2,17,18
 214 183 214 183 249.5 143 c 128,-1,19
 285 103 285 103 358 103 c 256,20,21
 431 103 431 103 466 143 c 128,-1,22
 501 183 501 183 501 266 c 2,23,-1
 501 660 l 1,24,-1
 640 660 l 1,25,-1
 640 260 l 2,8,9
EndSplineSet
Validated: 1
Substitution2: "'c2sc' Capitals to Small Capitals lookup 11 subtable" uhungarumlaut.sc
Substitution2: "'aalt' Access All Alternates lookup 0 subtable" uhungarumlaut.sc
EndChar

StartChar: Uogonek
Encoding: 370 370 85
Width: 715
GlyphClass: 2
Flags: W
LayerCount: 2
Back
Fore
SplineSet
640 660 m 1,0,-1
 640 260 l 2,1,2
 640 149 640 149 590.5 83 c 128,-1,3
 541 17 541 17 445 -2 c 1,4,5
 362 -40 362 -40 362 -86 c 0,6,7
 362 -108 362 -108 378 -121 c 128,-1,8
 394 -134 394 -134 420 -134 c 0,9,10
 453 -134 453 -134 470 -123 c 1,11,-1
 490 -194 l 1,12,13
 456 -215 456 -215 395 -215 c 0,14,15
 337 -215 337 -215 300 -186.5 c 128,-1,16
 263 -158 263 -158 263 -108 c 0,17,18
 263 -47 263 -47 318 -9 c 1,19,20
 199 1 199 1 137.5 68.5 c 128,-1,21
 76 136 76 136 76 260 c 2,22,-1
 76 660 l 1,23,-1
 214 660 l 1,24,-1
 214 266 l 2,25,26
 214 183 214 183 249.5 143 c 128,-1,27
 285 103 285 103 358 103 c 256,28,29
 431 103 431 103 466 143 c 128,-1,30
 501 183 501 183 501 266 c 2,31,-1
 501 660 l 1,32,-1
 640 660 l 1,0,-1
EndSplineSet
Validated: 1
Substitution2: "'c2sc' Capitals to Small Capitals lookup 11 subtable" uogonek.sc
Substitution2: "'aalt' Access All Alternates lookup 0 subtable" uogonek.sc
EndChar

StartChar: V
Encoding: 86 86 87
Width: 670
GlyphClass: 2
Flags: W
LayerCount: 2
Back
Fore
SplineSet
416 0 m 1,0,-1
 255 0 l 1,1,-1
 14 660 l 1,2,-1
 160 660 l 1,3,-1
 299 240 l 1,4,-1
 337 110 l 1,5,-1
 374 239 l 1,6,-1
 514 660 l 1,7,-1
 656 660 l 1,8,-1
 416 0 l 1,0,-1
EndSplineSet
Validated: 1
Substitution2: "'c2sc' Capitals to Small Capitals lookup 11 subtable" v.sc
Substitution2: "'aalt' Access All Alternates lookup 0 subtable" v.sc
EndChar

StartChar: W
Encoding: 87 87 88
Width: 984
GlyphClass: 2
Flags: W
LayerCount: 2
Back
Fore
SplineSet
370 0 m 1,0,-1
 211 0 l 1,1,-1
 19 660 l 1,2,-1
 168 660 l 1,3,-1
 296 109 l 1,4,-1
 428 660 l 1,5,-1
 560 660 l 1,6,-1
 694 109 l 1,7,-1
 822 660 l 1,8,-1
 964 660 l 1,9,-1
 772 0 l 1,10,-1
 617 0 l 1,11,-1
 525 360 l 1,12,-1
 494 516 l 1,13,-1
 492 516 l 1,14,-1
 461 360 l 1,15,-1
 370 0 l 1,0,-1
EndSplineSet
Validated: 1
Substitution2: "Single Substitution lookup 56 subtable" W.swsh
Substitution2: "'swsh' Swash lookup 38 subtable" W.swsh
Substitution2: "'c2sc' Capitals to Small Capitals lookup 11 subtable" w.sc
AlternateSubs2: "'aalt' Access All Alternates lookup 1 subtable" w.sc W.swsh
EndChar

StartChar: X
Encoding: 88 88 89
Width: 640
GlyphClass: 2
Flags: W
LayerCount: 2
Back
Fore
SplineSet
459 0 m 1,0,-1
 315 239 l 1,1,-1
 174 0 l 1,2,-1
 16 0 l 1,3,-1
 243 333 l 1,4,-1
 32 660 l 1,5,-1
 195 660 l 1,6,-1
 329 430 l 1,7,-1
 463 660 l 1,8,-1
 612 660 l 1,9,-1
 400 338 l 1,10,-1
 624 0 l 1,11,-1
 459 0 l 1,0,-1
EndSplineSet
Validated: 1
Substitution2: "'c2sc' Capitals to Small Capitals lookup 11 subtable" x.sc
Substitution2: "'aalt' Access All Alternates lookup 0 subtable" x.sc
EndChar

StartChar: Y
Encoding: 89 89 90
Width: 626
GlyphClass: 2
Flags: W
LayerCount: 2
Back
Fore
SplineSet
382 247 m 1,0,-1
 382 0 l 1,1,-1
 244 0 l 1,2,-1
 244 247 l 1,3,-1
 10 660 l 1,4,-1
 157 660 l 1,5,-1
 263 463 l 1,6,-1
 313 359 l 1,7,-1
 364 463 l 1,8,-1
 470 660 l 1,9,-1
 616 660 l 1,10,-1
 382 247 l 1,0,-1
EndSplineSet
Validated: 1
Substitution2: "'c2sc' Capitals to Small Capitals lookup 11 subtable" y.sc
Substitution2: "'aalt' Access All Alternates lookup 0 subtable" y.sc
EndChar

StartChar: Yacute
Encoding: 221 221 91
Width: 626
GlyphClass: 2
Flags: W
LayerCount: 2
Back
Fore
SplineSet
444 885 m 1,0,-1
 355 730 l 1,1,-1
 252 730 l 1,2,-1
 308 885 l 1,3,-1
 444 885 l 1,0,-1
382 247 m 1,4,-1
 382 0 l 1,5,-1
 244 0 l 1,6,-1
 244 247 l 1,7,-1
 10 660 l 1,8,-1
 157 660 l 1,9,-1
 263 463 l 1,10,-1
 313 359 l 1,11,-1
 364 463 l 1,12,-1
 470 660 l 1,13,-1
 616 660 l 1,14,-1
 382 247 l 1,4,-1
EndSplineSet
Validated: 1
Substitution2: "'c2sc' Capitals to Small Capitals lookup 11 subtable" yacute.sc
Substitution2: "'aalt' Access All Alternates lookup 0 subtable" yacute.sc
EndChar

StartChar: Z
Encoding: 90 90 93
Width: 633
GlyphClass: 2
Flags: W
LayerCount: 2
Back
Fore
SplineSet
593 110 m 1,0,-1
 593 0 l 1,1,-1
 44 0 l 1,2,-1
 44 104 l 1,3,-1
 429 550 l 1,4,-1
 52 550 l 1,5,-1
 52 660 l 1,6,-1
 581 660 l 1,7,-1
 581 556 l 1,8,-1
 196 110 l 1,9,-1
 593 110 l 1,0,-1
EndSplineSet
Validated: 1
Substitution2: "'c2sc' Capitals to Small Capitals lookup 11 subtable" z.sc
Substitution2: "'aalt' Access All Alternates lookup 0 subtable" z.sc
EndChar

StartChar: Zacute
Encoding: 377 377 94
Width: 633
GlyphClass: 2
Flags: W
LayerCount: 2
Back
Fore
SplineSet
357 730 m 1,0,-1
 254 730 l 1,1,-1
 310 885 l 1,2,-1
 446 885 l 1,3,-1
 357 730 l 1,0,-1
593 110 m 1,4,-1
 593 0 l 1,5,-1
 44 0 l 1,6,-1
 44 104 l 1,7,-1
 429 550 l 1,8,-1
 52 550 l 1,9,-1
 52 660 l 1,10,-1
 581 660 l 1,11,-1
 581 556 l 1,12,-1
 196 110 l 1,13,-1
 593 110 l 1,4,-1
EndSplineSet
Validated: 1
Substitution2: "'c2sc' Capitals to Small Capitals lookup 11 subtable" zacute.sc
Substitution2: "'aalt' Access All Alternates lookup 0 subtable" zacute.sc
EndChar

StartChar: Zcaron
Encoding: 381 381 95
Width: 633
GlyphClass: 2
Flags: W
LayerCount: 2
Back
Fore
SplineSet
243 727 m 1,0,-1
 132 894 l 1,1,-1
 238 894 l 1,2,-1
 312 796 l 1,3,-1
 386 894 l 1,4,-1
 492 894 l 1,5,-1
 381 727 l 1,6,-1
 243 727 l 1,0,-1
593 110 m 1,7,-1
 593 0 l 1,8,-1
 44 0 l 1,9,-1
 44 104 l 1,10,-1
 429 550 l 1,11,-1
 52 550 l 1,12,-1
 52 660 l 1,13,-1
 581 660 l 1,14,-1
 581 556 l 1,15,-1
 196 110 l 1,16,-1
 593 110 l 1,7,-1
EndSplineSet
Validated: 1
Substitution2: "'c2sc' Capitals to Small Capitals lookup 11 subtable" zcaron.sc
Substitution2: "'aalt' Access All Alternates lookup 0 subtable" zcaron.sc
EndChar

StartChar: uni015E
Encoding: 350 350 102
Width: 643
GlyphClass: 2
Flags: W
AnchorPoint: "Anchor-0" 351 0 basechar 0
LayerCount: 2
Back
Fore
SplineSet
498 344 m 128,-1,1
 551 319 551 319 575.5 281.5 c 128,-1,2
 600 244 600 244 600 188 c 0,3,4
 600 111 600 111 545.5 60.5 c 128,-1,5
 491 10 491 10 399 -5 c 1,6,7
 426 -24 426 -24 439.5 -49 c 128,-1,8
 453 -74 453 -74 453 -101 c 0,9,10
 453 -154 453 -154 416.5 -184.5 c 128,-1,11
 380 -215 380 -215 320 -215 c 0,12,13
 242 -215 242 -215 201 -177 c 1,14,-1
 237 -106 l 1,15,16
 250 -120 250 -120 268.5 -128 c 128,-1,17
 287 -136 287 -136 308 -136 c 0,18,19
 332 -136 332 -136 347.5 -121.5 c 128,-1,20
 363 -107 363 -107 363 -83 c 256,21,22
 363 -59 363 -59 348 -42 c 128,-1,23
 333 -25 333 -25 294 -9 c 1,24,25
 200 -5 200 -5 138.5 25.5 c 128,-1,26
 77 56 77 56 38 113 c 1,27,-1
 120 211 l 1,28,29
 157 150 157 150 205 126.5 c 128,-1,30
 253 103 253 103 324 103 c 0,31,32
 388 103 388 103 421.5 123 c 128,-1,33
 455 143 455 143 455 180 c 0,34,35
 455 207 455 207 423.5 225 c 128,-1,36
 392 243 392 243 311 259 c 0,37,38
 218 278 218 278 162.5 304 c 128,-1,39
 107 330 107 330 82 368 c 128,-1,40
 57 406 57 406 57 462 c 0,41,42
 57 521 57 521 89 568.5 c 128,-1,43
 121 616 121 616 182.5 643 c 128,-1,44
 244 670 244 670 327 670 c 0,45,46
 419 670 419 670 485 639.5 c 128,-1,47
 551 609 551 609 601 543 c 1,48,-1
 506 450 l 1,49,50
 480 504 480 504 437 530.5 c 128,-1,51
 394 557 394 557 328 557 c 0,52,53
 268 557 268 557 235.5 534.5 c 128,-1,54
 203 512 203 512 203 475 c 0,55,56
 203 441 203 441 236 421 c 128,-1,57
 269 401 269 401 355 386 c 0,58,0
 445 369 445 369 498 344 c 128,-1,1
EndSplineSet
Validated: 1
Substitution2: "Single Substitution lookup 57 subtable" Scedilla.swsh
Substitution2: "'swsh' Swash lookup 38 subtable" Scedilla.swsh
Substitution2: "'c2sc' Capitals to Small Capitals lookup 11 subtable" Scedilla.sc
Substitution2: "'locl' Localized Forms in Latin lookup 8 subtable" uni0218
Substitution2: "'locl' Localized Forms in Latin lookup 7 subtable" uni0218
AlternateSubs2: "'aalt' Access All Alternates lookup 1 subtable" Scedilla.sc Scedilla.swsh
EndChar

StartChar: uni0162
Encoding: 354 354 103
Width: 635
GlyphClass: 2
Flags: W
AnchorPoint: "Anchor-0" 321 0 basechar 0
LayerCount: 2
Back
Fore
SplineSet
387 549 m 1,0,-1
 387 1 l 1,1,2
 444 -36 444 -36 444 -99 c 0,3,4
 444 -153 444 -153 407 -184 c 128,-1,5
 370 -215 370 -215 310 -215 c 0,6,7
 233 -215 233 -215 189 -176 c 1,8,-1
 229 -104 l 1,9,10
 256 -134 256 -134 297 -134 c 0,11,12
 321 -134 321 -134 337 -119.5 c 128,-1,13
 353 -105 353 -105 353 -80 c 0,14,15
 353 -53 353 -53 335.5 -36 c 128,-1,16
 318 -19 318 -19 276 0 c 1,17,-1
 249 0 l 1,18,-1
 249 549 l 1,19,-1
 27 549 l 1,20,-1
 27 660 l 1,21,-1
 608 660 l 1,22,-1
 608 549 l 1,23,-1
 387 549 l 1,0,-1
EndSplineSet
Validated: 1
Substitution2: "Single Substitution lookup 56 subtable" uni0162.swsh
Substitution2: "'swsh' Swash lookup 38 subtable" uni0162.swsh
Substitution2: "'c2sc' Capitals to Small Capitals lookup 11 subtable" uni0162.sc
Substitution2: "'locl' Localized Forms in Latin lookup 8 subtable" uni021A
Substitution2: "'locl' Localized Forms in Latin lookup 7 subtable" uni021A
AlternateSubs2: "'aalt' Access All Alternates lookup 1 subtable" uni0162.sc uni0162.swsh
EndChar

StartChar: E.swsh.001
Encoding: 65537 -1 106
Width: 800
GlyphClass: 2
Flags: W
AnchorPoint: "Anchor-0" 335 0 basechar 0
LayerCount: 2
Back
Fore
SplineSet
750 307.5 m 128,-1,1
 790 261 790 261 790 187 c 0,2,3
 790 93 790 93 733 46.5 c 128,-1,4
 676 0 676 0 574 0 c 2,5,-1
 86 0 l 1,6,-1
 86 660 l 1,7,-1
 613 660 l 1,8,-1
 613 549 l 1,9,-1
 224 549 l 1,10,-1
 224 380 l 1,11,-1
 433 380 l 1,12,-1
 433 273 l 1,13,-1
 224 273 l 1,14,-1
 224 111 l 1,15,-1
 552 111 l 2,16,17
 611 111 611 111 639 130 c 128,-1,18
 667 149 667 149 667 191 c 0,19,20
 667 228 667 228 647.5 248.5 c 128,-1,21
 628 269 628 269 592 272 c 1,22,-1
 639 362 l 1,23,0
 710 354 710 354 750 307.5 c 128,-1,1
EndSplineSet
Validated: 1
EndChar

StartChar: Eacute.swsh.001
Encoding: 65538 -1 107
Width: 800
GlyphClass: 2
Flags: W
AnchorPoint: "Anchor-0" 335 0 basechar 0
LayerCount: 2
Back
Fore
SplineSet
387 730 m 1,0,-1
 284 730 l 1,1,-1
 340 885 l 1,2,-1
 476 885 l 1,3,-1
 387 730 l 1,0,-1
750 307.5 m 128,-1,5
 790 261 790 261 790 187 c 0,6,7
 790 93 790 93 733 46.5 c 128,-1,8
 676 0 676 0 574 0 c 2,9,-1
 86 0 l 1,10,-1
 86 660 l 1,11,-1
 613 660 l 1,12,-1
 613 549 l 1,13,-1
 224 549 l 1,14,-1
 224 380 l 1,15,-1
 433 380 l 1,16,-1
 433 273 l 1,17,-1
 224 273 l 1,18,-1
 224 111 l 1,19,-1
 552 111 l 2,20,21
 611 111 611 111 639 130 c 128,-1,22
 667 149 667 149 667 191 c 0,23,24
 667 228 667 228 647.5 248.5 c 128,-1,25
 628 269 628 269 592 272 c 1,26,-1
 639 362 l 1,27,4
 710 354 710 354 750 307.5 c 128,-1,5
EndSplineSet
Validated: 1
EndChar

StartChar: Ecaron.swsh.001
Encoding: 65539 -1 108
Width: 800
GlyphClass: 2
Flags: W
AnchorPoint: "Anchor-0" 335 0 basechar 0
LayerCount: 2
Back
Fore
SplineSet
274 727 m 1,0,-1
 163 894 l 1,1,-1
 269 894 l 1,2,-1
 343 796 l 1,3,-1
 417 894 l 1,4,-1
 523 894 l 1,5,-1
 412 727 l 1,6,-1
 274 727 l 1,0,-1
750 307.5 m 128,-1,8
 790 261 790 261 790 187 c 0,9,10
 790 93 790 93 733 46.5 c 128,-1,11
 676 0 676 0 574 0 c 2,12,-1
 86 0 l 1,13,-1
 86 660 l 1,14,-1
 613 660 l 1,15,-1
 613 549 l 1,16,-1
 224 549 l 1,17,-1
 224 380 l 1,18,-1
 433 380 l 1,19,-1
 433 273 l 1,20,-1
 224 273 l 1,21,-1
 224 111 l 1,22,-1
 552 111 l 2,23,24
 611 111 611 111 639 130 c 128,-1,25
 667 149 667 149 667 191 c 0,26,27
 667 228 667 228 647.5 248.5 c 128,-1,28
 628 269 628 269 592 272 c 1,29,-1
 639 362 l 1,30,7
 710 354 710 354 750 307.5 c 128,-1,8
EndSplineSet
Validated: 1
EndChar

StartChar: Ecircumflex.swsh.001
Encoding: 65540 -1 109
Width: 800
GlyphClass: 2
Flags: W
AnchorPoint: "Anchor-0" 335 0 basechar 0
LayerCount: 2
Back
Fore
SplineSet
271 726 m 1,0,-1
 165 726 l 1,1,-1
 276 893 l 1,2,-1
 414 893 l 1,3,-1
 525 726 l 1,4,-1
 419 726 l 1,5,-1
 345 824 l 1,6,-1
 271 726 l 1,0,-1
750 307.5 m 128,-1,8
 790 261 790 261 790 187 c 0,9,10
 790 93 790 93 733 46.5 c 128,-1,11
 676 0 676 0 574 0 c 2,12,-1
 86 0 l 1,13,-1
 86 660 l 1,14,-1
 613 660 l 1,15,-1
 613 549 l 1,16,-1
 224 549 l 1,17,-1
 224 380 l 1,18,-1
 433 380 l 1,19,-1
 433 273 l 1,20,-1
 224 273 l 1,21,-1
 224 111 l 1,22,-1
 552 111 l 2,23,24
 611 111 611 111 639 130 c 128,-1,25
 667 149 667 149 667 191 c 0,26,27
 667 228 667 228 647.5 248.5 c 128,-1,28
 628 269 628 269 592 272 c 1,29,-1
 639 362 l 1,30,7
 710 354 710 354 750 307.5 c 128,-1,8
EndSplineSet
Validated: 1
EndChar

StartChar: Egrave.swsh.001
Encoding: 65543 -1 112
Width: 800
GlyphClass: 2
Flags: W
AnchorPoint: "Anchor-0" 335 0 basechar 0
LayerCount: 2
Back
Fore
SplineSet
290 730 m 1,0,-1
 201 885 l 1,1,-1
 337 885 l 1,2,-1
 393 730 l 1,3,-1
 290 730 l 1,0,-1
750 307.5 m 128,-1,5
 790 261 790 261 790 187 c 0,6,7
 790 93 790 93 733 46.5 c 128,-1,8
 676 0 676 0 574 0 c 2,9,-1
 86 0 l 1,10,-1
 86 660 l 1,11,-1
 613 660 l 1,12,-1
 613 549 l 1,13,-1
 224 549 l 1,14,-1
 224 380 l 1,15,-1
 433 380 l 1,16,-1
 433 273 l 1,17,-1
 224 273 l 1,18,-1
 224 111 l 1,19,-1
 552 111 l 2,20,21
 611 111 611 111 639 130 c 128,-1,22
 667 149 667 149 667 191 c 0,23,24
 667 228 667 228 647.5 248.5 c 128,-1,25
 628 269 628 269 592 272 c 1,26,-1
 639 362 l 1,27,4
 710 354 710 354 750 307.5 c 128,-1,5
EndSplineSet
Validated: 1
EndChar

StartChar: M.swsh.001
Encoding: 65545 -1 114
Width: 1127
GlyphClass: 2
Flags: W
LayerCount: 2
Back
Fore
SplineSet
1041 660 m 1,0,-1
 1041 0 l 1,1,-1
 917 0 l 1,2,-1
 917 344 l 1,3,-1
 923 537 l 1,4,-1
 922 537 l 1,5,-1
 739 0 l 1,6,-1
 626 0 l 1,7,-1
 443 537 l 1,8,-1
 441 537 l 1,9,-1
 448 344 l 1,10,-1
 448 0 l 1,11,-1
 323 0 l 1,12,-1
 323 557 l 1,13,-1
 252 557 l 2,14,15
 197 557 197 557 167 532 c 128,-1,16
 137 507 137 507 137 462 c 0,17,18
 137 423 137 423 163.5 396.5 c 128,-1,19
 190 370 190 370 234 364 c 1,20,-1
 191 268 l 1,21,22
 112 275 112 275 61 328 c 128,-1,23
 10 381 10 381 10 464 c 0,24,25
 10 556 10 556 71 608 c 128,-1,26
 132 660 132 660 241 660 c 2,27,-1
 523 660 l 1,28,-1
 642 300 l 1,29,-1
 684 151 l 1,30,-1
 686 151 l 1,31,-1
 729 299 l 1,32,-1
 847 660 l 1,33,-1
 1041 660 l 1,0,-1
EndSplineSet
Validated: 1
EndChar

StartChar: R.swsh.001
Encoding: 65546 -1 115
Width: 721
GlyphClass: 2
Flags: W
AnchorPoint: "Anchor-0" 364 0 basechar 0
LayerCount: 2
Back
Fore
SplineSet
641 32 m 128,-1,1
 683 -1 683 -1 721 -10 c 1,2,-1
 646 -92 l 1,3,4
 577 -68 577 -68 538.5 -37.5 c 128,-1,5
 500 -7 500 -7 467 41 c 2,6,-1
 319 253 l 1,7,-1
 222 253 l 1,8,-1
 222 0 l 1,9,-1
 86 0 l 1,10,-1
 86 660 l 1,11,-1
 377 660 l 2,12,13
 490 660 490 660 553.5 606.5 c 128,-1,14
 617 553 617 553 617 456 c 0,15,16
 617 378 617 378 574.5 328 c 128,-1,17
 532 278 532 278 455 261 c 1,18,-1
 567 107 l 2,19,0
 599 65 599 65 641 32 c 128,-1,1
222 358 m 1,20,-1
 359 358 l 2,21,22
 419 358 419 358 447.5 381.5 c 128,-1,23
 476 405 476 405 476 454 c 256,24,25
 476 503 476 503 447.5 526.5 c 128,-1,26
 419 550 419 550 359 550 c 2,27,-1
 222 550 l 1,28,-1
 222 358 l 1,20,-1
EndSplineSet
Validated: 1
EndChar

StartChar: Racute.swsh.001
Encoding: 65547 -1 116
Width: 721
GlyphClass: 2
Flags: W
AnchorPoint: "Anchor-0" 364 0 basechar 0
LayerCount: 2
Back
Fore
SplineSet
369 730 m 1,0,-1
 266 730 l 1,1,-1
 322 885 l 1,2,-1
 458 885 l 1,3,-1
 369 730 l 1,0,-1
641 32 m 128,-1,5
 683 -1 683 -1 721 -10 c 1,6,-1
 646 -92 l 1,7,8
 577 -68 577 -68 538.5 -37.5 c 128,-1,9
 500 -7 500 -7 467 41 c 2,10,-1
 319 253 l 1,11,-1
 222 253 l 1,12,-1
 222 0 l 1,13,-1
 86 0 l 1,14,-1
 86 660 l 1,15,-1
 377 660 l 2,16,17
 490 660 490 660 553.5 606.5 c 128,-1,18
 617 553 617 553 617 456 c 0,19,20
 617 378 617 378 574.5 328 c 128,-1,21
 532 278 532 278 455 261 c 1,22,-1
 567 107 l 2,23,4
 599 65 599 65 641 32 c 128,-1,5
222 358 m 1,24,-1
 359 358 l 2,25,26
 419 358 419 358 447.5 381.5 c 128,-1,27
 476 405 476 405 476 454 c 256,28,29
 476 503 476 503 447.5 526.5 c 128,-1,30
 419 550 419 550 359 550 c 2,31,-1
 222 550 l 1,32,-1
 222 358 l 1,24,-1
EndSplineSet
Validated: 1
EndChar

StartChar: Rcaron.swsh.001
Encoding: 65548 -1 117
Width: 721
GlyphClass: 2
Flags: W
AnchorPoint: "Anchor-0" 364 0 basechar 0
LayerCount: 2
Back
Fore
SplineSet
255 727 m 1,0,-1
 144 894 l 1,1,-1
 250 894 l 1,2,-1
 324 796 l 1,3,-1
 398 894 l 1,4,-1
 504 894 l 1,5,-1
 393 727 l 1,6,-1
 255 727 l 1,0,-1
641 32 m 128,-1,8
 683 -1 683 -1 721 -10 c 1,9,-1
 646 -92 l 1,10,11
 577 -68 577 -68 538.5 -37.5 c 128,-1,12
 500 -7 500 -7 467 41 c 2,13,-1
 319 253 l 1,14,-1
 222 253 l 1,15,-1
 222 0 l 1,16,-1
 86 0 l 1,17,-1
 86 660 l 1,18,-1
 377 660 l 2,19,20
 490 660 490 660 553.5 606.5 c 128,-1,21
 617 553 617 553 617 456 c 0,22,23
 617 378 617 378 574.5 328 c 128,-1,24
 532 278 532 278 455 261 c 1,25,-1
 567 107 l 2,26,7
 599 65 599 65 641 32 c 128,-1,8
222 358 m 1,27,-1
 359 358 l 2,28,29
 419 358 419 358 447.5 381.5 c 128,-1,30
 476 405 476 405 476 454 c 256,31,32
 476 503 476 503 447.5 526.5 c 128,-1,33
 419 550 419 550 359 550 c 2,34,-1
 222 550 l 1,35,-1
 222 358 l 1,27,-1
EndSplineSet
Validated: 1
EndChar

StartChar: Iacute_J.loclNLD
Encoding: 65550 -1 119
Width: 911
GlyphClass: 2
Flags: W
LayerCount: 2
Back
Fore
SplineSet
286 885 m 1,0,-1
 197 730 l 1,1,-1
 94 730 l 1,2,-1
 150 885 l 1,3,-1
 286 885 l 1,0,-1
905 885 m 1,4,-1
 816 730 l 1,5,-1
 713 730 l 1,6,-1
 769 885 l 1,7,-1
 905 885 l 1,4,-1
224 0 m 1,8,-1
 86 0 l 1,9,-1
 86 660 l 1,10,-1
 224 660 l 1,11,-1
 224 0 l 1,8,-1
835 243 m 2,12,13
 835 124 835 124 767 57 c 128,-1,14
 699 -10 699 -10 576 -10 c 0,15,16
 462 -10 462 -10 403 42.5 c 128,-1,17
 344 95 344 95 344 186 c 0,18,19
 344 214 344 214 350 245 c 1,20,-1
 485 269 l 1,21,22
 481 241 481 241 481 213 c 0,23,24
 481 156 481 156 505 129.5 c 128,-1,25
 529 103 529 103 580 103 c 0,26,27
 644 103 644 103 670.5 141.5 c 128,-1,28
 697 180 697 180 697 262 c 2,29,-1
 697 660 l 1,30,-1
 835 660 l 1,31,-1
 835 243 l 2,12,13
EndSplineSet
Validated: 1
Substitution2: "'ss05' Style Set 5 lookup 51 subtable" Iacute_J.loclNLD.ss05
Substitution2: "'salt' Stylistic Alternatives lookup 42 subtable" Iacute_J.loclNLD.ss05
Ligature2: "'locl' Localized Forms in Latin lookup 9 subtable" Iacute J
Substitution2: "'aalt' Access All Alternates lookup 0 subtable" Iacute_J.loclNLD.ss05
EndChar

StartChar: R.ss03
Encoding: 65551 -1 120
Width: 674
GlyphClass: 2
Flags: W
AnchorPoint: "Anchor-0" 364 0 basechar 0
LayerCount: 2
Back
Fore
SplineSet
86 660 m 1,0,-1
 377 660 l 2,1,2
 490 660 490 660 553.5 607 c 128,-1,3
 617 554 617 554 617 460 c 0,4,5
 617 392 617 392 582.5 350.5 c 128,-1,6
 548 309 548 309 484 292 c 1,7,-1
 484 290 l 1,8,9
 584 269 584 269 592 168 c 0,10,11
 598 95 598 95 606 61 c 128,-1,12
 614 27 614 27 627 4 c 1,13,-1
 627 0 l 1,14,-1
 481 0 l 1,15,16
 472 21 472 21 467.5 52 c 128,-1,17
 463 83 463 83 456 155 c 0,18,19
 451 206 451 206 420.5 229.5 c 128,-1,20
 390 253 390 253 329 253 c 2,21,-1
 222 253 l 1,22,-1
 222 0 l 1,23,-1
 86 0 l 1,24,-1
 86 660 l 1,0,-1
359 358 m 2,25,26
 419 358 419 358 447.5 381.5 c 128,-1,27
 476 405 476 405 476 454 c 256,28,29
 476 503 476 503 447.5 526.5 c 128,-1,30
 419 550 419 550 359 550 c 2,31,-1
 222 550 l 1,32,-1
 222 358 l 1,33,-1
 359 358 l 2,25,26
EndSplineSet
Validated: 1
EndChar

StartChar: Racute.ss03
Encoding: 65552 -1 121
Width: 674
GlyphClass: 2
Flags: W
AnchorPoint: "Anchor-0" 364 0 basechar 0
LayerCount: 2
Back
Fore
SplineSet
458 885 m 1,0,-1
 369 730 l 1,1,-1
 266 730 l 1,2,-1
 322 885 l 1,3,-1
 458 885 l 1,0,-1
86 660 m 1,4,-1
 377 660 l 2,5,6
 490 660 490 660 553.5 607 c 128,-1,7
 617 554 617 554 617 460 c 0,8,9
 617 392 617 392 582.5 350.5 c 128,-1,10
 548 309 548 309 484 292 c 1,11,-1
 484 290 l 1,12,13
 584 269 584 269 592 168 c 0,14,15
 598 95 598 95 606 61 c 128,-1,16
 614 27 614 27 627 4 c 1,17,-1
 627 0 l 1,18,-1
 481 0 l 1,19,20
 472 21 472 21 467.5 52 c 128,-1,21
 463 83 463 83 456 155 c 0,22,23
 451 206 451 206 420.5 229.5 c 128,-1,24
 390 253 390 253 329 253 c 2,25,-1
 222 253 l 1,26,-1
 222 0 l 1,27,-1
 86 0 l 1,28,-1
 86 660 l 1,4,-1
359 358 m 2,29,30
 419 358 419 358 447.5 381.5 c 128,-1,31
 476 405 476 405 476 454 c 256,32,33
 476 503 476 503 447.5 526.5 c 128,-1,34
 419 550 419 550 359 550 c 2,35,-1
 222 550 l 1,36,-1
 222 358 l 1,37,-1
 359 358 l 2,29,30
EndSplineSet
Validated: 1
EndChar

StartChar: Rcaron.ss03
Encoding: 65553 -1 122
Width: 674
GlyphClass: 2
Flags: W
AnchorPoint: "Anchor-0" 364 0 basechar 0
LayerCount: 2
Back
Fore
SplineSet
393 727 m 1,0,-1
 255 727 l 1,1,-1
 144 894 l 1,2,-1
 250 894 l 1,3,-1
 324 796 l 1,4,-1
 398 894 l 1,5,-1
 504 894 l 1,6,-1
 393 727 l 1,0,-1
86 660 m 1,7,-1
 377 660 l 2,8,9
 490 660 490 660 553.5 607 c 128,-1,10
 617 554 617 554 617 460 c 0,11,12
 617 392 617 392 582.5 350.5 c 128,-1,13
 548 309 548 309 484 292 c 1,14,-1
 484 290 l 1,15,16
 584 269 584 269 592 168 c 0,17,18
 598 95 598 95 606 61 c 128,-1,19
 614 27 614 27 627 4 c 1,20,-1
 627 0 l 1,21,-1
 481 0 l 1,22,23
 472 21 472 21 467.5 52 c 128,-1,24
 463 83 463 83 456 155 c 0,25,26
 451 206 451 206 420.5 229.5 c 128,-1,27
 390 253 390 253 329 253 c 2,28,-1
 222 253 l 1,29,-1
 222 0 l 1,30,-1
 86 0 l 1,31,-1
 86 660 l 1,7,-1
359 358 m 2,32,33
 419 358 419 358 447.5 381.5 c 128,-1,34
 476 405 476 405 476 454 c 256,35,36
 476 503 476 503 447.5 526.5 c 128,-1,37
 419 550 419 550 359 550 c 2,38,-1
 222 550 l 1,39,-1
 222 358 l 1,40,-1
 359 358 l 2,32,33
EndSplineSet
Validated: 1
EndChar

StartChar: G.ss04
Encoding: 65555 -1 124
Width: 723
GlyphClass: 2
Flags: W
AnchorPoint: "Anchor-0" 395 0 basechar 0
LayerCount: 2
Back
Fore
SplineSet
669 349 m 1,0,-1
 669 275 l 2,1,2
 669 137 669 137 590.5 63.5 c 128,-1,3
 512 -10 512 -10 372 -10 c 0,4,5
 276 -10 276 -10 204 30 c 128,-1,6
 132 70 132 70 92.5 146.5 c 128,-1,7
 53 223 53 223 53 329 c 0,8,9
 53 434 53 434 92.5 511 c 128,-1,10
 132 588 132 588 204.5 629 c 128,-1,11
 277 670 277 670 374 670 c 0,12,13
 481 670 481 670 548.5 631 c 128,-1,14
 616 592 616 592 655 508 c 1,15,-1
 527 453 l 1,16,17
 496 557 496 557 375 557 c 0,18,19
 293 557 293 557 244.5 497.5 c 128,-1,20
 196 438 196 438 196 330 c 0,21,22
 196 103 196 103 385 103 c 0,23,24
 440 103 440 103 476.5 123.5 c 128,-1,25
 513 144 513 144 530.5 176.5 c 128,-1,26
 548 209 548 209 548 244 c 2,27,-1
 548 251 l 1,28,-1
 365 251 l 1,29,-1
 365 349 l 1,30,-1
 669 349 l 1,0,-1
EndSplineSet
Validated: 1
EndChar

StartChar: IJ.ss05
Encoding: 65558 -1 127
Width: 652
GlyphClass: 2
Flags: W
LayerCount: 2
Back
Fore
SplineSet
576 243 m 2,0,1
 576 125 576 125 508 57.5 c 128,-1,2
 440 -10 440 -10 324 -10 c 0,3,4
 210 -10 210 -10 148 38.5 c 128,-1,5
 86 87 86 87 86 179 c 0,6,7
 86 189 86 189 88 213 c 1,8,-1
 225 213 l 1,9,10
 223 197 223 197 223 189 c 0,11,12
 223 146 223 146 249.5 124.5 c 128,-1,13
 276 103 276 103 326 103 c 0,14,15
 381 103 381 103 409.5 140.5 c 128,-1,16
 438 178 438 178 438 253 c 2,17,-1
 438 660 l 1,18,-1
 576 660 l 1,19,-1
 576 243 l 2,0,1
224 289 m 1,20,-1
 86 289 l 1,21,-1
 86 660 l 1,22,-1
 224 660 l 1,23,-1
 224 289 l 1,20,-1
EndSplineSet
Validated: 1
EndChar

StartChar: Iacute_J.loclNLD.ss05
Encoding: 65559 -1 128
Width: 641
GlyphClass: 2
Flags: W
LayerCount: 2
Back
Fore
SplineSet
276 885 m 1,0,-1
 186 730 l 1,1,-1
 84 730 l 1,2,-1
 140 885 l 1,3,-1
 276 885 l 1,0,-1
637 885 m 1,4,-1
 547 730 l 1,5,-1
 445 730 l 1,6,-1
 500 885 l 1,7,-1
 637 885 l 1,4,-1
566 243 m 2,8,9
 566 125 566 125 498 57.5 c 128,-1,10
 430 -10 430 -10 314 -10 c 0,11,12
 200 -10 200 -10 138 38.5 c 128,-1,13
 76 87 76 87 76 179 c 0,14,15
 76 189 76 189 78 213 c 1,16,-1
 215 213 l 1,17,18
 213 195 213 195 213 188 c 0,19,20
 213 145 213 145 240 124 c 128,-1,21
 267 103 267 103 316 103 c 0,22,23
 371 103 371 103 399.5 140.5 c 128,-1,24
 428 178 428 178 428 253 c 2,25,-1
 428 660 l 1,26,-1
 566 660 l 1,27,-1
 566 243 l 2,8,9
214 289 m 1,28,-1
 76 289 l 1,29,-1
 76 660 l 1,30,-1
 214 660 l 1,31,-1
 214 289 l 1,28,-1
EndSplineSet
Validated: 1
EndChar

StartChar: A.swsh
Encoding: 65560 -1 129
Width: 889
GlyphClass: 2
Flags: W
LayerCount: 2
Back
Fore
SplineSet
679 161 m 1,0,-1
 420 161 l 1,1,-1
 385 65 l 2,2,3
 356 -23 356 -23 301 -66.5 c 128,-1,4
 246 -110 246 -110 152 -110 c 0,5,6
 80 -110 80 -110 34.5 -82.5 c 128,-1,7
 -11 -55 -11 -55 -22 -4 c 1,8,-1
 35 81 l 1,9,10
 49 32 49 32 75 14 c 128,-1,11
 101 -4 101 -4 146 -4 c 0,12,13
 193 -4 193 -4 220.5 24.5 c 128,-1,14
 248 53 248 53 275 128 c 2,15,-1
 433 557 l 1,16,-1
 310 557 l 2,17,18
 255 557 255 557 225 532 c 128,-1,19
 195 507 195 507 195 462 c 0,20,21
 195 423 195 423 221.5 396.5 c 128,-1,22
 248 370 248 370 292 364 c 1,23,-1
 249 268 l 1,24,25
 170 275 170 275 119 328 c 128,-1,26
 68 381 68 381 68 464 c 0,27,28
 68 556 68 556 129 608 c 128,-1,29
 190 660 190 660 299 660 c 2,30,-1
 636 660 l 1,31,-1
 876 0 l 1,32,-1
 733 0 l 1,33,-1
 679 161 l 1,0,-1
645 263 m 1,34,-1
 582 449 l 1,35,-1
 553 549 l 1,36,-1
 551 549 l 1,37,-1
 523 451 l 1,38,-1
 456 263 l 1,39,-1
 645 263 l 1,34,-1
EndSplineSet
Validated: 1
EndChar

StartChar: Aacute.swsh
Encoding: 65561 -1 130
Width: 889
GlyphClass: 2
Flags: W
LayerCount: 2
Back
Fore
SplineSet
595 730 m 1,0,-1
 492 730 l 1,1,-1
 548 885 l 1,2,-1
 684 885 l 1,3,-1
 595 730 l 1,0,-1
679 161 m 1,4,-1
 420 161 l 1,5,-1
 385 65 l 2,6,7
 356 -23 356 -23 301 -66.5 c 128,-1,8
 246 -110 246 -110 152 -110 c 0,9,10
 80 -110 80 -110 34.5 -82.5 c 128,-1,11
 -11 -55 -11 -55 -22 -4 c 1,12,-1
 35 81 l 1,13,14
 49 32 49 32 75 14 c 128,-1,15
 101 -4 101 -4 146 -4 c 0,16,17
 193 -4 193 -4 220.5 24.5 c 128,-1,18
 248 53 248 53 275 128 c 2,19,-1
 433 557 l 1,20,-1
 310 557 l 2,21,22
 255 557 255 557 225 532 c 128,-1,23
 195 507 195 507 195 462 c 0,24,25
 195 423 195 423 221.5 396.5 c 128,-1,26
 248 370 248 370 292 364 c 1,27,-1
 249 268 l 1,28,29
 170 275 170 275 119 328 c 128,-1,30
 68 381 68 381 68 464 c 0,31,32
 68 556 68 556 129 608 c 128,-1,33
 190 660 190 660 299 660 c 2,34,-1
 636 660 l 1,35,-1
 876 0 l 1,36,-1
 733 0 l 1,37,-1
 679 161 l 1,4,-1
645 263 m 1,38,-1
 582 449 l 1,39,-1
 553 549 l 1,40,-1
 551 549 l 1,41,-1
 523 451 l 1,42,-1
 456 263 l 1,43,-1
 645 263 l 1,38,-1
EndSplineSet
Validated: 1
EndChar

StartChar: Acircumflex.swsh
Encoding: 65563 -1 132
Width: 889
GlyphClass: 2
Flags: W
LayerCount: 2
Back
Fore
SplineSet
479 726 m 1,0,-1
 373 726 l 1,1,-1
 484 893 l 1,2,-1
 622 893 l 1,3,-1
 733 726 l 1,4,-1
 627 726 l 1,5,-1
 553 824 l 1,6,-1
 479 726 l 1,0,-1
679 161 m 1,7,-1
 420 161 l 1,8,-1
 385 65 l 2,9,10
 356 -23 356 -23 301 -66.5 c 128,-1,11
 246 -110 246 -110 152 -110 c 0,12,13
 80 -110 80 -110 34.5 -82.5 c 128,-1,14
 -11 -55 -11 -55 -22 -4 c 1,15,-1
 35 81 l 1,16,17
 49 32 49 32 75 14 c 128,-1,18
 101 -4 101 -4 146 -4 c 0,19,20
 193 -4 193 -4 220.5 24.5 c 128,-1,21
 248 53 248 53 275 128 c 2,22,-1
 433 557 l 1,23,-1
 310 557 l 2,24,25
 255 557 255 557 225 532 c 128,-1,26
 195 507 195 507 195 462 c 0,27,28
 195 423 195 423 221.5 396.5 c 128,-1,29
 248 370 248 370 292 364 c 1,30,-1
 249 268 l 1,31,32
 170 275 170 275 119 328 c 128,-1,33
 68 381 68 381 68 464 c 0,34,35
 68 556 68 556 129 608 c 128,-1,36
 190 660 190 660 299 660 c 2,37,-1
 636 660 l 1,38,-1
 876 0 l 1,39,-1
 733 0 l 1,40,-1
 679 161 l 1,7,-1
645 263 m 1,41,-1
 582 449 l 1,42,-1
 553 549 l 1,43,-1
 551 549 l 1,44,-1
 523 451 l 1,45,-1
 456 263 l 1,46,-1
 645 263 l 1,41,-1
EndSplineSet
Validated: 1
EndChar

StartChar: Agrave.swsh
Encoding: 65565 -1 134
Width: 889
GlyphClass: 2
Flags: W
LayerCount: 2
Back
Fore
SplineSet
498 730 m 1,0,-1
 409 885 l 1,1,-1
 545 885 l 1,2,-1
 601 730 l 1,3,-1
 498 730 l 1,0,-1
679 161 m 1,4,-1
 420 161 l 1,5,-1
 385 65 l 2,6,7
 356 -23 356 -23 301 -66.5 c 128,-1,8
 246 -110 246 -110 152 -110 c 0,9,10
 80 -110 80 -110 34.5 -82.5 c 128,-1,11
 -11 -55 -11 -55 -22 -4 c 1,12,-1
 35 81 l 1,13,14
 49 32 49 32 75 14 c 128,-1,15
 101 -4 101 -4 146 -4 c 0,16,17
 193 -4 193 -4 220.5 24.5 c 128,-1,18
 248 53 248 53 275 128 c 2,19,-1
 433 557 l 1,20,-1
 310 557 l 2,21,22
 255 557 255 557 225 532 c 128,-1,23
 195 507 195 507 195 462 c 0,24,25
 195 423 195 423 221.5 396.5 c 128,-1,26
 248 370 248 370 292 364 c 1,27,-1
 249 268 l 1,28,29
 170 275 170 275 119 328 c 128,-1,30
 68 381 68 381 68 464 c 0,31,32
 68 556 68 556 129 608 c 128,-1,33
 190 660 190 660 299 660 c 2,34,-1
 636 660 l 1,35,-1
 876 0 l 1,36,-1
 733 0 l 1,37,-1
 679 161 l 1,4,-1
645 263 m 1,38,-1
 582 449 l 1,39,-1
 553 549 l 1,40,-1
 551 549 l 1,41,-1
 523 451 l 1,42,-1
 456 263 l 1,43,-1
 645 263 l 1,38,-1
EndSplineSet
Validated: 1
EndChar

StartChar: Aogonek.swsh
Encoding: 65567 -1 136
Width: 889
GlyphClass: 2
Flags: W
LayerCount: 2
Back
Fore
SplineSet
885 -193 m 1,0,1
 852 -215 852 -215 789 -215 c 0,2,3
 730 -215 730 -215 693.5 -186.5 c 128,-1,4
 657 -158 657 -158 657 -105 c 0,5,6
 657 -33 657 -33 732 4 c 1,7,-1
 679 161 l 1,8,-1
 420 161 l 1,9,-1
 385 65 l 2,10,11
 356 -23 356 -23 301 -66.5 c 128,-1,12
 246 -110 246 -110 152 -110 c 0,13,14
 80 -110 80 -110 34.5 -82.5 c 128,-1,15
 -11 -55 -11 -55 -22 -4 c 1,16,-1
 35 81 l 1,17,18
 49 32 49 32 75 14 c 128,-1,19
 101 -4 101 -4 146 -4 c 0,20,21
 193 -4 193 -4 220.5 24.5 c 128,-1,22
 248 53 248 53 275 128 c 2,23,-1
 433 557 l 1,24,-1
 310 557 l 2,25,26
 255 557 255 557 225 532 c 128,-1,27
 195 507 195 507 195 462 c 0,28,29
 195 423 195 423 221.5 396.5 c 128,-1,30
 248 370 248 370 292 364 c 1,31,-1
 249 268 l 1,32,33
 170 275 170 275 119 328 c 128,-1,34
 68 381 68 381 68 464 c 0,35,36
 68 556 68 556 129 608 c 128,-1,37
 190 660 190 660 299 660 c 2,38,-1
 636 660 l 1,39,-1
 876 0 l 1,40,41
 809 -16 809 -16 782.5 -37 c 128,-1,42
 756 -58 756 -58 756 -87 c 0,43,44
 756 -109 756 -109 772 -121.5 c 128,-1,45
 788 -134 788 -134 815 -134 c 0,46,47
 848 -134 848 -134 865 -123 c 1,48,-1
 885 -193 l 1,0,1
645 263 m 1,49,-1
 582 449 l 1,50,-1
 553 549 l 1,51,-1
 551 549 l 1,52,-1
 523 451 l 1,53,-1
 456 263 l 1,54,-1
 645 263 l 1,49,-1
EndSplineSet
Validated: 1
EndChar

StartChar: E.swsh
Encoding: 65569 -1 138
Width: 880
GlyphClass: 2
Flags: W
AnchorPoint: "Anchor-0" 582 0 basechar 0
LayerCount: 2
Back
Fore
SplineSet
842 111 m 1,0,-1
 842 0 l 1,1,-1
 333 0 l 1,2,-1
 333 557 l 1,3,-1
 252 557 l 2,4,5
 197 557 197 557 167 532 c 128,-1,6
 137 507 137 507 137 462 c 0,7,8
 137 423 137 423 163.5 396.5 c 128,-1,9
 190 370 190 370 234 364 c 1,10,-1
 191 268 l 1,11,12
 112 275 112 275 61 328 c 128,-1,13
 10 381 10 381 10 464 c 0,14,15
 10 556 10 556 71 608 c 128,-1,16
 132 660 132 660 241 660 c 2,17,-1
 828 660 l 1,18,-1
 828 549 l 1,19,-1
 471 549 l 1,20,-1
 471 385 l 1,21,-1
 752 385 l 1,22,-1
 752 279 l 1,23,-1
 471 279 l 1,24,-1
 471 111 l 1,25,-1
 842 111 l 1,0,-1
EndSplineSet
Validated: 1
EndChar

StartChar: Eacute.swsh
Encoding: 65570 -1 139
Width: 880
GlyphClass: 2
Flags: W
AnchorPoint: "Anchor-0" 582 0 basechar 0
LayerCount: 2
Back
Fore
SplineSet
618 730 m 1,0,-1
 515 730 l 1,1,-1
 571 885 l 1,2,-1
 707 885 l 1,3,-1
 618 730 l 1,0,-1
842 111 m 1,4,-1
 842 0 l 1,5,-1
 333 0 l 1,6,-1
 333 557 l 1,7,-1
 252 557 l 2,8,9
 197 557 197 557 167 532 c 128,-1,10
 137 507 137 507 137 462 c 0,11,12
 137 423 137 423 163.5 396.5 c 128,-1,13
 190 370 190 370 234 364 c 1,14,-1
 191 268 l 1,15,16
 112 275 112 275 61 328 c 128,-1,17
 10 381 10 381 10 464 c 0,18,19
 10 556 10 556 71 608 c 128,-1,20
 132 660 132 660 241 660 c 2,21,-1
 828 660 l 1,22,-1
 828 549 l 1,23,-1
 471 549 l 1,24,-1
 471 385 l 1,25,-1
 752 385 l 1,26,-1
 752 279 l 1,27,-1
 471 279 l 1,28,-1
 471 111 l 1,29,-1
 842 111 l 1,4,-1
EndSplineSet
Validated: 1
EndChar

StartChar: Ecaron.swsh
Encoding: 65571 -1 140
Width: 880
GlyphClass: 2
Flags: W
AnchorPoint: "Anchor-0" 582 0 basechar 0
LayerCount: 2
Back
Fore
SplineSet
505 727 m 1,0,-1
 394 894 l 1,1,-1
 500 894 l 1,2,-1
 574 796 l 1,3,-1
 648 894 l 1,4,-1
 754 894 l 1,5,-1
 643 727 l 1,6,-1
 505 727 l 1,0,-1
842 111 m 1,7,-1
 842 0 l 1,8,-1
 333 0 l 1,9,-1
 333 557 l 1,10,-1
 252 557 l 2,11,12
 197 557 197 557 167 532 c 128,-1,13
 137 507 137 507 137 462 c 0,14,15
 137 423 137 423 163.5 396.5 c 128,-1,16
 190 370 190 370 234 364 c 1,17,-1
 191 268 l 1,18,19
 112 275 112 275 61 328 c 128,-1,20
 10 381 10 381 10 464 c 0,21,22
 10 556 10 556 71 608 c 128,-1,23
 132 660 132 660 241 660 c 2,24,-1
 828 660 l 1,25,-1
 828 549 l 1,26,-1
 471 549 l 1,27,-1
 471 385 l 1,28,-1
 752 385 l 1,29,-1
 752 279 l 1,30,-1
 471 279 l 1,31,-1
 471 111 l 1,32,-1
 842 111 l 1,7,-1
EndSplineSet
Validated: 1
EndChar

StartChar: Ecircumflex.swsh
Encoding: 65572 -1 141
Width: 880
GlyphClass: 2
Flags: W
AnchorPoint: "Anchor-0" 582 0 basechar 0
LayerCount: 2
Back
Fore
SplineSet
502 726 m 1,0,-1
 396 726 l 1,1,-1
 507 893 l 1,2,-1
 645 893 l 1,3,-1
 756 726 l 1,4,-1
 650 726 l 1,5,-1
 576 824 l 1,6,-1
 502 726 l 1,0,-1
842 111 m 1,7,-1
 842 0 l 1,8,-1
 333 0 l 1,9,-1
 333 557 l 1,10,-1
 252 557 l 2,11,12
 197 557 197 557 167 532 c 128,-1,13
 137 507 137 507 137 462 c 0,14,15
 137 423 137 423 163.5 396.5 c 128,-1,16
 190 370 190 370 234 364 c 1,17,-1
 191 268 l 1,18,19
 112 275 112 275 61 328 c 128,-1,20
 10 381 10 381 10 464 c 0,21,22
 10 556 10 556 71 608 c 128,-1,23
 132 660 132 660 241 660 c 2,24,-1
 828 660 l 1,25,-1
 828 549 l 1,26,-1
 471 549 l 1,27,-1
 471 385 l 1,28,-1
 752 385 l 1,29,-1
 752 279 l 1,30,-1
 471 279 l 1,31,-1
 471 111 l 1,32,-1
 842 111 l 1,7,-1
EndSplineSet
Validated: 1
EndChar

StartChar: Egrave.swsh
Encoding: 65575 -1 144
Width: 880
GlyphClass: 2
Flags: W
AnchorPoint: "Anchor-0" 582 0 basechar 0
LayerCount: 2
Back
Fore
SplineSet
521 730 m 1,0,-1
 432 885 l 1,1,-1
 568 885 l 1,2,-1
 624 730 l 1,3,-1
 521 730 l 1,0,-1
842 111 m 1,4,-1
 842 0 l 1,5,-1
 333 0 l 1,6,-1
 333 557 l 1,7,-1
 252 557 l 2,8,9
 197 557 197 557 167 532 c 128,-1,10
 137 507 137 507 137 462 c 0,11,12
 137 423 137 423 163.5 396.5 c 128,-1,13
 190 370 190 370 234 364 c 1,14,-1
 191 268 l 1,15,16
 112 275 112 275 61 328 c 128,-1,17
 10 381 10 381 10 464 c 0,18,19
 10 556 10 556 71 608 c 128,-1,20
 132 660 132 660 241 660 c 2,21,-1
 828 660 l 1,22,-1
 828 549 l 1,23,-1
 471 549 l 1,24,-1
 471 385 l 1,25,-1
 752 385 l 1,26,-1
 752 279 l 1,27,-1
 471 279 l 1,28,-1
 471 111 l 1,29,-1
 842 111 l 1,4,-1
EndSplineSet
Validated: 1
EndChar

StartChar: Eogonek.swsh
Encoding: 65577 -1 146
Width: 880
GlyphClass: 2
Flags: W
AnchorPoint: "Anchor-0" 582 0 basechar 0
LayerCount: 2
Back
Fore
SplineSet
851 -193 m 1,0,1
 818 -215 818 -215 755 -215 c 0,2,3
 696 -215 696 -215 660 -187 c 128,-1,4
 624 -159 624 -159 624 -109 c 0,5,6
 624 -36 624 -36 706 0 c 1,7,-1
 333 0 l 1,8,-1
 333 557 l 1,9,-1
 252 557 l 2,10,11
 197 557 197 557 167 532 c 128,-1,12
 137 507 137 507 137 462 c 0,13,14
 137 423 137 423 163.5 396.5 c 128,-1,15
 190 370 190 370 234 364 c 1,16,-1
 191 268 l 1,17,18
 112 275 112 275 61 328 c 128,-1,19
 10 381 10 381 10 464 c 0,20,21
 10 556 10 556 71 608 c 128,-1,22
 132 660 132 660 241 660 c 2,23,-1
 828 660 l 1,24,-1
 828 549 l 1,25,-1
 471 549 l 1,26,-1
 471 385 l 1,27,-1
 752 385 l 1,28,-1
 752 279 l 1,29,-1
 471 279 l 1,30,-1
 471 111 l 1,31,-1
 842 111 l 1,32,-1
 842 1 l 1,33,-1
 843 0 l 1,34,35
 776 -16 776 -16 749.5 -37.5 c 128,-1,36
 723 -59 723 -59 723 -87 c 0,37,38
 723 -109 723 -109 738.5 -121.5 c 128,-1,39
 754 -134 754 -134 781 -134 c 0,40,41
 814 -134 814 -134 831 -123 c 1,42,-1
 851 -193 l 1,0,1
EndSplineSet
Validated: 1
EndChar

StartChar: F.swsh
Encoding: 65578 -1 147
Width: 849
GlyphClass: 2
Flags: W
LayerCount: 2
Back
Fore
SplineSet
461 549 m 1,0,-1
 461 382 l 1,1,-1
 743 382 l 1,2,-1
 743 270 l 1,3,-1
 461 270 l 1,4,-1
 461 0 l 1,5,-1
 323 0 l 1,6,-1
 323 557 l 1,7,-1
 252 557 l 2,8,9
 197 557 197 557 167 532 c 128,-1,10
 137 507 137 507 137 462 c 0,11,12
 137 423 137 423 163.5 396.5 c 128,-1,13
 190 370 190 370 234 364 c 1,14,-1
 191 268 l 1,15,16
 112 275 112 275 61 328 c 128,-1,17
 10 381 10 381 10 464 c 0,18,19
 10 556 10 556 71 608 c 128,-1,20
 132 660 132 660 241 660 c 2,21,-1
 818 660 l 1,22,-1
 818 549 l 1,23,-1
 461 549 l 1,0,-1
EndSplineSet
Validated: 1
EndChar

StartChar: L.swsh
Encoding: 65579 -1 148
Width: 675
GlyphClass: 2
Flags: W
AnchorPoint: "Anchor-0" 372 0 basechar 0
LayerCount: 2
Back
Fore
SplineSet
620 326.5 m 128,-1,1
 665 274 665 274 665 196 c 0,2,3
 665 100 665 100 605 50 c 128,-1,4
 545 0 545 0 434 0 c 2,5,-1
 86 0 l 1,6,-1
 86 660 l 1,7,-1
 224 660 l 1,8,-1
 224 111 l 1,9,-1
 424 111 l 2,10,11
 542 111 542 111 542 198 c 0,12,13
 542 241 542 241 516.5 264.5 c 128,-1,14
 491 288 491 288 445 289 c 1,15,-1
 488 382 l 1,16,0
 575 379 575 379 620 326.5 c 128,-1,1
EndSplineSet
Validated: 1
EndChar

StartChar: Lacute.swsh
Encoding: 65580 -1 149
Width: 675
GlyphClass: 2
Flags: W
AnchorPoint: "Anchor-0" 372 0 basechar 0
LayerCount: 2
Back
Fore
SplineSet
197 730 m 1,0,-1
 94 730 l 1,1,-1
 150 885 l 1,2,-1
 286 885 l 1,3,-1
 197 730 l 1,0,-1
620 326.5 m 128,-1,5
 665 274 665 274 665 196 c 0,6,7
 665 100 665 100 605 50 c 128,-1,8
 545 0 545 0 434 0 c 2,9,-1
 86 0 l 1,10,-1
 86 660 l 1,11,-1
 224 660 l 1,12,-1
 224 111 l 1,13,-1
 424 111 l 2,14,15
 542 111 542 111 542 198 c 0,16,17
 542 241 542 241 516.5 264.5 c 128,-1,18
 491 288 491 288 445 289 c 1,19,-1
 488 382 l 1,20,4
 575 379 575 379 620 326.5 c 128,-1,5
EndSplineSet
Validated: 1
EndChar

StartChar: Lcaron.swsh
Encoding: 65581 -1 150
Width: 675
GlyphClass: 2
Flags: W
AnchorPoint: "Anchor-0" 372 0 basechar 0
LayerCount: 2
Back
Fore
SplineSet
222 727 m 1,0,-1
 84 727 l 1,1,-1
 -27 894 l 1,2,-1
 79 894 l 1,3,-1
 153 796 l 1,4,-1
 227 894 l 1,5,-1
 333 894 l 1,6,-1
 222 727 l 1,0,-1
620 326.5 m 128,-1,8
 665 274 665 274 665 196 c 0,9,10
 665 100 665 100 605 50 c 128,-1,11
 545 0 545 0 434 0 c 2,12,-1
 86 0 l 1,13,-1
 86 660 l 1,14,-1
 224 660 l 1,15,-1
 224 111 l 1,16,-1
 424 111 l 2,17,18
 542 111 542 111 542 198 c 0,19,20
 542 241 542 241 516.5 264.5 c 128,-1,21
 491 288 491 288 445 289 c 1,22,-1
 488 382 l 1,23,7
 575 379 575 379 620 326.5 c 128,-1,8
EndSplineSet
Validated: 1
EndChar

StartChar: Lslash.swsh
Encoding: 65583 -1 152
Width: 713
GlyphClass: 2
Flags: W
AnchorPoint: "Anchor-0" 410 0 basechar 0
LayerCount: 2
Back
Fore
SplineSet
658 326.5 m 128,-1,1
 703 274 703 274 703 196 c 0,2,3
 703 100 703 100 643 50 c 128,-1,4
 583 0 583 0 472 0 c 2,5,-1
 124 0 l 1,6,-1
 124 232 l 1,7,-1
 15 177 l 1,8,-1
 15 287 l 1,9,-1
 124 341 l 1,10,-1
 124 660 l 1,11,-1
 262 660 l 1,12,-1
 262 411 l 1,13,-1
 435 498 l 1,14,-1
 435 388 l 1,15,-1
 262 301 l 1,16,-1
 262 111 l 1,17,-1
 461 111 l 2,18,19
 580 111 580 111 580 198 c 0,20,21
 580 241 580 241 554.5 264.5 c 128,-1,22
 529 288 529 288 483 289 c 1,23,-1
 526 382 l 1,24,0
 613 379 613 379 658 326.5 c 128,-1,1
EndSplineSet
Validated: 1
EndChar

StartChar: M.swsh
Encoding: 65584 -1 153
Width: 1127
GlyphClass: 2
Flags: W
LayerCount: 2
Back
Fore
SplineSet
1041 660 m 1,0,-1
 1041 0 l 1,1,-1
 917 0 l 1,2,-1
 917 344 l 1,3,-1
 923 537 l 1,4,-1
 922 537 l 1,5,-1
 739 0 l 1,6,-1
 626 0 l 1,7,-1
 443 537 l 1,8,-1
 441 537 l 1,9,-1
 448 344 l 1,10,-1
 448 94 l 2,11,12
 448 -2 448 -2 391 -56 c 128,-1,13
 334 -110 334 -110 232 -110 c 0,14,15
 156 -110 156 -110 110.5 -81.5 c 128,-1,16
 65 -53 65 -53 46 3 c 1,17,-1
 107 85 l 1,18,19
 120 38 120 38 146.5 17 c 128,-1,20
 173 -4 173 -4 220 -4 c 0,21,22
 269 -4 269 -4 296 24.5 c 128,-1,23
 323 53 323 53 323 103 c 2,24,-1
 323 557 l 1,25,-1
 252 557 l 2,26,27
 197 557 197 557 167 532 c 128,-1,28
 137 507 137 507 137 462 c 0,29,30
 137 423 137 423 163.5 396.5 c 128,-1,31
 190 370 190 370 234 364 c 1,32,-1
 191 268 l 1,33,34
 112 275 112 275 61 328 c 128,-1,35
 10 381 10 381 10 464 c 0,36,37
 10 556 10 556 71 608 c 128,-1,38
 132 660 132 660 241 660 c 2,39,-1
 523 660 l 1,40,-1
 642 300 l 1,41,-1
 684 151 l 1,42,-1
 686 151 l 1,43,-1
 729 299 l 1,44,-1
 847 660 l 1,45,-1
 1041 660 l 1,0,-1
EndSplineSet
Validated: 1
Substitution2: "'salt' Stylistic Alternatives lookup 42 subtable" M.swsh.001
Substitution2: "'aalt' Access All Alternates lookup 0 subtable" M.swsh.001
EndChar

StartChar: N.swsh
Encoding: 65585 -1 154
Width: 851
GlyphClass: 2
Flags: W
AnchorPoint: "Anchor-0" 388 0 basechar 0
LayerCount: 2
Back
Fore
SplineSet
931 620 m 1,1,-1
 868 540 l 1,2,3
 854 585 854 585 829.5 604 c 128,-1,4
 805 623 805 623 758 623 c 0,5,6
 709 623 709 623 681 591 c 128,-1,7
 653 559 653 559 653 505 c 2,8,-1
 653 0 l 1,9,-1
 495 0 l 1,10,-1
 264 388 l 1,11,-1
 207 499 l 1,12,-1
 206 499 l 1,13,-1
 210 382 l 1,14,-1
 210 0 l 1,15,-1
 86 0 l 1,16,-1
 86 660 l 1,17,-1
 243 660 l 1,18,-1
 474 273 l 1,19,-1
 531 161 l 1,20,-1
 533 161 l 1,21,-1
 529 278 l 1,22,-1
 529 526 l 2,23,24
 529 621 529 621 586.5 675 c 128,-1,25
 644 729 644 729 746 729 c 0,26,0
 891 729 891 729 931 620 c 1,1,-1
EndSplineSet
Validated: 1
EndChar

StartChar: Nacute.swsh
Encoding: 65586 -1 155
Width: 851
GlyphClass: 2
Flags: W
AnchorPoint: "Anchor-0" 388 0 basechar 0
LayerCount: 2
Back
Fore
SplineSet
414 730 m 1,0,-1
 311 730 l 1,1,-1
 367 885 l 1,2,-1
 503 885 l 1,3,-1
 414 730 l 1,0,-1
931 620 m 1,5,-1
 868 540 l 1,6,7
 854 585 854 585 829.5 604 c 128,-1,8
 805 623 805 623 758 623 c 0,9,10
 709 623 709 623 681 591 c 128,-1,11
 653 559 653 559 653 505 c 2,12,-1
 653 0 l 1,13,-1
 495 0 l 1,14,-1
 264 388 l 1,15,-1
 207 499 l 1,16,-1
 206 499 l 1,17,-1
 210 382 l 1,18,-1
 210 0 l 1,19,-1
 86 0 l 1,20,-1
 86 660 l 1,21,-1
 243 660 l 1,22,-1
 474 273 l 1,23,-1
 531 161 l 1,24,-1
 533 161 l 1,25,-1
 529 278 l 1,26,-1
 529 526 l 2,27,28
 529 621 529 621 586.5 675 c 128,-1,29
 644 729 644 729 746 729 c 0,30,4
 891 729 891 729 931 620 c 1,5,-1
EndSplineSet
Validated: 1
EndChar

StartChar: Ncaron.swsh
Encoding: 65587 -1 156
Width: 851
GlyphClass: 2
Flags: W
AnchorPoint: "Anchor-0" 388 0 basechar 0
LayerCount: 2
Back
Fore
SplineSet
300 727 m 1,0,-1
 189 894 l 1,1,-1
 295 894 l 1,2,-1
 369 796 l 1,3,-1
 443 894 l 1,4,-1
 549 894 l 1,5,-1
 438 727 l 1,6,-1
 300 727 l 1,0,-1
931 620 m 1,8,-1
 868 540 l 1,9,10
 854 585 854 585 829.5 604 c 128,-1,11
 805 623 805 623 758 623 c 0,12,13
 709 623 709 623 681 591 c 128,-1,14
 653 559 653 559 653 505 c 2,15,-1
 653 0 l 1,16,-1
 495 0 l 1,17,-1
 264 388 l 1,18,-1
 207 499 l 1,19,-1
 206 499 l 1,20,-1
 210 382 l 1,21,-1
 210 0 l 1,22,-1
 86 0 l 1,23,-1
 86 660 l 1,24,-1
 243 660 l 1,25,-1
 474 273 l 1,26,-1
 531 161 l 1,27,-1
 533 161 l 1,28,-1
 529 278 l 1,29,-1
 529 526 l 2,30,31
 529 621 529 621 586.5 675 c 128,-1,32
 644 729 644 729 746 729 c 0,33,7
 891 729 891 729 931 620 c 1,8,-1
EndSplineSet
Validated: 1
EndChar

StartChar: R.swsh
Encoding: 65590 -1 159
Width: 917
GlyphClass: 2
Flags: W
AnchorPoint: "Anchor-0" 601 0 basechar 0
LayerCount: 2
Back
Fore
SplineSet
583 253 m 1,0,-1
 459 253 l 1,1,-1
 459 98 l 2,2,3
 459 -1 459 -1 400 -55.5 c 128,-1,4
 341 -110 341 -110 236 -110 c 0,5,6
 85 -110 85 -110 46 7 c 1,7,-1
 111 85 l 1,8,9
 125 38 125 38 151 17 c 128,-1,10
 177 -4 177 -4 223 -4 c 256,11,12
 269 -4 269 -4 296 26.5 c 128,-1,13
 323 57 323 57 323 107 c 2,14,-1
 323 557 l 1,15,-1
 252 557 l 2,16,17
 197 557 197 557 167 532 c 128,-1,18
 137 507 137 507 137 462 c 0,19,20
 137 423 137 423 163.5 396.5 c 128,-1,21
 190 370 190 370 234 364 c 1,22,-1
 191 268 l 1,23,24
 112 275 112 275 61 328 c 128,-1,25
 10 381 10 381 10 464 c 0,26,27
 10 556 10 556 71 608 c 128,-1,28
 132 660 132 660 241 660 c 2,29,-1
 614 660 l 2,30,31
 727 660 727 660 790.5 606.5 c 128,-1,32
 854 553 854 553 854 456 c 0,33,34
 854 385 854 385 819 337 c 128,-1,35
 784 289 784 289 719 268 c 1,36,-1
 893 0 l 1,37,-1
 738 0 l 1,38,-1
 583 253 l 1,0,-1
459 358 m 1,39,-1
 596 358 l 2,40,41
 656 358 656 358 684.5 381.5 c 128,-1,42
 713 405 713 405 713 454 c 256,43,44
 713 503 713 503 684.5 526.5 c 128,-1,45
 656 550 656 550 596 550 c 2,46,-1
 459 550 l 1,47,-1
 459 358 l 1,39,-1
EndSplineSet
Validated: 1
EndChar

StartChar: Racute.swsh
Encoding: 65591 -1 160
Width: 917
GlyphClass: 2
Flags: W
AnchorPoint: "Anchor-0" 601 0 basechar 0
LayerCount: 2
Back
Fore
SplineSet
606 730 m 1,0,-1
 503 730 l 1,1,-1
 559 885 l 1,2,-1
 695 885 l 1,3,-1
 606 730 l 1,0,-1
583 253 m 1,4,-1
 459 253 l 1,5,-1
 459 98 l 2,6,7
 459 -1 459 -1 400 -55.5 c 128,-1,8
 341 -110 341 -110 236 -110 c 0,9,10
 85 -110 85 -110 46 7 c 1,11,-1
 111 85 l 1,12,13
 125 38 125 38 151 17 c 128,-1,14
 177 -4 177 -4 223 -4 c 256,15,16
 269 -4 269 -4 296 26.5 c 128,-1,17
 323 57 323 57 323 107 c 2,18,-1
 323 557 l 1,19,-1
 252 557 l 2,20,21
 197 557 197 557 167 532 c 128,-1,22
 137 507 137 507 137 462 c 0,23,24
 137 423 137 423 163.5 396.5 c 128,-1,25
 190 370 190 370 234 364 c 1,26,-1
 191 268 l 1,27,28
 112 275 112 275 61 328 c 128,-1,29
 10 381 10 381 10 464 c 0,30,31
 10 556 10 556 71 608 c 128,-1,32
 132 660 132 660 241 660 c 2,33,-1
 614 660 l 2,34,35
 727 660 727 660 790.5 606.5 c 128,-1,36
 854 553 854 553 854 456 c 0,37,38
 854 385 854 385 819 337 c 128,-1,39
 784 289 784 289 719 268 c 1,40,-1
 893 0 l 1,41,-1
 738 0 l 1,42,-1
 583 253 l 1,4,-1
459 358 m 1,43,-1
 596 358 l 2,44,45
 656 358 656 358 684.5 381.5 c 128,-1,46
 713 405 713 405 713 454 c 256,47,48
 713 503 713 503 684.5 526.5 c 128,-1,49
 656 550 656 550 596 550 c 2,50,-1
 459 550 l 1,51,-1
 459 358 l 1,43,-1
EndSplineSet
Validated: 1
EndChar

StartChar: Rcaron.swsh
Encoding: 65592 -1 161
Width: 917
GlyphClass: 2
Flags: W
AnchorPoint: "Anchor-0" 601 0 basechar 0
LayerCount: 2
Back
Fore
SplineSet
493 727 m 1,0,-1
 382 894 l 1,1,-1
 488 894 l 1,2,-1
 562 796 l 1,3,-1
 636 894 l 1,4,-1
 742 894 l 1,5,-1
 631 727 l 1,6,-1
 493 727 l 1,0,-1
583 253 m 1,7,-1
 459 253 l 1,8,-1
 459 98 l 2,9,10
 459 -1 459 -1 400 -55.5 c 128,-1,11
 341 -110 341 -110 236 -110 c 0,12,13
 85 -110 85 -110 46 7 c 1,14,-1
 111 85 l 1,15,16
 125 38 125 38 151 17 c 128,-1,17
 177 -4 177 -4 223 -4 c 256,18,19
 269 -4 269 -4 296 26.5 c 128,-1,20
 323 57 323 57 323 107 c 2,21,-1
 323 557 l 1,22,-1
 252 557 l 2,23,24
 197 557 197 557 167 532 c 128,-1,25
 137 507 137 507 137 462 c 0,26,27
 137 423 137 423 163.5 396.5 c 128,-1,28
 190 370 190 370 234 364 c 1,29,-1
 191 268 l 1,30,31
 112 275 112 275 61 328 c 128,-1,32
 10 381 10 381 10 464 c 0,33,34
 10 556 10 556 71 608 c 128,-1,35
 132 660 132 660 241 660 c 2,36,-1
 614 660 l 2,37,38
 727 660 727 660 790.5 606.5 c 128,-1,39
 854 553 854 553 854 456 c 0,40,41
 854 385 854 385 819 337 c 128,-1,42
 784 289 784 289 719 268 c 1,43,-1
 893 0 l 1,44,-1
 738 0 l 1,45,-1
 583 253 l 1,7,-1
459 358 m 1,46,-1
 596 358 l 2,47,48
 656 358 656 358 684.5 381.5 c 128,-1,49
 713 405 713 405 713 454 c 256,50,51
 713 503 713 503 684.5 526.5 c 128,-1,52
 656 550 656 550 596 550 c 2,53,-1
 459 550 l 1,54,-1
 459 358 l 1,46,-1
EndSplineSet
Validated: 1
EndChar

StartChar: S.swsh
Encoding: 65594 -1 163
Width: 643
GlyphClass: 2
Flags: W
AnchorPoint: "Anchor-0" 324 -100 basechar 0
LayerCount: 2
Back
Fore
SplineSet
120 -62 m 128,-1,1
 48 -14 48 -14 48 70 c 0,2,3
 48 89 48 89 52 117 c 1,4,-1
 176 150 l 1,5,6
 171 125 171 125 171 111 c 0,7,8
 171 56 171 56 209 29.5 c 128,-1,9
 247 3 247 3 327 3 c 0,10,11
 397 3 397 3 433 30.5 c 128,-1,12
 469 58 469 58 469 108 c 0,13,14
 469 149 469 149 433.5 175 c 128,-1,15
 398 201 398 201 305 222 c 0,16,17
 172 252 172 252 116 303.5 c 128,-1,18
 60 355 60 355 60 444 c 0,19,20
 60 511 60 511 93 562 c 128,-1,21
 126 613 126 613 187.5 641.5 c 128,-1,22
 249 670 249 670 333 670 c 0,23,24
 455 670 455 670 519 622 c 128,-1,25
 583 574 583 574 590 475 c 1,26,-1
 463 426 l 1,27,28
 461 493 461 493 430 525 c 128,-1,29
 399 557 399 557 331 557 c 0,30,31
 270 557 270 557 236.5 528.5 c 128,-1,32
 203 500 203 500 203 448 c 0,33,34
 203 404 203 404 239.5 377 c 128,-1,35
 276 350 276 350 369 326 c 0,36,37
 456 305 456 305 506.5 278 c 128,-1,38
 557 251 557 251 579.5 211.5 c 128,-1,39
 602 172 602 172 602 115 c 0,40,41
 602 46 602 46 566.5 -5 c 128,-1,42
 531 -56 531 -56 466.5 -83 c 128,-1,43
 402 -110 402 -110 318 -110 c 0,44,0
 192 -110 192 -110 120 -62 c 128,-1,1
EndSplineSet
Validated: 1
EndChar

StartChar: Sacute.swsh
Encoding: 65595 -1 164
Width: 643
GlyphClass: 2
Flags: W
AnchorPoint: "Anchor-0" 324 -100 basechar 0
LayerCount: 2
Back
Fore
SplineSet
459 885 m 1,0,-1
 370 730 l 1,1,-1
 267 730 l 1,2,-1
 323 885 l 1,3,-1
 459 885 l 1,0,-1
120 -62 m 128,-1,5
 48 -14 48 -14 48 70 c 0,6,7
 48 89 48 89 52 117 c 1,8,-1
 176 150 l 1,9,10
 171 125 171 125 171 111 c 0,11,12
 171 56 171 56 209 29.5 c 128,-1,13
 247 3 247 3 327 3 c 0,14,15
 397 3 397 3 433 30.5 c 128,-1,16
 469 58 469 58 469 108 c 0,17,18
 469 149 469 149 433.5 175 c 128,-1,19
 398 201 398 201 305 222 c 0,20,21
 172 252 172 252 116 303.5 c 128,-1,22
 60 355 60 355 60 444 c 0,23,24
 60 511 60 511 93 562 c 128,-1,25
 126 613 126 613 187.5 641.5 c 128,-1,26
 249 670 249 670 333 670 c 0,27,28
 455 670 455 670 519 622 c 128,-1,29
 583 574 583 574 590 475 c 1,30,-1
 463 426 l 1,31,32
 461 493 461 493 430 525 c 128,-1,33
 399 557 399 557 331 557 c 0,34,35
 270 557 270 557 236.5 528.5 c 128,-1,36
 203 500 203 500 203 448 c 0,37,38
 203 404 203 404 239.5 377 c 128,-1,39
 276 350 276 350 369 326 c 0,40,41
 456 305 456 305 506.5 278 c 128,-1,42
 557 251 557 251 579.5 211.5 c 128,-1,43
 602 172 602 172 602 115 c 0,44,45
 602 46 602 46 566.5 -5 c 128,-1,46
 531 -56 531 -56 466.5 -83 c 128,-1,47
 402 -110 402 -110 318 -110 c 0,48,4
 192 -110 192 -110 120 -62 c 128,-1,5
EndSplineSet
Validated: 1
EndChar

StartChar: Scaron.swsh
Encoding: 65596 -1 165
Width: 643
GlyphClass: 2
Flags: W
AnchorPoint: "Anchor-0" 324 -100 basechar 0
LayerCount: 2
Back
Fore
SplineSet
395 727 m 1,0,-1
 257 727 l 1,1,-1
 146 894 l 1,2,-1
 252 894 l 1,3,-1
 326 796 l 1,4,-1
 400 894 l 1,5,-1
 506 894 l 1,6,-1
 395 727 l 1,0,-1
120 -62 m 128,-1,8
 48 -14 48 -14 48 70 c 0,9,10
 48 89 48 89 52 117 c 1,11,-1
 176 150 l 1,12,13
 171 125 171 125 171 111 c 0,14,15
 171 56 171 56 209 29.5 c 128,-1,16
 247 3 247 3 327 3 c 0,17,18
 397 3 397 3 433 30.5 c 128,-1,19
 469 58 469 58 469 108 c 0,20,21
 469 149 469 149 433.5 175 c 128,-1,22
 398 201 398 201 305 222 c 0,23,24
 172 252 172 252 116 303.5 c 128,-1,25
 60 355 60 355 60 444 c 0,26,27
 60 511 60 511 93 562 c 128,-1,28
 126 613 126 613 187.5 641.5 c 128,-1,29
 249 670 249 670 333 670 c 0,30,31
 455 670 455 670 519 622 c 128,-1,32
 583 574 583 574 590 475 c 1,33,-1
 463 426 l 1,34,35
 461 493 461 493 430 525 c 128,-1,36
 399 557 399 557 331 557 c 0,37,38
 270 557 270 557 236.5 528.5 c 128,-1,39
 203 500 203 500 203 448 c 0,40,41
 203 404 203 404 239.5 377 c 128,-1,42
 276 350 276 350 369 326 c 0,43,44
 456 305 456 305 506.5 278 c 128,-1,45
 557 251 557 251 579.5 211.5 c 128,-1,46
 602 172 602 172 602 115 c 0,47,48
 602 46 602 46 566.5 -5 c 128,-1,49
 531 -56 531 -56 466.5 -83 c 128,-1,50
 402 -110 402 -110 318 -110 c 0,51,7
 192 -110 192 -110 120 -62 c 128,-1,8
EndSplineSet
Validated: 1
EndChar

StartChar: Scedilla.swsh
Encoding: 65597 -1 166
Width: 643
GlyphClass: 2
Flags: W
AnchorPoint: "Anchor-0" 324 -100 basechar 0
LayerCount: 2
Back
Fore
SplineSet
540.5 -35.5 m 128,-1,1
 479 -94 479 -94 374 -107 c 1,2,3
 400 -125 400 -125 413 -149.5 c 128,-1,4
 426 -174 426 -174 426 -201 c 0,5,6
 426 -254 426 -254 389.5 -284.5 c 128,-1,7
 353 -315 353 -315 293 -315 c 0,8,9
 215 -315 215 -315 174 -277 c 1,10,-1
 210 -206 l 1,11,12
 223 -220 223 -220 241.5 -228 c 128,-1,13
 260 -236 260 -236 281 -236 c 0,14,15
 305 -236 305 -236 320.5 -221.5 c 128,-1,16
 336 -207 336 -207 336 -183 c 0,17,18
 336 -158 336 -158 320 -140.5 c 128,-1,19
 304 -123 304 -123 262 -107 c 1,20,21
 161 -97 161 -97 104.5 -50.5 c 128,-1,22
 48 -4 48 -4 48 70 c 0,23,24
 48 89 48 89 52 117 c 1,25,-1
 176 150 l 1,26,27
 171 125 171 125 171 111 c 0,28,29
 171 56 171 56 209 29.5 c 128,-1,30
 247 3 247 3 327 3 c 0,31,32
 397 3 397 3 433 30.5 c 128,-1,33
 469 58 469 58 469 108 c 0,34,35
 469 149 469 149 433.5 175 c 128,-1,36
 398 201 398 201 305 222 c 0,37,38
 172 252 172 252 116 303.5 c 128,-1,39
 60 355 60 355 60 444 c 0,40,41
 60 511 60 511 93 562 c 128,-1,42
 126 613 126 613 187.5 641.5 c 128,-1,43
 249 670 249 670 333 670 c 0,44,45
 455 670 455 670 519 622 c 128,-1,46
 583 574 583 574 590 475 c 1,47,-1
 463 426 l 1,48,49
 461 493 461 493 430 525 c 128,-1,50
 399 557 399 557 331 557 c 0,51,52
 270 557 270 557 236.5 528.5 c 128,-1,53
 203 500 203 500 203 448 c 0,54,55
 203 404 203 404 239.5 377 c 128,-1,56
 276 350 276 350 369 326 c 0,57,58
 456 305 456 305 506.5 278 c 128,-1,59
 557 251 557 251 579.5 211.5 c 128,-1,60
 602 172 602 172 602 115 c 0,61,0
 602 23 602 23 540.5 -35.5 c 128,-1,1
EndSplineSet
Validated: 1
EndChar

StartChar: T.swsh
Encoding: 65599 -1 168
Width: 761
GlyphClass: 2
Flags: W
AnchorPoint: "Anchor-0" 447 0 basechar 0
LayerCount: 2
Back
Fore
SplineSet
733 549 m 1,0,-1
 512 549 l 1,1,-1
 512 0 l 1,2,-1
 374 0 l 1,3,-1
 374 549 l 1,4,-1
 255 549 l 2,5,6
 198 549 198 549 167.5 527.5 c 128,-1,7
 137 506 137 506 137 462 c 0,8,9
 137 423 137 423 163 396.5 c 128,-1,10
 189 370 189 370 234 364 c 1,11,-1
 191 268 l 1,12,13
 140 273 140 273 98.5 298.5 c 128,-1,14
 57 324 57 324 33.5 367 c 128,-1,15
 10 410 10 410 10 464 c 0,16,17
 10 556 10 556 71 608 c 128,-1,18
 132 660 132 660 241 660 c 2,19,-1
 733 660 l 1,20,-1
 733 549 l 1,0,-1
EndSplineSet
Validated: 1
EndChar

StartChar: Tcaron.swsh
Encoding: 65600 -1 169
Width: 761
GlyphClass: 2
Flags: W
AnchorPoint: "Anchor-0" 447 0 basechar 0
LayerCount: 2
Back
Fore
SplineSet
372 727 m 1,0,-1
 261 894 l 1,1,-1
 367 894 l 1,2,-1
 441 796 l 1,3,-1
 515 894 l 1,4,-1
 621 894 l 1,5,-1
 510 727 l 1,6,-1
 372 727 l 1,0,-1
733 549 m 1,7,-1
 512 549 l 1,8,-1
 512 0 l 1,9,-1
 374 0 l 1,10,-1
 374 549 l 1,11,-1
 255 549 l 2,12,13
 198 549 198 549 167.5 527.5 c 128,-1,14
 137 506 137 506 137 462 c 0,15,16
 137 423 137 423 163 396.5 c 128,-1,17
 189 370 189 370 234 364 c 1,18,-1
 191 268 l 1,19,20
 140 273 140 273 98.5 298.5 c 128,-1,21
 57 324 57 324 33.5 367 c 128,-1,22
 10 410 10 410 10 464 c 0,23,24
 10 556 10 556 71 608 c 128,-1,25
 132 660 132 660 241 660 c 2,26,-1
 733 660 l 1,27,-1
 733 549 l 1,7,-1
EndSplineSet
Validated: 1
EndChar

StartChar: uni0162.swsh
Encoding: 65601 -1 170
Width: 761
GlyphClass: 2
Flags: W
AnchorPoint: "Anchor-0" 447 0 basechar 0
LayerCount: 2
Back
Fore
SplineSet
512 549 m 1,0,-1
 512 1 l 1,1,2
 569 -35 569 -35 569 -99 c 0,3,4
 569 -153 569 -153 532.5 -184 c 128,-1,5
 496 -215 496 -215 436 -215 c 0,6,7
 357 -215 357 -215 315 -176 c 1,8,-1
 354 -104 l 1,9,10
 381 -134 381 -134 422 -134 c 0,11,12
 446 -134 446 -134 462.5 -119.5 c 128,-1,13
 479 -105 479 -105 479 -80 c 0,14,15
 479 -53 479 -53 461.5 -36 c 128,-1,16
 444 -19 444 -19 401 0 c 1,17,-1
 374 0 l 1,18,-1
 374 549 l 1,19,-1
 255 549 l 2,20,21
 198 549 198 549 167.5 527.5 c 128,-1,22
 137 506 137 506 137 462 c 0,23,24
 137 423 137 423 163 396.5 c 128,-1,25
 189 370 189 370 234 364 c 1,26,-1
 191 268 l 1,27,28
 140 273 140 273 98.5 298.5 c 128,-1,29
 57 324 57 324 33.5 367 c 128,-1,30
 10 410 10 410 10 464 c 0,31,32
 10 556 10 556 71 608 c 128,-1,33
 132 660 132 660 241 660 c 2,34,-1
 733 660 l 1,35,-1
 733 549 l 1,36,-1
 512 549 l 1,0,-1
EndSplineSet
Validated: 1
EndChar

StartChar: W.swsh
Encoding: 65603 -1 172
Width: 1264
GlyphClass: 2
Flags: W
LayerCount: 2
Back
Fore
SplineSet
1245 660 m 1,0,-1
 1053 0 l 1,1,-1
 898 0 l 1,2,-1
 805 360 l 1,3,-1
 774 516 l 1,4,-1
 773 516 l 1,5,-1
 742 360 l 1,6,-1
 650 0 l 1,7,-1
 492 0 l 1,8,-1
 330 557 l 1,9,-1
 253 557 l 2,10,11
 197 557 197 557 167 532 c 128,-1,12
 137 507 137 507 137 462 c 0,13,14
 137 423 137 423 163 396.5 c 128,-1,15
 189 370 189 370 235 364 c 1,16,-1
 191 268 l 1,17,18
 140 272 140 272 98.5 297.5 c 128,-1,19
 57 323 57 323 33.5 366 c 128,-1,20
 10 409 10 409 10 464 c 0,21,22
 10 556 10 556 71 608 c 128,-1,23
 132 660 132 660 241 660 c 2,24,-1
 448 660 l 1,25,-1
 576 109 l 1,26,-1
 708 660 l 1,27,-1
 841 660 l 1,28,-1
 975 109 l 1,29,-1
 1102 660 l 1,30,-1
 1245 660 l 1,0,-1
EndSplineSet
Validated: 1
EndChar

StartChar: Adieresis.titl
Encoding: 65604 -1 173
Width: 671
GlyphClass: 2
Flags: W
LayerCount: 2
Back
Fore
SplineSet
77 562.5 m 128,-1,1
 61 578 61 578 61 605 c 0,2,3
 61 631 61 631 77 646.5 c 128,-1,4
 93 662 93 662 121 662 c 0,5,6
 150 662 150 662 166.5 646.5 c 128,-1,7
 183 631 183 631 183 605 c 0,8,9
 183 578 183 578 166.5 562.5 c 128,-1,10
 150 547 150 547 121 547 c 0,11,0
 93 547 93 547 77 562.5 c 128,-1,1
505.5 562.5 m 128,-1,13
 489 578 489 578 489 605 c 0,14,15
 489 631 489 631 505.5 646.5 c 128,-1,16
 522 662 522 662 550 662 c 256,17,18
 578 662 578 662 594.5 646.5 c 128,-1,19
 611 631 611 631 611 605 c 0,20,21
 611 578 611 578 594.5 562.5 c 128,-1,22
 578 547 578 547 550 547 c 256,23,12
 522 547 522 547 505.5 562.5 c 128,-1,13
461 161 m 1,24,-1
 207 161 l 1,25,-1
 152 0 l 1,26,-1
 12 0 l 1,27,-1
 253 660 l 1,28,-1
 418 660 l 1,29,-1
 658 0 l 1,30,-1
 515 0 l 1,31,-1
 461 161 l 1,24,-1
427 263 m 1,32,-1
 364 449 l 1,33,-1
 335 549 l 1,34,-1
 333 549 l 1,35,-1
 305 451 l 1,36,-1
 241 263 l 1,37,-1
 427 263 l 1,32,-1
EndSplineSet
Validated: 1
EndChar

StartChar: Odieresis.titl
Encoding: 65605 -1 174
Width: 741
GlyphClass: 2
Flags: W
LayerCount: 2
Back
Fore
SplineSet
538.5 629 m 128,-1,1
 610 588 610 588 648.5 511.5 c 128,-1,2
 687 435 687 435 687 330 c 256,3,4
 687 225 687 225 648.5 148.5 c 128,-1,5
 610 72 610 72 538.5 31 c 128,-1,6
 467 -10 467 -10 370 -10 c 256,7,8
 273 -10 273 -10 201.5 31 c 128,-1,9
 130 72 130 72 91.5 148.5 c 128,-1,10
 53 225 53 225 53 330 c 256,11,12
 53 435 53 435 91.5 511.5 c 128,-1,13
 130 588 130 588 201.5 629 c 128,-1,14
 273 670 273 670 370 670 c 256,15,0
 467 670 467 670 538.5 629 c 128,-1,1
110.5 646.5 m 128,-1,17
 127 631 127 631 127 604 c 0,18,19
 127 578 127 578 110 562.5 c 128,-1,20
 93 547 93 547 65 547 c 0,21,22
 38 547 38 547 21.5 562.5 c 128,-1,23
 5 578 5 578 5 604 c 0,24,25
 5 631 5 631 21.5 646.5 c 128,-1,26
 38 662 38 662 65 662 c 0,27,16
 94 662 94 662 110.5 646.5 c 128,-1,17
719.5 646.5 m 128,-1,29
 736 631 736 631 736 605 c 0,30,31
 736 578 736 578 719.5 562.5 c 128,-1,32
 703 547 703 547 675 547 c 256,33,34
 647 547 647 547 630.5 562.5 c 128,-1,35
 614 578 614 578 614 605 c 0,36,37
 614 631 614 631 630.5 646.5 c 128,-1,38
 647 662 647 662 675 662 c 256,39,28
 703 662 703 662 719.5 646.5 c 128,-1,29
241.5 498.5 m 128,-1,41
 196 440 196 440 196 330 c 256,42,43
 196 220 196 220 241.5 161.5 c 128,-1,44
 287 103 287 103 371 103 c 0,45,46
 454 103 454 103 499.5 161.5 c 128,-1,47
 545 220 545 220 545 330 c 256,48,49
 545 440 545 440 499.5 498.5 c 128,-1,50
 454 557 454 557 371 557 c 0,51,40
 287 557 287 557 241.5 498.5 c 128,-1,41
EndSplineSet
Validated: 1
EndChar

StartChar: Udieresis.titl
Encoding: 65606 -1 175
Width: 716
GlyphClass: 2
Flags: W
LayerCount: 2
Back
Fore
SplineSet
308 552 m 128,-1,1
 290 569 290 569 290 600 c 0,2,3
 290 629 290 629 308.5 645.5 c 128,-1,4
 327 662 327 662 358 662 c 0,5,6
 390 662 390 662 408.5 645 c 128,-1,7
 427 628 427 628 427 600 c 0,8,9
 427 570 427 570 408.5 552.5 c 128,-1,10
 390 535 390 535 358 535 c 256,11,0
 326 535 326 535 308 552 c 128,-1,1
640 261 m 2,12,13
 640 126 640 126 568.5 58 c 128,-1,14
 497 -10 497 -10 358 -10 c 256,15,16
 219 -10 219 -10 147.5 58 c 128,-1,17
 76 126 76 126 76 261 c 2,18,-1
 76 660 l 1,19,-1
 215 660 l 1,20,-1
 215 266 l 2,21,22
 215 183 215 183 250 143 c 128,-1,23
 285 103 285 103 358 103 c 256,24,25
 431 103 431 103 466 143 c 128,-1,26
 501 183 501 183 501 266 c 2,27,-1
 501 660 l 1,28,-1
 640 660 l 1,29,-1
 640 261 l 2,12,13
308 393 m 128,-1,31
 290 410 290 410 290 440 c 0,32,33
 290 469 290 469 308 486 c 128,-1,34
 326 503 326 503 358 503 c 256,35,36
 390 503 390 503 408.5 486 c 128,-1,37
 427 469 427 469 427 440 c 0,38,39
 427 410 427 410 408.5 393 c 128,-1,40
 390 376 390 376 358 376 c 256,41,30
 326 376 326 376 308 393 c 128,-1,31
EndSplineSet
Validated: 1
EndChar

StartChar: a
Encoding: 97 97 176
Width: 629
GlyphClass: 2
Flags: W
LayerCount: 2
Back
Fore
SplineSet
557 500 m 1,0,-1
 557 0 l 1,1,-1
 428 0 l 5,2,-1
 420 83 l 1,3,4
 398 40 398 40 357.5 15 c 128,-1,5
 317 -10 317 -10 264 -10 c 0,6,7
 164 -10 164 -10 106.5 59 c 128,-1,8
 49 128 49 128 49 251 c 0,9,10
 49 373 49 373 106 441.5 c 128,-1,11
 163 510 163 510 263 510 c 0,12,13
 321 510 321 510 365 480.5 c 128,-1,14
 409 451 409 451 431 402 c 1,15,-1
 437 500 l 1,16,-1
 557 500 l 1,0,-1
389 134.5 m 128,-1,18
 420 174 420 174 420 245 c 2,19,-1
 420 255 l 2,20,21
 420 327 420 327 389 366 c 128,-1,22
 358 405 358 405 304 405 c 0,23,24
 249 405 249 405 218 365.5 c 128,-1,25
 187 326 187 326 187 250 c 256,26,27
 187 174 187 174 218 134.5 c 128,-1,28
 249 95 249 95 304 95 c 0,29,17
 358 95 358 95 389 134.5 c 128,-1,18
EndSplineSet
Substitution2: "Single Substitution lookup 55 subtable" ordfeminine
Substitution2: "'smcp' Lowercase to Small Capitals lookup 12 subtable" a.sc
AlternateSubs2: "'aalt' Access All Alternates lookup 1 subtable" a.sc ordfeminine
EndChar

StartChar: aogonek
Encoding: 261 261 183
Width: 574
GlyphClass: 2
Flags: W
LayerCount: 2
Back
Fore
SplineSet
541 -123 m 1,1,-1
 561 -194 l 1,2,3
 527 -215 527 -215 468 -215 c 256,4,5
 409 -215 409 -215 373.5 -187 c 128,-1,6
 338 -159 338 -159 338 -108 c 0,7,8
 338 -26 338 -26 436 12 c 1,9,10
 391 28 391 28 379 76 c 1,11,12
 359 35 359 35 311.5 12.5 c 128,-1,13
 264 -10 264 -10 196 -10 c 0,14,15
 123 -10 123 -10 82 23 c 128,-1,16
 41 56 41 56 41 118 c 0,17,18
 41 240 41 240 236 276 c 2,19,-1
 356 299 l 1,20,-1
 356 323 l 2,21,22
 356 363 356 363 333.5 386.5 c 128,-1,23
 311 410 311 410 271 410 c 0,24,25
 225 410 225 410 196 390 c 128,-1,26
 167 370 167 370 156 325 c 1,27,-1
 47 371 l 1,28,29
 63 436 63 436 119 473 c 128,-1,30
 175 510 175 510 265 510 c 0,31,32
 372 510 372 510 432 463.5 c 128,-1,33
 492 417 492 417 492 326 c 2,34,-1
 492 121 l 2,35,36
 492 101 492 101 501 92 c 128,-1,37
 510 83 510 83 529 83 c 0,38,39
 550 83 550 83 563 87 c 1,40,-1
 553 4 l 1,41,42
 491 -11 491 -11 464 -33 c 128,-1,43
 437 -55 437 -55 437 -86 c 0,44,45
 437 -109 437 -109 451 -121.5 c 128,-1,46
 465 -134 465 -134 491 -134 c 0,47,0
 524 -134 524 -134 541 -123 c 1,1,-1
319.5 104.5 m 128,-1,49
 356 126 356 126 356 163 c 2,50,-1
 356 215 l 1,51,-1
 249 191 l 2,52,53
 215 183 215 183 198.5 169.5 c 128,-1,54
 182 156 182 156 182 132 c 256,55,56
 182 108 182 108 197 95.5 c 128,-1,57
 212 83 212 83 239 83 c 0,58,48
 283 83 283 83 319.5 104.5 c 128,-1,49
EndSplineSet
Validated: 1
Substitution2: "'smcp' Lowercase to Small Capitals lookup 12 subtable" aogonek.sc
Substitution2: "'aalt' Access All Alternates lookup 0 subtable" aogonek.sc
EndChar

StartChar: ae
Encoding: 230 230 186
Width: 882
GlyphClass: 2
Flags: W
LayerCount: 2
Back
Fore
SplineSet
832 208 m 1,1,-1
 497 208 l 1,2,3
 505 150 505 150 536 121 c 128,-1,4
 567 92 567 92 614 92 c 0,5,6
 657 92 657 92 680.5 107.5 c 128,-1,7
 704 123 704 123 715 154 c 1,8,-1
 826 113 l 1,9,10
 777 -10 777 -10 611 -10 c 0,11,12
 482 -10 482 -10 426 86 c 1,13,14
 376 -10 376 -10 204 -10 c 0,15,16
 126 -10 126 -10 83.5 24.5 c 128,-1,17
 41 59 41 59 41 118 c 0,18,19
 41 179 41 179 86.5 216.5 c 128,-1,20
 132 254 132 254 227 272 c 2,21,-1
 361 298 l 1,22,-1
 361 323 l 2,23,24
 361 364 361 364 336.5 387 c 128,-1,25
 312 410 312 410 267 410 c 0,26,27
 184 410 184 410 158 328 c 1,28,-1
 49 366 l 1,29,30
 65 434 65 434 122.5 472 c 128,-1,31
 180 510 180 510 273 510 c 0,32,33
 331 510 331 510 373.5 489.5 c 128,-1,34
 416 469 416 469 441 429 c 1,35,36
 470 468 470 468 512 489 c 128,-1,37
 554 510 554 510 606 510 c 0,38,39
 717 510 717 510 776.5 444 c 128,-1,40
 836 378 836 378 836 272 c 0,41,0
 836 238 836 238 832 208 c 1,1,-1
533 379.5 m 128,-1,43
 504 350 504 350 497 292 c 1,44,-1
 712 292 l 1,45,46
 707 350 707 350 683 379.5 c 128,-1,47
 659 409 659 409 610 409 c 0,48,42
 562 409 562 409 533 379.5 c 128,-1,43
326.5 110 m 128,-1,50
 361 137 361 137 361 184 c 2,51,-1
 361 220 l 1,52,-1
 269 199 l 2,53,54
 222 187 222 187 202 173 c 128,-1,55
 182 159 182 159 182 132 c 0,56,57
 182 107 182 107 197 95 c 128,-1,58
 212 83 212 83 245 83 c 0,59,49
 292 83 292 83 326.5 110 c 128,-1,50
EndSplineSet
Validated: 1
Substitution2: "'smcp' Lowercase to Small Capitals lookup 12 subtable" ae.sc
Substitution2: "'aalt' Access All Alternates lookup 0 subtable" ae.sc
EndChar

StartChar: b
Encoding: 98 98 187
Width: 629
GlyphClass: 2
Flags: W
LayerCount: 2
Back
Fore
SplineSet
523 441 m 128,-1,1
 580 372 580 372 580 249 c 0,2,3
 580 127 580 127 523 58.5 c 128,-1,4
 466 -10 466 -10 366 -10 c 0,5,6
 307 -10 307 -10 263.5 19.5 c 128,-1,7
 220 49 220 49 198 99 c 1,8,-1
 193 0 l 1,9,-1
 72 0 l 1,10,-1
 72 719 l 1,11,-1
 209 719 l 1,12,-1
 209 418 l 1,13,14
 232 461 232 461 272 485.5 c 128,-1,15
 312 510 312 510 366 510 c 0,16,0
 466 510 466 510 523 441 c 128,-1,1
412 135 m 128,-1,18
 443 175 443 175 443 250 c 256,19,20
 443 325 443 325 412 365 c 128,-1,21
 381 405 381 405 325 405 c 0,22,23
 275 405 275 405 244 370 c 128,-1,24
 213 335 213 335 209 272 c 1,25,-1
 209 228 l 1,26,27
 213 164 213 164 244 129.5 c 128,-1,28
 275 95 275 95 325 95 c 0,29,17
 381 95 381 95 412 135 c 128,-1,18
EndSplineSet
Validated: 1
Substitution2: "'smcp' Lowercase to Small Capitals lookup 12 subtable" b.sc
Substitution2: "'aalt' Access All Alternates lookup 0 subtable" b.sc
EndChar

StartChar: c
Encoding: 99 99 188
Width: 569
GlyphClass: 2
Flags: W
LayerCount: 2
Back
Fore
SplineSet
455 470 m 128,-1,1
 510 430 510 430 530 363 c 1,2,-1
 402 317 l 1,3,4
 384 408 384 408 305 408 c 0,5,6
 246 408 246 408 214.5 367.5 c 128,-1,7
 183 327 183 327 183 249 c 260,8,9
 183 171 183 171 215 131.5 c 132,-1,10
 247 92 247 92 304 92 c 4,11,12
 392 92 392 92 408 181 c 5,13,-1
 532 141 l 5,14,15
 516 72 516 72 457.5 31 c 132,-1,16
 399 -10 399 -10 306 -10 c 4,17,18
 182 -10 182 -10 114 58.5 c 132,-1,19
 46 127 46 127 46 250 c 260,20,21
 46 373 46 373 113.5 441.5 c 128,-1,22
 181 510 181 510 301 510 c 0,23,0
 400 510 400 510 455 470 c 128,-1,1
EndSplineSet
Validated: 1
Substitution2: "'smcp' Lowercase to Small Capitals lookup 12 subtable" c.sc
Substitution2: "'aalt' Access All Alternates lookup 0 subtable" c.sc
EndChar

StartChar: ccedilla
Encoding: 231 231 191
Width: 569
GlyphClass: 2
Flags: W
LayerCount: 2
Back
Fore
SplineSet
477.5 46.5 m 128,-1,1
 436 8 436 8 371 -4 c 1,2,3
 398 -23 398 -23 412 -48.5 c 128,-1,4
 426 -74 426 -74 426 -101 c 0,5,6
 426 -154 426 -154 389.5 -184.5 c 128,-1,7
 353 -215 353 -215 293 -215 c 0,8,9
 215 -215 215 -215 174 -177 c 1,10,-1
 210 -106 l 1,11,12
 223 -120 223 -120 241.5 -128 c 128,-1,13
 260 -136 260 -136 281 -136 c 0,14,15
 305 -136 305 -136 320.5 -121.5 c 128,-1,16
 336 -107 336 -107 336 -83 c 0,17,18
 336 -58 336 -58 320 -41 c 128,-1,19
 304 -24 304 -24 263 -8 c 1,20,21
 159 4 159 4 102.5 71 c 128,-1,22
 46 138 46 138 46 250 c 0,23,24
 46 373 46 373 113.5 441.5 c 128,-1,25
 181 510 181 510 301 510 c 0,26,27
 400 510 400 510 455 470 c 128,-1,28
 510 430 510 430 530 363 c 1,29,-1
 402 317 l 1,30,31
 384 408 384 408 305 408 c 0,32,33
 246 408 246 408 214.5 367.5 c 128,-1,34
 183 327 183 327 183 249 c 256,35,36
 183 171 183 171 215 131.5 c 128,-1,37
 247 92 247 92 304 92 c 0,38,39
 392 92 392 92 408 181 c 1,40,-1
 532 141 l 1,41,0
 519 85 519 85 477.5 46.5 c 128,-1,1
EndSplineSet
Validated: 1
Substitution2: "'smcp' Lowercase to Small Capitals lookup 12 subtable" ccedilla.sc
Substitution2: "'aalt' Access All Alternates lookup 0 subtable" ccedilla.sc
EndChar

StartChar: d
Encoding: 100 100 192
Width: 629
GlyphClass: 2
Flags: W
LayerCount: 2
Back
Fore
SplineSet
556 719 m 1,0,-1
 556 0 l 1,1,-1
 434 0 l 1,2,-1
 428 93 l 1,3,4
 406 46 406 46 362.5 18 c 128,-1,5
 319 -10 319 -10 263 -10 c 0,6,7
 163 -10 163 -10 106 58.5 c 128,-1,8
 49 127 49 127 49 249 c 0,9,10
 49 372 49 372 106 441 c 128,-1,11
 163 510 163 510 263 510 c 0,12,13
 317 510 317 510 357 485.5 c 128,-1,14
 397 461 397 461 419 418 c 1,15,-1
 419 719 l 1,16,-1
 556 719 l 1,0,-1
388 134 m 128,-1,18
 419 173 419 173 419 245 c 2,19,-1
 419 255 l 2,20,21
 419 326 419 326 388 365.5 c 128,-1,22
 357 405 357 405 303 405 c 0,23,24
 248 405 248 405 217 365 c 128,-1,25
 186 325 186 325 186 250 c 256,26,27
 186 175 186 175 217 135 c 128,-1,28
 248 95 248 95 303 95 c 0,29,17
 357 95 357 95 388 134 c 128,-1,18
EndSplineSet
Validated: 1
Substitution2: "'smcp' Lowercase to Small Capitals lookup 12 subtable" d.sc
Substitution2: "'aalt' Access All Alternates lookup 0 subtable" d.sc
EndChar

StartChar: eth
Encoding: 240 240 193
Width: 610
GlyphClass: 2
Flags: W
LayerCount: 2
Back
Fore
SplineSet
462 607 m 1,0,1
 556 481 556 481 556 298 c 0,2,3
 556 146 556 146 492 68 c 128,-1,4
 428 -10 428 -10 295 -10 c 0,5,6
 180 -10 180 -10 114.5 56.5 c 128,-1,7
 49 123 49 123 49 241 c 0,8,9
 49 318 49 318 79.5 374.5 c 128,-1,10
 110 431 110 431 164.5 461 c 128,-1,11
 219 491 219 491 289 491 c 0,12,13
 396 491 396 491 441 421 c 1,14,15
 420 518 420 518 364 584 c 1,16,-1
 192 545 l 1,17,-1
 182 598 l 1,18,-1
 327 623 l 1,19,20
 273 674 273 674 186 725 c 1,21,-1
 326 725 l 1,22,23
 381 694 381 694 429 646 c 1,24,-1
 545 675 l 1,25,-1
 559 621 l 1,26,-1
 462 607 l 1,0,1
394 133 m 128,-1,28
 426 174 426 174 426 241 c 0,29,30
 426 317 426 317 395.5 356 c 128,-1,31
 365 395 365 395 307 395 c 256,32,33
 249 395 249 395 218.5 356 c 128,-1,34
 188 317 188 317 188 241 c 0,35,36
 188 168 188 168 218 130 c 128,-1,37
 248 92 248 92 304 92 c 0,38,27
 362 92 362 92 394 133 c 128,-1,28
EndSplineSet
Validated: 1
Substitution2: "'smcp' Lowercase to Small Capitals lookup 12 subtable" eth.sc
Substitution2: "'aalt' Access All Alternates lookup 0 subtable" eth.sc
EndChar

StartChar: dcaron
Encoding: 271 271 194
Width: 687
GlyphClass: 2
Flags: W
LayerCount: 2
Back
Fore
SplineSet
734 719 m 1,0,-1
 686 495 l 1,1,-1
 604 495 l 1,2,-1
 624 719 l 1,3,-1
 734 719 l 1,0,-1
419 719 m 1,4,-1
 556 719 l 1,5,-1
 556 0 l 1,6,-1
 434 0 l 1,7,-1
 428 93 l 1,8,9
 406 46 406 46 362.5 18 c 128,-1,10
 319 -10 319 -10 263 -10 c 0,11,12
 163 -10 163 -10 106 58.5 c 128,-1,13
 49 127 49 127 49 249 c 0,14,15
 49 372 49 372 106 441 c 128,-1,16
 163 510 163 510 263 510 c 0,17,18
 317 510 317 510 357 485.5 c 128,-1,19
 397 461 397 461 419 418 c 1,20,-1
 419 719 l 1,4,-1
388 134 m 128,-1,22
 419 173 419 173 419 245 c 2,23,-1
 419 255 l 2,24,25
 419 326 419 326 388 365.5 c 128,-1,26
 357 405 357 405 303 405 c 0,27,28
 248 405 248 405 217 365 c 128,-1,29
 186 325 186 325 186 250 c 256,30,31
 186 175 186 175 217 135 c 128,-1,32
 248 95 248 95 303 95 c 0,33,21
 357 95 357 95 388 134 c 128,-1,22
EndSplineSet
Validated: 1
Substitution2: "'smcp' Lowercase to Small Capitals lookup 12 subtable" dcaron.sc
Substitution2: "'aalt' Access All Alternates lookup 0 subtable" dcaron.sc
EndChar

StartChar: dcroat
Encoding: 273 273 195
Width: 628
GlyphClass: 2
Flags: W
LayerCount: 2
Back
Fore
SplineSet
633 548 m 1,0,-1
 556 548 l 1,1,-1
 556 0 l 1,2,-1
 434 0 l 1,3,-1
 428 93 l 1,4,5
 406 46 406 46 362.5 18 c 128,-1,6
 319 -10 319 -10 263 -10 c 0,7,8
 163 -10 163 -10 106 58.5 c 128,-1,9
 49 127 49 127 49 249 c 0,10,11
 49 372 49 372 106 441 c 128,-1,12
 163 510 163 510 263 510 c 0,13,14
 317 510 317 510 357 485.5 c 128,-1,15
 397 461 397 461 419 418 c 1,16,-1
 419 548 l 1,17,-1
 279 548 l 1,18,-1
 279 632 l 1,19,-1
 419 632 l 1,20,-1
 419 719 l 1,21,-1
 556 719 l 1,22,-1
 556 632 l 1,23,-1
 633 632 l 1,24,-1
 633 548 l 1,0,-1
388 134 m 128,-1,26
 419 173 419 173 419 245 c 2,27,-1
 419 255 l 2,28,29
 419 326 419 326 388 365.5 c 128,-1,30
 357 405 357 405 303 405 c 0,31,32
 248 405 248 405 217 365 c 128,-1,33
 186 325 186 325 186 250 c 256,34,35
 186 175 186 175 217 135 c 128,-1,36
 248 95 248 95 303 95 c 0,37,25
 357 95 357 95 388 134 c 128,-1,26
EndSplineSet
Validated: 1
Substitution2: "'smcp' Lowercase to Small Capitals lookup 12 subtable" dcroat.sc
Substitution2: "'aalt' Access All Alternates lookup 0 subtable" dcroat.sc
EndChar

StartChar: e
Encoding: 101 101 196
Width: 582
GlyphClass: 2
Flags: W
AnchorPoint: "Anchor-0" 300 0 basechar 0
LayerCount: 2
Back
Fore
SplineSet
535 198 m 1,1,-1
 181 198 l 1,2,3
 202 92 202 92 306 92 c 0,4,5
 349 92 349 92 377 108 c 128,-1,6
 405 124 405 124 416 154 c 1,7,-1
 528 113 l 1,8,9
 504 53 504 53 447.5 21.5 c 128,-1,10
 391 -10 391 -10 306 -10 c 0,11,12
 182 -10 182 -10 114 58.5 c 128,-1,13
 46 127 46 127 46 250 c 256,14,15
 46 373 46 373 112 441.5 c 128,-1,16
 178 510 178 510 298 510 c 0,17,18
 414 510 414 510 476.5 443 c 128,-1,19
 539 376 539 376 539 252 c 0,20,0
 539 224 539 224 535 198 c 1,1,-1
217.5 380 m 128,-1,22
 188 351 188 351 180 294 c 1,23,-1
 413 294 l 1,24,25
 405 350 405 350 375 379.5 c 128,-1,26
 345 409 345 409 297 409 c 0,27,21
 247 409 247 409 217.5 380 c 128,-1,22
EndSplineSet
Validated: 1
Substitution2: "'smcp' Lowercase to Small Capitals lookup 12 subtable" e.sc
Substitution2: "'aalt' Access All Alternates lookup 0 subtable" e.sc
EndChar

StartChar: eogonek
Encoding: 281 281 204
Width: 582
GlyphClass: 2
Flags: W
AnchorPoint: "Anchor-0" 300 0 basechar 0
LayerCount: 2
Back
Fore
SplineSet
535 198 m 1,1,-1
 181 198 l 1,2,3
 202 92 202 92 306 92 c 0,4,5
 349 92 349 92 377 108 c 128,-1,6
 405 124 405 124 416 154 c 1,7,-1
 528 113 l 1,8,9
 493 27 493 27 395 1 c 1,10,11
 356 -21 356 -21 337.5 -41.5 c 128,-1,12
 319 -62 319 -62 319 -84 c 0,13,14
 319 -107 319 -107 334.5 -120.5 c 128,-1,15
 350 -134 350 -134 376 -134 c 0,16,17
 409 -134 409 -134 426 -123 c 1,18,-1
 446 -194 l 1,19,20
 412 -215 412 -215 351 -215 c 0,21,22
 292 -215 292 -215 255.5 -186.5 c 128,-1,23
 219 -158 219 -158 219 -107 c 0,24,25
 219 -49 219 -49 274 -9 c 1,26,27
 165 0 165 0 105.5 67.5 c 128,-1,28
 46 135 46 135 46 250 c 0,29,30
 46 373 46 373 112 441.5 c 128,-1,31
 178 510 178 510 298 510 c 0,32,33
 414 510 414 510 476.5 443 c 128,-1,34
 539 376 539 376 539 252 c 0,35,0
 539 224 539 224 535 198 c 1,1,-1
217.5 380 m 128,-1,37
 188 351 188 351 180 294 c 1,38,-1
 413 294 l 1,39,40
 405 350 405 350 375 379.5 c 128,-1,41
 345 409 345 409 297 409 c 0,42,36
 247 409 247 409 217.5 380 c 128,-1,37
EndSplineSet
Validated: 1
Substitution2: "'smcp' Lowercase to Small Capitals lookup 12 subtable" eogonek.sc
Substitution2: "'aalt' Access All Alternates lookup 0 subtable" eogonek.sc
EndChar

StartChar: f
Encoding: 102 102 205
Width: 407
GlyphClass: 2
Flags: W
LayerCount: 2
Back
Fore
SplineSet
239 500 m 1,0,-1
 397 500 l 1,1,-1
 397 398 l 1,2,-1
 245 398 l 1,3,-1
 245 0 l 1,4,-1
 108 0 l 1,5,-1
 108 398 l 1,6,-1
 21 398 l 1,7,-1
 21 500 l 1,8,-1
 108 500 l 1,9,-1
 108 560 l 2,10,11
 108 642 108 642 159 685.5 c 128,-1,12
 210 729 210 729 297 729 c 0,13,14
 330 729 330 729 357.5 722 c 128,-1,15
 385 715 385 715 401 703 c 1,16,-1
 382 612 l 1,17,18
 359 627 359 627 325 627 c 0,19,20
 239 627 239 627 239 550 c 2,21,-1
 239 500 l 1,0,-1
EndSplineSet
Validated: 1
Substitution2: "'smcp' Lowercase to Small Capitals lookup 12 subtable" f.sc
Substitution2: "'aalt' Access All Alternates lookup 0 subtable" f.sc
EndChar

StartChar: g
Encoding: 103 103 206
Width: 629
GlyphClass: 2
Flags: W
LayerCount: 2
Back
Fore
SplineSet
557 24 m 260,0,1
 557 -99 557 -99 489 -167.5 c 132,-1,2
 421 -236 421 -236 297 -236 c 4,3,4
 204 -236 204 -236 138 -197.5 c 132,-1,5
 72 -159 72 -159 56 -90 c 5,6,7
 172 -50 l 5,8,9
 187 -134 187 -134 299 -134 c 4,10,11
 356 -134 356 -134 388 -99.5 c 132,-1,12
 420 -65 420 -65 420 13 c 260,13,-1
 420 83 l 5,14,15
 398 40 398 40 357.5 15 c 132,-1,16
 317 -10 317 -10 264 -10 c 4,17,18
 164 -10 164 -10 106.5 59 c 132,-1,19
 49 128 49 128 49 251 c 4,20,21
 49 373 49 373 106 441.5 c 132,-1,22
 163 510 163 510 263 510 c 4,23,24
 321 510 321 510 365 480.5 c 132,-1,25
 409 451 409 451 431 402 c 5,26,-1
 437 500 l 5,27,-1
 557 500 l 5,28,-1
 557 24 l 260,0,1
389 134.5 m 132,-1,30
 420 174 420 174 420 245 c 6,31,-1
 420 255 l 6,32,33
 420 327 420 327 389 366 c 132,-1,34
 358 405 358 405 304 405 c 4,35,36
 249 405 249 405 218 365.5 c 132,-1,37
 187 326 187 326 187 250 c 132,-1,38
 187 174 187 174 218 134.5 c 132,-1,39
 249 95 249 95 304 95 c 4,40,29
 358 95 358 95 389 134.5 c 132,-1,30
EndSplineSet
Substitution2: "'ss01' Style Set 1 lookup 47 subtable" g.ss01
Substitution2: "'salt' Stylistic Alternatives lookup 42 subtable" g.ss01
Substitution2: "'smcp' Lowercase to Small Capitals lookup 12 subtable" g.sc
AlternateSubs2: "'aalt' Access All Alternates lookup 1 subtable" g.sc g.ss01
EndChar

StartChar: gbreve
Encoding: 287 287 207
Width: 549
GlyphClass: 2
Flags: W
LayerCount: 2
Back
Fore
SplineSet
164 605.5 m 128,-1,1
 120 648 120 648 120 720 c 1,2,-1
 214 720 l 1,3,4
 214 688 214 688 233 666.5 c 128,-1,5
 252 645 252 645 282 645 c 256,6,7
 312 645 312 645 330.5 666.5 c 128,-1,8
 349 688 349 688 349 720 c 1,9,-1
 443 720 l 1,10,11
 443 648 443 648 399.5 605.5 c 128,-1,12
 356 563 356 563 282 563 c 256,13,0
 208 563 208 563 164 605.5 c 128,-1,1
484.5 507 m 128,-1,15
 457 491 457 491 452 456 c 1,16,17
 503 411 503 411 503 340 c 0,18,19
 503 262 503 262 441 216.5 c 128,-1,20
 379 171 379 171 273 171 c 0,21,22
 223 171 223 171 183 180 c 1,23,24
 144 170 144 170 144 135 c 0,25,26
 144 115 144 115 159 104.5 c 128,-1,27
 174 94 174 94 201 94 c 2,28,-1
 370 94 l 2,29,30
 451 94 451 94 495.5 58 c 128,-1,31
 540 22 540 22 540 -45 c 0,32,33
 540 -125 540 -125 466 -170 c 128,-1,34
 392 -215 392 -215 272 -215 c 0,35,36
 147 -215 147 -215 86 -182 c 128,-1,37
 25 -149 25 -149 25 -92 c 0,38,39
 25 -58 25 -58 48.5 -33 c 128,-1,40
 72 -8 72 -8 117 3 c 1,41,42
 83 17 83 17 63 42.5 c 128,-1,43
 43 68 43 68 43 103 c 0,44,45
 43 139 43 139 64 165 c 128,-1,46
 85 191 85 191 122 204 c 1,47,48
 84 226 84 226 64 260.5 c 128,-1,49
 44 295 44 295 44 340 c 0,50,51
 44 419 44 419 105.5 464.5 c 128,-1,52
 167 510 167 510 273 510 c 0,53,54
 343 510 343 510 398 488 c 1,55,56
 402 545 402 545 442 582 c 128,-1,57
 482 619 482 619 538 619 c 1,58,-1
 557 521 l 1,59,14
 512 523 512 523 484.5 507 c 128,-1,15
339 280 m 128,-1,61
 365 303 365 303 365 341 c 0,62,63
 365 378 365 378 339 401 c 128,-1,64
 313 424 313 424 273 424 c 256,65,66
 233 424 233 424 207.5 401 c 128,-1,67
 182 378 182 378 182 341 c 0,68,69
 182 303 182 303 207.5 280 c 128,-1,70
 233 257 233 257 273 257 c 256,71,60
 313 257 313 257 339 280 c 128,-1,61
217 -17 m 2,72,73
 134 -17 134 -17 134 -62 c 0,74,75
 134 -90 134 -90 171 -105.5 c 128,-1,76
 208 -121 208 -121 283 -121 c 0,77,78
 353 -121 353 -121 390.5 -103.5 c 128,-1,79
 428 -86 428 -86 428 -59 c 0,80,81
 428 -38 428 -38 411 -27.5 c 128,-1,82
 394 -17 394 -17 353 -17 c 2,83,-1
 217 -17 l 2,72,73
EndSplineSet
Validated: 33
Substitution2: "'ss01' Style Set 1 lookup 47 subtable" gbreve.ss01
Substitution2: "'salt' Stylistic Alternatives lookup 42 subtable" gbreve.ss01
Substitution2: "'smcp' Lowercase to Small Capitals lookup 12 subtable" gbreve.sc
AlternateSubs2: "'aalt' Access All Alternates lookup 1 subtable" gbreve.sc gbreve.ss01
EndChar

StartChar: h
Encoding: 104 104 208
Width: 619
GlyphClass: 2
Flags: W
LayerCount: 2
Back
Fore
SplineSet
500.5 463 m 128,-1,1
 550 416 550 416 550 328 c 2,2,-1
 550 0 l 1,3,-1
 413 0 l 1,4,-1
 413 288 l 2,5,6
 413 402 413 402 324 402 c 0,7,8
 276 402 276 402 242.5 368 c 128,-1,9
 209 334 209 334 209 264 c 2,10,-1
 209 0 l 1,11,-1
 72 0 l 1,12,-1
 72 719 l 1,13,-1
 209 719 l 1,14,-1
 209 415 l 1,15,16
 232 463 232 463 273.5 486.5 c 128,-1,17
 315 510 315 510 370 510 c 0,18,0
 451 510 451 510 500.5 463 c 128,-1,1
EndSplineSet
Validated: 1
Substitution2: "'smcp' Lowercase to Small Capitals lookup 12 subtable" h.sc
Substitution2: "'aalt' Access All Alternates lookup 0 subtable" h.sc
EndChar

StartChar: i
Encoding: 105 105 209
Width: 282
GlyphClass: 2
Flags: W
LayerCount: 2
Back
Fore
SplineSet
56 645 m 0,1,2
 56 719 56 719 141 719 c 256,3,4
 226 719 226 719 226 645 c 0,5,6
 226 572 226 572 141 572 c 256,7,0
 56 572 56 572 56 645 c 0,1,2
209 0 m 1,8,-1
 72 0 l 1,9,-1
 72 500 l 1,10,-1
 209 500 l 1,11,-1
 209 0 l 1,8,-1
EndSplineSet
Validated: 1
Substitution2: "'smcp' Lowercase to Small Capitals lookup 12 subtable" i.sc
Substitution2: "'locl' Localized Forms in Latin lookup 6 subtable" i.loclTRK
Substitution2: "'locl' Localized Forms in Latin lookup 5 subtable" i.loclTRK
Substitution2: "'locl' Localized Forms in Latin lookup 4 subtable" i.loclTRK
Substitution2: "'locl' Localized Forms in Latin lookup 3 subtable" i.loclTRK
Substitution2: "'locl' Localized Forms in Latin lookup 2 subtable" i.loclTRK
Substitution2: "'aalt' Access All Alternates lookup 0 subtable" i.sc
EndChar

StartChar: dotlessi
Encoding: 305 305 210
Width: 282
GlyphClass: 2
Flags: W
LayerCount: 2
Back
Fore
SplineSet
209 0 m 1,0,-1
 72 0 l 1,1,-1
 72 500 l 1,2,-1
 209 500 l 1,3,-1
 209 0 l 1,0,-1
EndSplineSet
Validated: 1
EndChar

StartChar: idieresis
Encoding: 239 239 213
Width: 282
GlyphClass: 2
Flags: W
LayerCount: 2
Back
Fore
SplineSet
-2 582.5 m 128,-1,1
 -21 601 -21 601 -21 635 c 256,2,3
 -21 669 -21 669 -2 687.5 c 128,-1,4
 17 706 17 706 51 706 c 256,5,6
 85 706 85 706 104 687.5 c 128,-1,7
 123 669 123 669 123 635 c 256,8,9
 123 601 123 601 104 582.5 c 128,-1,10
 85 564 85 564 51 564 c 256,11,0
 17 564 17 564 -2 582.5 c 128,-1,1
178 582.5 m 128,-1,13
 159 601 159 601 159 635 c 256,14,15
 159 669 159 669 178 687.5 c 128,-1,16
 197 706 197 706 231 706 c 256,17,18
 265 706 265 706 284 687.5 c 128,-1,19
 303 669 303 669 303 635 c 256,20,21
 303 601 303 601 284 582.5 c 128,-1,22
 265 564 265 564 231 564 c 256,23,12
 197 564 197 564 178 582.5 c 128,-1,13
209 0 m 1,24,-1
 72 0 l 1,25,-1
 72 500 l 1,26,-1
 209 500 l 1,27,-1
 209 0 l 1,24,-1
EndSplineSet
Validated: 1
Substitution2: "'smcp' Lowercase to Small Capitals lookup 12 subtable" idieresis.sc
Substitution2: "'aalt' Access All Alternates lookup 0 subtable" idieresis.sc
EndChar

StartChar: imacron
Encoding: 299 299 217
Width: 282
GlyphClass: 2
Flags: W
LayerCount: 2
Back
Fore
SplineSet
268 579 m 1,0,-1
 14 579 l 1,1,-1
 14 670 l 1,2,-1
 268 670 l 1,3,-1
 268 579 l 1,0,-1
209 0 m 1,4,-1
 72 0 l 1,5,-1
 72 500 l 1,6,-1
 209 500 l 1,7,-1
 209 0 l 1,4,-1
EndSplineSet
Validated: 1
Substitution2: "'smcp' Lowercase to Small Capitals lookup 12 subtable" imacron.sc
Substitution2: "'aalt' Access All Alternates lookup 0 subtable" imacron.sc
EndChar

StartChar: iogonek
Encoding: 303 303 218
Width: 282
GlyphClass: 2
Flags: W
LayerCount: 2
Back
Fore
SplineSet
56 645 m 0,1,2
 56 719 56 719 141 719 c 256,3,4
 226 719 226 719 226 645 c 0,5,6
 226 572 226 572 141 572 c 256,7,0
 56 572 56 572 56 645 c 0,1,2
233 -192 m 1,8,9
 196 -215 196 -215 135 -215 c 0,10,11
 77 -215 77 -215 41.5 -187 c 128,-1,12
 6 -159 6 -159 6 -109 c 0,13,14
 6 -41 6 -41 84 0 c 1,15,-1
 72 0 l 1,16,-1
 72 500 l 1,17,-1
 209 500 l 1,18,-1
 209 0 l 1,19,20
 154 -20 154 -20 129.5 -41 c 128,-1,21
 105 -62 105 -62 105 -89 c 0,22,23
 105 -110 105 -110 119 -122 c 128,-1,24
 133 -134 133 -134 159 -134 c 0,25,26
 190 -134 190 -134 211 -122 c 1,27,-1
 233 -192 l 1,8,9
EndSplineSet
Validated: 1
Substitution2: "'smcp' Lowercase to Small Capitals lookup 12 subtable" iogonek.sc
Substitution2: "'aalt' Access All Alternates lookup 0 subtable" iogonek.sc
EndChar

StartChar: j
Encoding: 106 106 219
Width: 281
GlyphClass: 2
Flags: W
LayerCount: 2
Back
Fore
SplineSet
204 699.5 m 128,-1,1
 226 680 226 680 226 645 c 256,2,3
 226 610 226 610 204 591 c 128,-1,4
 182 572 182 572 141 572 c 256,5,6
 100 572 100 572 78 591 c 128,-1,7
 56 610 56 610 56 645 c 256,8,9
 56 680 56 680 78 699.5 c 128,-1,10
 100 719 100 719 141 719 c 256,11,0
 182 719 182 719 204 699.5 c 128,-1,1
209 -37 m 2,12,13
 209 -130 209 -130 161 -172.5 c 128,-1,14
 113 -215 113 -215 31 -215 c 0,15,16
 -41 -215 -41 -215 -89 -183 c 1,17,-1
 -67 -85 l 1,18,19
 -40 -109 -40 -109 3 -109 c 0,20,21
 37 -109 37 -109 54.5 -89 c 128,-1,22
 72 -69 72 -69 72 -24 c 2,23,-1
 72 500 l 1,24,-1
 209 500 l 1,25,-1
 209 -37 l 2,12,13
EndSplineSet
Validated: 1
Substitution2: "'smcp' Lowercase to Small Capitals lookup 12 subtable" j.sc
Substitution2: "'aalt' Access All Alternates lookup 0 subtable" j.sc
EndChar

StartChar: k
Encoding: 107 107 220
Width: 602
GlyphClass: 2
Flags: W
AnchorPoint: "Anchor-0" 323 0 basechar 0
LayerCount: 2
Back
Fore
SplineSet
300 221 m 1,0,-1
 209 124 l 1,1,-1
 209 0 l 1,2,-1
 72 0 l 1,3,-1
 72 719 l 1,4,-1
 209 719 l 1,5,-1
 209 272 l 1,6,-1
 426 500 l 1,7,-1
 581 500 l 1,8,-1
 393 304 l 1,9,-1
 593 0 l 1,10,-1
 438 0 l 1,11,-1
 300 221 l 1,0,-1
EndSplineSet
Validated: 1
Substitution2: "'smcp' Lowercase to Small Capitals lookup 12 subtable" k.sc
Substitution2: "'aalt' Access All Alternates lookup 0 subtable" k.sc
EndChar

StartChar: l
Encoding: 108 108 221
Width: 277
GlyphClass: 2
Flags: W
LayerCount: 2
Back
Fore
SplineSet
70 0 m 1,0,-1
 70 719 l 1,1,-1
 207 719 l 1,2,-1
 207 0 l 1,3,-1
 70 0 l 1,0,-1
EndSplineSet
Substitution2: "'ss02' Style Set 2 lookup 48 subtable" l.ss02
Substitution2: "'salt' Stylistic Alternatives lookup 42 subtable" l.ss02
Substitution2: "'smcp' Lowercase to Small Capitals lookup 12 subtable" l.sc
AlternateSubs2: "'aalt' Access All Alternates lookup 1 subtable" l.sc l.ss02
Position2: "Single Positioning lookup 6 per glyph data 0" dx=0 dy=0 dh=-40 dv=0
EndChar

StartChar: lacute
Encoding: 314 314 222
Width: 325
GlyphClass: 2
Flags: W
AnchorPoint: "Anchor-0" 199 0 basechar 0
LayerCount: 2
Back
Fore
SplineSet
259 924 m 1,0,-1
 187 779 l 1,1,-1
 85 779 l 1,2,-1
 130 924 l 1,3,-1
 259 924 l 1,0,-1
207 159 m 2,4,5
 207 123 207 123 217.5 109 c 128,-1,6
 228 95 228 95 256 95 c 0,7,8
 273 95 273 95 285.5 97.5 c 128,-1,9
 298 100 298 100 315 106 c 1,10,-1
 303 11 l 1,11,12
 287 1 287 1 261 -4.5 c 128,-1,13
 235 -10 235 -10 210 -10 c 0,14,15
 137 -10 137 -10 103.5 25.5 c 128,-1,16
 70 61 70 61 70 139 c 2,17,-1
 70 719 l 1,18,-1
 207 719 l 1,19,-1
 207 159 l 2,4,5
EndSplineSet
Validated: 1
Substitution2: "'ss02' Style Set 2 lookup 48 subtable" lacute.ss02
Substitution2: "'salt' Stylistic Alternatives lookup 42 subtable" lacute.ss02
Substitution2: "'smcp' Lowercase to Small Capitals lookup 12 subtable" lacute.sc
AlternateSubs2: "'aalt' Access All Alternates lookup 1 subtable" lacute.sc lacute.ss02
EndChar

StartChar: lcaron
Encoding: 318 318 223
Width: 363
GlyphClass: 2
Flags: W
AnchorPoint: "Anchor-0" 199 0 basechar 0
LayerCount: 2
Back
Fore
SplineSet
334 495 m 1,0,-1
 252 495 l 1,1,-1
 273 719 l 1,2,-1
 383 719 l 1,3,-1
 334 495 l 1,0,-1
207 159 m 2,4,5
 207 123 207 123 217.5 109 c 128,-1,6
 228 95 228 95 256 95 c 0,7,8
 273 95 273 95 285.5 97.5 c 128,-1,9
 298 100 298 100 315 106 c 1,10,-1
 303 11 l 1,11,12
 287 1 287 1 261 -4.5 c 128,-1,13
 235 -10 235 -10 210 -10 c 0,14,15
 137 -10 137 -10 103.5 25.5 c 128,-1,16
 70 61 70 61 70 139 c 2,17,-1
 70 719 l 1,18,-1
 207 719 l 1,19,-1
 207 159 l 2,4,5
EndSplineSet
Validated: 1
Substitution2: "'ss02' Style Set 2 lookup 48 subtable" lcaron.ss02
Substitution2: "'salt' Stylistic Alternatives lookup 42 subtable" lcaron.ss02
Substitution2: "'smcp' Lowercase to Small Capitals lookup 12 subtable" lcaron.sc
AlternateSubs2: "'aalt' Access All Alternates lookup 1 subtable" lcaron.sc lcaron.ss02
EndChar

StartChar: lslash
Encoding: 322 322 225
Width: 386
GlyphClass: 2
Flags: W
AnchorPoint: "Anchor-0" 242 0 basechar 0
LayerCount: 2
Back
Fore
SplineSet
250 338 m 1,0,-1
 250 159 l 2,1,2
 250 123 250 123 260.5 109 c 128,-1,3
 271 95 271 95 299 95 c 0,4,5
 316 95 316 95 328.5 97.5 c 128,-1,6
 341 100 341 100 358 106 c 1,7,-1
 346 11 l 1,8,9
 330 1 330 1 304.5 -4.5 c 128,-1,10
 279 -10 279 -10 253 -10 c 0,11,12
 180 -10 180 -10 146.5 25.5 c 128,-1,13
 113 61 113 61 113 139 c 2,14,-1
 113 255 l 1,15,-1
 23 197 l 1,16,-1
 23 306 l 1,17,-1
 113 354 l 1,18,-1
 113 719 l 1,19,-1
 250 719 l 1,20,-1
 250 435 l 1,21,-1
 360 507 l 1,22,-1
 360 397 l 1,23,-1
 250 338 l 1,0,-1
EndSplineSet
Validated: 1
Substitution2: "'ss02' Style Set 2 lookup 48 subtable" lslash.ss02
Substitution2: "'salt' Stylistic Alternatives lookup 42 subtable" lslash.ss02
Substitution2: "'smcp' Lowercase to Small Capitals lookup 12 subtable" lslash.sc
AlternateSubs2: "'aalt' Access All Alternates lookup 1 subtable" lslash.sc lslash.ss02
EndChar

StartChar: m
Encoding: 109 109 226
Width: 945
GlyphClass: 2
Flags: W
LayerCount: 2
Back
Fore
SplineSet
825.5 463 m 128,-1,1
 876 416 876 416 876 328 c 2,2,-1
 876 0 l 1,3,-1
 739 0 l 1,4,-1
 739 301 l 2,5,6
 739 353 739 353 716 377.5 c 128,-1,7
 693 402 693 402 653 402 c 0,8,9
 605 402 605 402 574 367 c 128,-1,10
 543 332 543 332 543 269 c 2,11,-1
 543 0 l 1,12,-1
 406 0 l 1,13,-1
 406 301 l 2,14,15
 406 353 406 353 383 377.5 c 128,-1,16
 360 402 360 402 319 402 c 0,17,18
 274 402 274 402 241.5 367.5 c 128,-1,19
 209 333 209 333 209 265 c 2,20,-1
 209 0 l 1,21,-1
 72 0 l 1,22,-1
 72 500 l 1,23,-1
 195 500 l 1,24,-1
 199 411 l 1,25,26
 224 460 224 460 267.5 485 c 128,-1,27
 311 510 311 510 365 510 c 0,28,29
 421 510 421 510 464.5 484 c 128,-1,30
 508 458 508 458 528 409 c 1,31,32
 552 458 552 458 598 484 c 128,-1,33
 644 510 644 510 698 510 c 0,34,0
 775 510 775 510 825.5 463 c 128,-1,1
EndSplineSet
Validated: 1
Substitution2: "'smcp' Lowercase to Small Capitals lookup 12 subtable" m.sc
Substitution2: "'aalt' Access All Alternates lookup 0 subtable" m.sc
EndChar

StartChar: n
Encoding: 110 110 227
Width: 619
GlyphClass: 2
Flags: W
AnchorPoint: "Anchor-0" 327 0 basechar 0
LayerCount: 2
Back
Fore
SplineSet
500.5 463 m 128,-1,1
 550 416 550 416 550 328 c 2,2,-1
 550 0 l 1,3,-1
 413 0 l 1,4,-1
 413 288 l 2,5,6
 413 402 413 402 324 402 c 0,7,8
 276 402 276 402 242.5 368 c 128,-1,9
 209 334 209 334 209 264 c 2,10,-1
 209 0 l 1,11,-1
 72 0 l 1,12,-1
 72 500 l 1,13,-1
 195 500 l 1,14,-1
 199 411 l 1,15,16
 224 460 224 460 268 485 c 128,-1,17
 312 510 312 510 370 510 c 0,18,0
 451 510 451 510 500.5 463 c 128,-1,1
EndSplineSet
Validated: 1
Substitution2: "Single Substitution lookup 57 subtable" n.swsh
Substitution2: "'swsh' Swash lookup 38 subtable" n.swsh
Substitution2: "'smcp' Lowercase to Small Capitals lookup 12 subtable" n.sc
AlternateSubs2: "'aalt' Access All Alternates lookup 1 subtable" n.sc n.swsh
EndChar

StartChar: o
Encoding: 111 111 231
Width: 604
GlyphClass: 2
Flags: W
LayerCount: 2
Back
Fore
SplineSet
490.5 441 m 128,-1,1
 558 372 558 372 558 250 c 256,2,3
 558 128 558 128 490.5 59 c 128,-1,4
 423 -10 423 -10 302 -10 c 256,5,6
 181 -10 181 -10 113.5 59 c 128,-1,7
 46 128 46 128 46 250 c 256,8,9
 46 372 46 372 113.5 441 c 128,-1,10
 181 510 181 510 302 510 c 256,11,0
 423 510 423 510 490.5 441 c 128,-1,1
213.5 368.5 m 128,-1,13
 183 329 183 329 183 250 c 256,14,15
 183 171 183 171 213.5 131.5 c 128,-1,16
 244 92 244 92 302 92 c 256,17,18
 360 92 360 92 390.5 131.5 c 128,-1,19
 421 171 421 171 421 250 c 256,20,21
 421 329 421 329 390.5 368.5 c 128,-1,22
 360 408 360 408 302 408 c 256,23,12
 244 408 244 408 213.5 368.5 c 128,-1,13
EndSplineSet
Validated: 1
Substitution2: "Single Substitution lookup 55 subtable" ordmasculine
Substitution2: "'smcp' Lowercase to Small Capitals lookup 12 subtable" o.sc
AlternateSubs2: "'aalt' Access All Alternates lookup 1 subtable" o.sc ordmasculine
EndChar

StartChar: oslash
Encoding: 248 248 238
Width: 605
GlyphClass: 2
Flags: W
LayerCount: 2
Back
Fore
SplineSet
451 472 m 1,1,-1
 490 522 l 1,2,-1
 557 522 l 1,3,-1
 492 439 l 1,4,5
 558 371 558 371 558 250 c 0,6,7
 558 128 558 128 490.5 59 c 128,-1,8
 423 -10 423 -10 302 -10 c 0,9,10
 220 -10 220 -10 162 22 c 1,11,-1
 122 -31 l 1,12,-1
 55 -31 l 1,13,-1
 119 54 l 1,14,15
 83 87 83 87 64.5 137 c 128,-1,16
 46 187 46 187 46 250 c 0,17,18
 46 372 46 372 113.5 441 c 128,-1,19
 181 510 181 510 302 510 c 0,20,0
 390 510 390 510 451 472 c 1,1,-1
207 156 m 1,21,-1
 235 196 l 1,22,-1
 376 383 l 1,23,24
 348 408 348 408 302 408 c 0,25,26
 244 408 244 408 213.5 368.5 c 128,-1,27
 183 329 183 329 183 250 c 0,28,29
 183 194 183 194 206 156 c 1,30,-1
 207 156 l 1,21,-1
390.5 131.5 m 128,-1,32
 421 171 421 171 421 250 c 0,33,34
 421 301 421 301 402 333 c 1,35,-1
 401 333 l 1,36,-1
 376 296 l 1,37,-1
 236 111 l 1,38,39
 261 92 261 92 302 92 c 0,40,31
 360 92 360 92 390.5 131.5 c 128,-1,32
EndSplineSet
Validated: 1
Substitution2: "'smcp' Lowercase to Small Capitals lookup 12 subtable" oslash.sc
Substitution2: "'aalt' Access All Alternates lookup 0 subtable" oslash.sc
EndChar

StartChar: oe
Encoding: 339 339 240
Width: 967
GlyphClass: 2
Flags: W
LayerCount: 2
Back
Fore
SplineSet
917 215 m 1,1,-1
 563 215 l 1,2,3
 578 92 578 92 690 92 c 0,4,5
 733 92 733 92 761.5 108 c 128,-1,6
 790 124 790 124 800 154 c 1,7,-1
 912 113 l 1,8,9
 888 53 888 53 831.5 21.5 c 128,-1,10
 775 -10 775 -10 690 -10 c 0,11,12
 624 -10 624 -10 574.5 14.5 c 128,-1,13
 525 39 525 39 496 86 c 1,14,15
 466 39 466 39 416 14.5 c 128,-1,16
 366 -10 366 -10 299 -10 c 0,17,18
 181 -10 181 -10 113.5 59 c 128,-1,19
 46 128 46 128 46 250 c 256,20,21
 46 372 46 372 113.5 441 c 128,-1,22
 181 510 181 510 299 510 c 0,23,24
 366 510 366 510 415.5 485.5 c 128,-1,25
 465 461 465 461 495 415 c 1,26,27
 524 461 524 461 571 485.5 c 128,-1,28
 618 510 618 510 682 510 c 0,29,30
 758 510 758 510 812.5 479.5 c 128,-1,31
 867 449 867 449 894.5 395 c 128,-1,32
 922 341 922 341 922 272 c 0,33,0
 922 237 922 237 917 215 c 1,1,-1
601.5 379 m 128,-1,35
 571 349 571 349 564 291 c 1,36,-1
 792 291 l 1,37,38
 785 348 785 348 757.5 378.5 c 128,-1,39
 730 409 730 409 682 409 c 0,40,34
 632 409 632 409 601.5 379 c 128,-1,35
392.5 131.5 m 128,-1,42
 423 171 423 171 423 250 c 256,43,44
 423 329 423 329 392.5 368.5 c 128,-1,45
 362 408 362 408 304 408 c 0,46,47
 186 408 186 408 186 250 c 256,48,49
 186 92 186 92 304 92 c 0,50,41
 362 92 362 92 392.5 131.5 c 128,-1,42
EndSplineSet
Validated: 1
Substitution2: "'smcp' Lowercase to Small Capitals lookup 12 subtable" oe.sc
Substitution2: "'aalt' Access All Alternates lookup 0 subtable" oe.sc
EndChar

StartChar: p
Encoding: 112 112 241
Width: 629
GlyphClass: 2
Flags: W
LayerCount: 2
Back
Fore
SplineSet
523 441.5 m 128,-1,1
 580 373 580 373 580 251 c 0,2,3
 580 128 580 128 523 59 c 128,-1,4
 466 -10 466 -10 366 -10 c 0,5,6
 312 -10 312 -10 272 14.5 c 128,-1,7
 232 39 232 39 209 82 c 1,8,-1
 209 -210 l 1,9,-1
 72 -210 l 1,10,-1
 72 500 l 1,11,-1
 193 500 l 1,12,-1
 198 401 l 1,13,14
 220 451 220 451 263.5 480.5 c 128,-1,15
 307 510 307 510 366 510 c 0,16,0
 466 510 466 510 523 441.5 c 128,-1,1
412 135 m 128,-1,18
 443 175 443 175 443 250 c 256,19,20
 443 325 443 325 412 365 c 128,-1,21
 381 405 381 405 325 405 c 0,22,23
 275 405 275 405 244 370.5 c 128,-1,24
 213 336 213 336 209 272 c 1,25,-1
 209 228 l 1,26,27
 213 165 213 165 244 130 c 128,-1,28
 275 95 275 95 325 95 c 0,29,17
 381 95 381 95 412 135 c 128,-1,18
EndSplineSet
Validated: 1
Substitution2: "'smcp' Lowercase to Small Capitals lookup 12 subtable" p.sc
Substitution2: "'aalt' Access All Alternates lookup 0 subtable" p.sc
EndChar

StartChar: thorn
Encoding: 254 254 242
Width: 629
GlyphClass: 2
Flags: W
LayerCount: 2
Back
Fore
SplineSet
522 443.5 m 128,-1,1
 580 377 580 377 580 253 c 0,2,3
 580 164 580 164 551 105 c 128,-1,4
 522 46 522 46 473.5 18 c 128,-1,5
 425 -10 425 -10 366 -10 c 0,6,7
 313 -10 313 -10 272.5 12.5 c 128,-1,8
 232 35 232 35 209 74 c 1,9,-1
 209 -210 l 1,10,-1
 72 -210 l 1,11,-1
 72 719 l 1,12,-1
 209 719 l 1,13,-1
 209 420 l 1,14,15
 233 462 233 462 273.5 486 c 128,-1,16
 314 510 314 510 369 510 c 0,17,0
 464 510 464 510 522 443.5 c 128,-1,1
412.5 134.5 m 128,-1,19
 443 174 443 174 443 250 c 256,20,21
 443 326 443 326 412.5 365.5 c 128,-1,22
 382 405 382 405 325 405 c 0,23,24
 272 405 272 405 240.5 366 c 128,-1,25
 209 327 209 327 209 255 c 2,26,-1
 209 245 l 2,27,28
 209 174 209 174 240 134.5 c 128,-1,29
 271 95 271 95 325 95 c 0,30,18
 382 95 382 95 412.5 134.5 c 128,-1,19
EndSplineSet
Validated: 1
Substitution2: "'smcp' Lowercase to Small Capitals lookup 12 subtable" thorn.sc
Substitution2: "'aalt' Access All Alternates lookup 0 subtable" thorn.sc
EndChar

StartChar: q
Encoding: 113 113 243
Width: 629
GlyphClass: 2
Flags: W
LayerCount: 2
Back
Fore
SplineSet
557 500 m 1,0,-1
 557 -210 l 1,1,-1
 420 -210 l 1,2,-1
 420 83 l 1,3,4
 398 40 398 40 357.5 15 c 128,-1,5
 317 -10 317 -10 264 -10 c 0,6,7
 164 -10 164 -10 106.5 59 c 128,-1,8
 49 128 49 128 49 251 c 0,9,10
 49 373 49 373 106 441.5 c 128,-1,11
 163 510 163 510 263 510 c 0,12,13
 321 510 321 510 365 480.5 c 128,-1,14
 409 451 409 451 431 402 c 1,15,-1
 437 500 l 1,16,-1
 557 500 l 1,0,-1
389 134.5 m 128,-1,18
 420 174 420 174 420 245 c 2,19,-1
 420 255 l 2,20,21
 420 327 420 327 389 366 c 128,-1,22
 358 405 358 405 304 405 c 0,23,24
 249 405 249 405 218 365.5 c 128,-1,25
 187 326 187 326 187 250 c 256,26,27
 187 174 187 174 218 134.5 c 128,-1,28
 249 95 249 95 304 95 c 0,29,17
 358 95 358 95 389 134.5 c 128,-1,18
EndSplineSet
Validated: 1
Substitution2: "'smcp' Lowercase to Small Capitals lookup 12 subtable" q.sc
Substitution2: "'aalt' Access All Alternates lookup 0 subtable" q.sc
EndChar

StartChar: r
Encoding: 114 114 244
Width: 422
GlyphClass: 2
Flags: W
AnchorPoint: "Anchor-0" 149 0 basechar 0
LayerCount: 2
Back
Fore
SplineSet
409 499 m 1,1,-1
 392 379 l 1,2,3
 369 394 369 394 329 394 c 0,4,5
 280 394 280 394 244.5 358.5 c 128,-1,6
 209 323 209 323 209 259 c 2,7,-1
 209 0 l 1,8,-1
 72 0 l 1,9,-1
 72 500 l 1,10,-1
 191 500 l 1,11,-1
 200 402 l 1,12,13
 241 510 241 510 355 510 c 0,14,0
 390 510 390 510 409 499 c 1,1,-1
EndSplineSet
Validated: 1
Substitution2: "Single Substitution lookup 57 subtable" r.swsh
Substitution2: "'swsh' Swash lookup 38 subtable" r.swsh
Substitution2: "'smcp' Lowercase to Small Capitals lookup 12 subtable" r.sc
AlternateSubs2: "'aalt' Access All Alternates lookup 1 subtable" r.sc r.swsh
EndChar

StartChar: s
Encoding: 115 115 247
Width: 531
GlyphClass: 2
Flags: W
AnchorPoint: "Anchor-0" 277 0 basechar 0
LayerCount: 2
Back
Fore
SplineSet
34 86 m 1,1,-1
 114 168 l 1,2,3
 134 125 134 125 171.5 107.5 c 128,-1,4
 209 90 209 90 264 90 c 0,5,6
 308 90 308 90 332 102 c 128,-1,7
 356 114 356 114 356 135 c 0,8,9
 356 152 356 152 333.5 164 c 128,-1,10
 311 176 311 176 256 187 c 0,11,12
 141 210 141 210 94.5 247.5 c 128,-1,13
 48 285 48 285 48 349 c 0,14,15
 48 391 48 391 74 428 c 128,-1,16
 100 465 100 465 151 487.5 c 128,-1,17
 202 510 202 510 273 510 c 0,18,19
 357 510 357 510 409 484.5 c 128,-1,20
 461 459 461 459 496 404 c 1,21,-1
 411 332 l 1,22,23
 389 372 389 372 356.5 391 c 128,-1,24
 324 410 324 410 275 410 c 0,25,26
 234 410 234 410 209.5 396 c 128,-1,27
 185 382 185 382 185 362 c 0,28,29
 185 341 185 341 209 327 c 128,-1,30
 233 313 233 313 294 301 c 0,31,32
 403 279 403 279 448.5 243.5 c 128,-1,33
 494 208 494 208 494 145 c 0,34,35
 494 75 494 75 434.5 32.5 c 128,-1,36
 375 -10 375 -10 266 -10 c 0,37,0
 99 -10 99 -10 34 86 c 1,1,-1
EndSplineSet
Validated: 1
Substitution2: "'hist' Historical Forms lookup 44 subtable" longs
Substitution2: "'smcp' Lowercase to Small Capitals lookup 12 subtable" s.sc
AlternateSubs2: "'aalt' Access All Alternates lookup 1 subtable" s.sc longs
EndChar

StartChar: germandbls
Encoding: 223 223 250
Width: 637
GlyphClass: 2
Flags: W
LayerCount: 2
Back
Fore
SplineSet
512 348.5 m 128,-1,1
 553 323 553 323 573.5 280.5 c 128,-1,2
 594 238 594 238 594 189 c 0,3,4
 594 136 594 136 569.5 90.5 c 128,-1,5
 545 45 545 45 495 17.5 c 128,-1,6
 445 -10 445 -10 373 -10 c 0,7,8
 337 -10 337 -10 306 -1 c 128,-1,9
 275 8 275 8 256 23 c 1,10,-1
 282 118 l 1,11,12
 309 94 309 94 356 94 c 0,13,14
 406 94 406 94 434 125 c 128,-1,15
 462 156 462 156 462 207 c 0,16,17
 462 260 462 260 428 288 c 128,-1,18
 394 316 394 316 330 316 c 2,19,-1
 285 316 l 1,20,-1
 296 420 l 1,21,-1
 330 420 l 2,22,23
 381 420 381 420 410 448.5 c 128,-1,24
 439 477 439 477 439 522 c 0,25,26
 439 569 439 569 411.5 593.5 c 128,-1,27
 384 618 384 618 332 618 c 0,28,29
 264 618 264 618 236.5 579.5 c 128,-1,30
 209 541 209 541 209 457 c 2,31,-1
 209 0 l 1,32,-1
 72 0 l 1,33,-1
 72 474 l 2,34,35
 72 594 72 594 134 659 c 128,-1,36
 196 724 196 724 337 724 c 0,37,38
 416 724 416 724 469 697.5 c 128,-1,39
 522 671 522 671 548 627.5 c 128,-1,40
 574 584 574 584 574 533 c 0,41,42
 574 494 574 494 555.5 458 c 128,-1,43
 537 422 537 422 500.5 399 c 128,-1,44
 464 376 464 376 411 376 c 1,45,-1
 411 374 l 1,46,0
 471 374 471 374 512 348.5 c 128,-1,1
EndSplineSet
Validated: 1
Substitution2: "Single Substitution lookup 57 subtable" germandbls.calt
Substitution2: "'smcp' Lowercase to Small Capitals lookup 12 subtable" germandbls.sc
AlternateSubs2: "'aalt' Access All Alternates lookup 1 subtable" germandbls.sc germandbls.calt
EndChar

StartChar: longs
Encoding: 383 383 251
Width: 301
GlyphClass: 2
Flags: W
LayerCount: 2
Back
Fore
SplineSet
70 560 m 2,0,1
 70 643 70 643 115 686 c 128,-1,2
 160 729 160 729 240 729 c 0,3,4
 303 729 303 729 330 705 c 1,5,-1
 318 614 l 1,6,7
 299 627 299 627 274 627 c 0,8,9
 204 627 204 627 204 549 c 2,10,-1
 204 0 l 1,11,-1
 70 0 l 1,12,-1
 70 560 l 2,0,1
EndSplineSet
Validated: 1
EndChar

StartChar: t
Encoding: 116 116 252
Width: 429
GlyphClass: 2
Flags: W
AnchorPoint: "Anchor-0" 254 0 basechar 0
LayerCount: 2
Back
Fore
SplineSet
20 420 m 5,0,-1
 248 653 l 1,1,-1
 248 500 l 1,2,-1
 410 500 l 1,3,-1
 410 398 l 1,4,-1
 248 398 l 1,5,-1
 248 163 l 2,6,7
 248 94 248 94 317 94 c 0,8,9
 361 94 361 94 394 122 c 1,10,-1
 415 31 l 1,11,12
 391 12 391 12 354.5 1 c 128,-1,13
 318 -10 318 -10 278 -10 c 0,14,15
 111 -10 111 -10 111 141 c 2,16,-1
 111 398 l 1,17,-1
 20 398 l 1,18,-1
 20 420 l 5,0,-1
EndSplineSet
Substitution2: "Single Substitution lookup 57 subtable" t.swsh
Substitution2: "'swsh' Swash lookup 38 subtable" t.swsh
Substitution2: "'smcp' Lowercase to Small Capitals lookup 12 subtable" t.sc
AlternateSubs2: "'aalt' Access All Alternates lookup 1 subtable" t.sc t.swsh
EndChar

StartChar: tcaron
Encoding: 357 357 253
Width: 429
GlyphClass: 2
Flags: W
AnchorPoint: "Anchor-0" 254 0 basechar 0
LayerCount: 2
Back
Fore
SplineSet
382 556 m 1,0,-1
 300 556 l 1,1,-1
 321 767 l 1,2,-1
 431 767 l 1,3,-1
 382 556 l 1,0,-1
394 122 m 1,5,-1
 415 31 l 1,6,7
 391 12 391 12 354.5 1 c 128,-1,8
 318 -10 318 -10 278 -10 c 0,9,10
 111 -10 111 -10 111 141 c 2,11,-1
 111 398 l 1,12,-1
 20 398 l 1,13,-1
 20 500 l 1,14,-1
 111 500 l 1,15,-1
 111 615 l 1,16,-1
 248 653 l 1,17,-1
 248 500 l 1,18,-1
 410 500 l 1,19,-1
 410 398 l 1,20,-1
 248 398 l 1,21,-1
 248 163 l 2,22,23
 248 94 248 94 317 94 c 0,24,4
 361 94 361 94 394 122 c 1,5,-1
EndSplineSet
Validated: 1
Substitution2: "Single Substitution lookup 57 subtable" tcaron.swsh
Substitution2: "'swsh' Swash lookup 38 subtable" tcaron.swsh
Substitution2: "'smcp' Lowercase to Small Capitals lookup 12 subtable" tcaron.sc
AlternateSubs2: "'aalt' Access All Alternates lookup 1 subtable" tcaron.sc tcaron.swsh
EndChar

StartChar: u
Encoding: 117 117 254
Width: 619
GlyphClass: 2
Flags: W
LayerCount: 2
Back
Fore
SplineSet
547 500 m 1,0,-1
 547 0 l 1,1,-1
 425 0 l 1,2,-1
 420 86 l 1,3,4
 372 -10 372 -10 245 -10 c 0,5,6
 164 -10 164 -10 116.5 33.5 c 128,-1,7
 69 77 69 77 69 169 c 2,8,-1
 69 500 l 1,9,-1
 206 500 l 1,10,-1
 206 204 l 2,11,12
 206 146 206 146 228 122 c 128,-1,13
 250 98 250 98 293 98 c 0,14,15
 345 98 345 98 377.5 131.5 c 128,-1,16
 410 165 410 165 410 232 c 2,17,-1
 410 500 l 1,18,-1
 547 500 l 1,0,-1
EndSplineSet
Validated: 1
Substitution2: "'smcp' Lowercase to Small Capitals lookup 12 subtable" u.sc
Substitution2: "'aalt' Access All Alternates lookup 0 subtable" u.sc
EndChar

StartChar: uni0123
Encoding: 291 291 261
Width: 549
GlyphClass: 2
Flags: W
LayerCount: 2
Back
Fore
SplineSet
336 572 m 1,0,-1
 213 572 l 1,1,-1
 284 774 l 1,2,-1
 374 774 l 1,3,-1
 336 572 l 1,0,-1
502.5 58 m 128,-1,5
 547 22 547 22 547 -45 c 0,6,7
 547 -125 547 -125 473 -170 c 128,-1,8
 399 -215 399 -215 278 -215 c 0,9,10
 153 -215 153 -215 92.5 -182 c 128,-1,11
 32 -149 32 -149 32 -92 c 0,12,13
 32 -58 32 -58 55 -33 c 128,-1,14
 78 -8 78 -8 123 3 c 1,15,16
 89 17 89 17 69 42.5 c 128,-1,17
 49 68 49 68 49 103 c 0,18,19
 49 139 49 139 70 165 c 128,-1,20
 91 191 91 191 128 204 c 1,21,22
 90 226 90 226 70 260.5 c 128,-1,23
 50 295 50 295 50 340 c 0,24,25
 50 419 50 419 111.5 464.5 c 128,-1,26
 173 510 173 510 279 510 c 0,27,28
 333 510 333 510 380 497 c 1,29,30
 393 556 393 556 430.5 589.5 c 128,-1,31
 468 623 468 623 532 619 c 1,32,-1
 550 521 l 1,33,34
 543 522 543 522 529 522 c 0,35,36
 492 522 492 522 467.5 509 c 128,-1,37
 443 496 443 496 433 474 c 1,38,39
 470 452 470 452 489.5 418 c 128,-1,40
 509 384 509 384 509 340 c 0,41,42
 509 262 509 262 447.5 216.5 c 128,-1,43
 386 171 386 171 279 171 c 0,44,45
 230 171 230 171 189 180 c 1,46,47
 150 170 150 170 150 135 c 0,48,49
 150 115 150 115 165 104.5 c 128,-1,50
 180 94 180 94 207 94 c 2,51,-1
 376 94 l 2,52,4
 458 94 458 94 502.5 58 c 128,-1,5
213.5 401 m 128,-1,54
 188 378 188 378 188 341 c 0,55,56
 188 303 188 303 213.5 280 c 128,-1,57
 239 257 239 257 279 257 c 0,58,59
 320 257 320 257 345.5 280 c 128,-1,60
 371 303 371 303 371 341 c 0,61,62
 371 378 371 378 345.5 401 c 128,-1,63
 320 424 320 424 279 424 c 0,64,53
 239 424 239 424 213.5 401 c 128,-1,54
397 -103.5 m 128,-1,66
 435 -86 435 -86 435 -59 c 0,67,68
 435 -38 435 -38 417.5 -27.5 c 128,-1,69
 400 -17 400 -17 360 -17 c 2,70,-1
 224 -17 l 2,71,72
 141 -17 141 -17 141 -62 c 0,73,74
 141 -90 141 -90 178 -105.5 c 128,-1,75
 215 -121 215 -121 289 -121 c 0,76,65
 359 -121 359 -121 397 -103.5 c 128,-1,66
EndSplineSet
Validated: 33
Substitution2: "'ss01' Style Set 1 lookup 47 subtable" gcommaaccent.ss01
Substitution2: "'salt' Stylistic Alternatives lookup 42 subtable" gcommaaccent.ss01
Substitution2: "'aalt' Access All Alternates lookup 0 subtable" gcommaaccent.ss01
EndChar

StartChar: uni015F
Encoding: 351 351 266
Width: 531
GlyphClass: 2
Flags: W
AnchorPoint: "Anchor-0" 277 0 basechar 0
LayerCount: 2
Back
Fore
SplineSet
448.5 243.5 m 128,-1,1
 494 208 494 208 494 145 c 0,2,3
 494 88 494 88 454 48.5 c 128,-1,4
 414 9 414 9 339 -4 c 1,5,6
 366 -23 366 -23 380.5 -48.5 c 128,-1,7
 395 -74 395 -74 395 -101 c 0,8,9
 395 -154 395 -154 358.5 -184.5 c 128,-1,10
 322 -215 322 -215 262 -215 c 0,11,12
 184 -215 184 -215 143 -177 c 1,13,-1
 179 -106 l 1,14,15
 192 -120 192 -120 210.5 -128 c 128,-1,16
 229 -136 229 -136 250 -136 c 0,17,18
 274 -136 274 -136 289.5 -121.5 c 128,-1,19
 305 -107 305 -107 305 -83 c 256,20,21
 305 -59 305 -59 290 -42 c 128,-1,22
 275 -25 275 -25 236 -9 c 1,23,24
 92 -1 92 -1 34 86 c 1,25,-1
 114 168 l 1,26,27
 134 125 134 125 171.5 107.5 c 128,-1,28
 209 90 209 90 264 90 c 0,29,30
 308 90 308 90 332 102 c 128,-1,31
 356 114 356 114 356 135 c 0,32,33
 356 152 356 152 333.5 164 c 128,-1,34
 311 176 311 176 256 187 c 0,35,36
 141 210 141 210 94.5 247.5 c 128,-1,37
 48 285 48 285 48 349 c 0,38,39
 48 391 48 391 74 428 c 128,-1,40
 100 465 100 465 151 487.5 c 128,-1,41
 202 510 202 510 273 510 c 0,42,43
 357 510 357 510 409 484.5 c 128,-1,44
 461 459 461 459 496 404 c 1,45,-1
 411 332 l 1,46,47
 389 372 389 372 356.5 391 c 128,-1,48
 324 410 324 410 275 410 c 0,49,50
 234 410 234 410 209.5 396 c 128,-1,51
 185 382 185 382 185 362 c 0,52,53
 185 341 185 341 209 327 c 128,-1,54
 233 313 233 313 294 301 c 0,55,0
 403 279 403 279 448.5 243.5 c 128,-1,1
EndSplineSet
Validated: 1
Substitution2: "'locl' Localized Forms in Latin lookup 8 subtable" uni0219
Substitution2: "'locl' Localized Forms in Latin lookup 7 subtable" uni0219
EndChar

StartChar: uni0163
Encoding: 355 355 267
Width: 441
GlyphClass: 2
Flags: W
AnchorPoint: "Anchor-0" 254 0 basechar 0
LayerCount: 2
Back
Fore
SplineSet
364.5 -50 m 128,-1,1
 378 -75 378 -75 378 -101 c 0,2,3
 378 -154 378 -154 341.5 -184.5 c 128,-1,4
 305 -215 305 -215 245 -215 c 0,5,6
 167 -215 167 -215 126 -177 c 1,7,-1
 162 -106 l 1,8,9
 174 -119 174 -119 192 -127.5 c 128,-1,10
 210 -136 210 -136 231 -136 c 0,11,12
 257 -136 257 -136 272.5 -122 c 128,-1,13
 288 -108 288 -108 288 -83 c 0,14,15
 288 -56 288 -56 271.5 -38.5 c 128,-1,16
 255 -21 255 -21 210 -2 c 1,17,18
 111 26 111 26 111 141 c 2,19,-1
 111 398 l 1,20,-1
 20 398 l 1,21,-1
 20 500 l 1,22,-1
 111 500 l 1,23,-1
 111 615 l 1,24,-1
 248 653 l 1,25,-1
 248 500 l 1,26,-1
 410 500 l 1,27,-1
 410 398 l 1,28,-1
 248 398 l 1,29,-1
 248 163 l 2,30,31
 248 94 248 94 317 94 c 0,32,33
 361 94 361 94 394 122 c 1,34,-1
 415 31 l 1,35,36
 381 3 381 3 326 -6 c 1,37,0
 351 -25 351 -25 364.5 -50 c 128,-1,1
EndSplineSet
Validated: 1
Substitution2: "Single Substitution lookup 57 subtable" uni0163.swsh
Substitution2: "'swsh' Swash lookup 38 subtable" uni0163.swsh
Substitution2: "'locl' Localized Forms in Latin lookup 8 subtable" uni021B
Substitution2: "'locl' Localized Forms in Latin lookup 7 subtable" uni021B
Substitution2: "'aalt' Access All Alternates lookup 0 subtable" uni0163.swsh
EndChar

StartChar: uogonek
Encoding: 371 371 270
Width: 619
GlyphClass: 2
Flags: W
LayerCount: 2
Back
Fore
SplineSet
555 -193 m 1,0,1
 520 -215 520 -215 460 -215 c 0,2,3
 402 -215 402 -215 369 -188 c 128,-1,4
 336 -161 336 -161 336 -112 c 0,5,6
 336 -73 336 -73 359 -44.5 c 128,-1,7
 382 -16 382 -16 428 4 c 1,8,-1
 419 96 l 1,9,10
 393 45 393 45 347 17.5 c 128,-1,11
 301 -10 301 -10 245 -10 c 0,12,13
 164 -10 164 -10 116.5 33.5 c 128,-1,14
 69 77 69 77 69 169 c 2,15,-1
 69 500 l 1,16,-1
 206 500 l 1,17,-1
 206 204 l 2,18,19
 206 146 206 146 227.5 122 c 128,-1,20
 249 98 249 98 290 98 c 0,21,22
 341 98 341 98 375.5 135.5 c 128,-1,23
 410 173 410 173 410 237 c 2,24,-1
 410 500 l 1,25,-1
 547 500 l 1,26,-1
 547 0 l 1,27,28
 488 -20 488 -20 460.5 -41.5 c 128,-1,29
 433 -63 433 -63 433 -89 c 0,30,31
 433 -111 433 -111 447 -122.5 c 128,-1,32
 461 -134 461 -134 485 -134 c 0,33,34
 516 -134 516 -134 535 -123 c 1,35,-1
 555 -193 l 1,0,1
EndSplineSet
Validated: 1
Substitution2: "'smcp' Lowercase to Small Capitals lookup 12 subtable" uogonek.sc
Substitution2: "'aalt' Access All Alternates lookup 0 subtable" uogonek.sc
EndChar

StartChar: v
Encoding: 118 118 272
Width: 546
GlyphClass: 2
Flags: W
LayerCount: 2
Back
Fore
SplineSet
542 500 m 1,0,-1
 352 0 l 1,1,-1
 194 0 l 1,2,-1
 4 500 l 1,3,-1
 151 500 l 1,4,-1
 274 96 l 1,5,-1
 400 500 l 1,6,-1
 542 500 l 1,0,-1
EndSplineSet
Validated: 1
Substitution2: "'smcp' Lowercase to Small Capitals lookup 12 subtable" v.sc
Substitution2: "'aalt' Access All Alternates lookup 0 subtable" v.sc
EndChar

StartChar: w
Encoding: 119 119 273
Width: 889
GlyphClass: 2
Flags: W
LayerCount: 2
Back
Fore
SplineSet
869 500 m 1,0,-1
 710 0 l 1,1,-1
 551 0 l 1,2,-1
 442 353 l 1,3,-1
 337 0 l 1,4,-1
 179 0 l 1,5,-1
 20 500 l 1,6,-1
 165 500 l 1,7,-1
 265 110 l 1,8,-1
 377 500 l 1,9,-1
 512 500 l 1,10,-1
 624 110 l 1,11,-1
 724 500 l 1,12,-1
 869 500 l 1,0,-1
EndSplineSet
Validated: 1
Substitution2: "'smcp' Lowercase to Small Capitals lookup 12 subtable" w.sc
Substitution2: "'aalt' Access All Alternates lookup 0 subtable" w.sc
EndChar

StartChar: x
Encoding: 120 120 274
Width: 569
GlyphClass: 2
Flags: W
LayerCount: 2
Back
Fore
SplineSet
395 0 m 1,0,-1
 282 182 l 1,1,-1
 167 0 l 1,2,-1
 14 0 l 1,3,-1
 198 253 l 1,4,-1
 23 500 l 1,5,-1
 181 500 l 1,6,-1
 288 325 l 1,7,-1
 395 500 l 1,8,-1
 549 500 l 1,9,-1
 372 253 l 1,10,-1
 552 0 l 1,11,-1
 395 0 l 1,0,-1
EndSplineSet
Validated: 1
Substitution2: "'smcp' Lowercase to Small Capitals lookup 12 subtable" x.sc
Substitution2: "'aalt' Access All Alternates lookup 0 subtable" x.sc
EndChar

StartChar: y
Encoding: 121 121 275
Width: 557
GlyphClass: 2
Flags: W
LayerCount: 2
Back
Fore
SplineSet
282 -229 m 8,0,-1
 132 -229 l 2,1,-1
 225 -7 l 1,2,-1
 170 123 l 1,3,-1
 17 500 l 1,4,-1
 169 500 l 1,5,-1
 263 200 l 1,6,-1
 290 100 l 1,7,-1
 320 206 l 1,8,-1
 412 500 l 1,9,-1
 551 500 l 1,10,-1
 282 -229 l 8,0,-1
EndSplineSet
Substitution2: "Single Substitution lookup 57 subtable" y.swsh
Substitution2: "'swsh' Swash lookup 38 subtable" y.swsh
Substitution2: "'smcp' Lowercase to Small Capitals lookup 12 subtable" y.sc
AlternateSubs2: "'aalt' Access All Alternates lookup 1 subtable" y.sc y.swsh
EndChar

StartChar: z
Encoding: 122 122 278
Width: 522
GlyphClass: 2
Flags: W
LayerCount: 2
Back
Fore
SplineSet
44 88 m 1,0,-1
 265 344 l 1,1,-1
 322 401 l 1,2,-1
 239 399 l 1,3,-1
 46 399 l 1,4,-1
 46 500 l 1,5,-1
 474 500 l 1,6,-1
 474 412 l 1,7,-1
 253 157 l 1,8,-1
 196 99 l 1,9,-1
 288 101 l 1,10,-1
 483 101 l 1,11,-1
 483 0 l 1,12,-1
 44 0 l 1,13,-1
 44 88 l 1,0,-1
EndSplineSet
Validated: 1
Substitution2: "'smcp' Lowercase to Small Capitals lookup 12 subtable" z.sc
Substitution2: "'aalt' Access All Alternates lookup 0 subtable" z.sc
EndChar

StartChar: longs.component
Encoding: 65609 -1 283
Width: 276
GlyphClass: 2
Flags: W
LayerCount: 2
Back
Fore
SplineSet
70 560 m 2,0,1
 70 729 70 729 228 729 c 0,2,3
 270 729 270 729 293 713 c 1,4,-1
 285 616 l 1,5,6
 271 627 271 627 254 627 c 0,7,8
 204 627 204 627 204 557 c 2,9,-1
 204 0 l 1,10,-1
 70 0 l 1,11,-1
 70 560 l 2,0,1
EndSplineSet
Validated: 1
EndChar

StartChar: iacute_j.loclNLD
Encoding: 65610 -1 284
Width: 563
GlyphClass: 2
Flags: W
LayerCount: 2
Back
Fore
SplineSet
282 742 m 1,0,-1
 182 572 l 1,1,-1
 80 572 l 1,2,-1
 150 742 l 1,3,-1
 282 742 l 1,0,-1
567 742 m 1,4,-1
 467 572 l 1,5,-1
 365 572 l 1,6,-1
 435 742 l 1,7,-1
 567 742 l 1,4,-1
209 0 m 1,8,-1
 72 0 l 1,9,-1
 72 500 l 1,10,-1
 209 500 l 1,11,-1
 209 0 l 1,8,-1
491 -37 m 2,12,13
 491 -130 491 -130 443 -172.5 c 128,-1,14
 395 -215 395 -215 313 -215 c 0,15,16
 241 -215 241 -215 193 -183 c 1,17,-1
 215 -85 l 1,18,19
 242 -109 242 -109 285 -109 c 0,20,21
 318 -109 318 -109 336 -89 c 128,-1,22
 354 -69 354 -69 354 -24 c 2,23,-1
 354 500 l 1,24,-1
 491 500 l 1,25,-1
 491 -37 l 2,12,13
EndSplineSet
Validated: 1
Substitution2: "'smcp' Lowercase to Small Capitals lookup 12 subtable" iacute_j.loclNLD.sc
Ligature2: "'locl' Localized Forms in Latin lookup 9 subtable" iacute j
Substitution2: "'aalt' Access All Alternates lookup 0 subtable" iacute_j.loclNLD.sc
EndChar

StartChar: g.ss01
Encoding: 65611 -1 285
Width: 629
GlyphClass: 2
Flags: W
LayerCount: 2
Back
Fore
SplineSet
556 500 m 1,0,-1
 556 40 l 2,1,2
 556 -215 556 -215 286 -215 c 0,3,4
 194 -215 194 -215 135 -182.5 c 128,-1,5
 76 -150 76 -150 63 -78 c 1,6,-1
 194 -38 l 1,7,8
 199 -80 199 -80 225.5 -100.5 c 128,-1,9
 252 -121 252 -121 301 -121 c 0,10,11
 354 -121 354 -121 386.5 -86.5 c 128,-1,12
 419 -52 419 -52 419 7 c 2,13,-1
 419 86 l 1,14,15
 394 50 394 50 353.5 29.5 c 128,-1,16
 313 9 313 9 262 9 c 0,17,18
 162 9 162 9 105 75 c 128,-1,19
 48 141 48 141 48 258 c 0,20,21
 48 377 48 377 105 443.5 c 128,-1,22
 162 510 162 510 262 510 c 0,23,24
 322 510 322 510 365 483 c 128,-1,25
 408 456 408 456 429 409 c 1,26,-1
 436 500 l 1,27,-1
 556 500 l 1,0,-1
387.5 150 m 128,-1,29
 419 187 419 187 419 254 c 2,30,-1
 419 264 l 2,31,32
 419 330 419 330 388 367.5 c 128,-1,33
 357 405 357 405 303 405 c 0,34,35
 248 405 248 405 217 367.5 c 128,-1,36
 186 330 186 330 186 259 c 256,37,38
 186 188 186 188 217 150.5 c 128,-1,39
 248 113 248 113 303 113 c 0,40,28
 356 113 356 113 387.5 150 c 128,-1,29
EndSplineSet
Validated: 1
EndChar

StartChar: gcommaaccent.ss01
Encoding: 65613 -1 287
Width: 629
GlyphClass: 2
Flags: W
LayerCount: 2
Back
Fore
SplineSet
380 572 m 1,0,-1
 258 572 l 1,1,-1
 328 774 l 1,2,-1
 418 774 l 1,3,-1
 380 572 l 1,0,-1
556 500 m 1,4,-1
 556 40 l 2,5,6
 556 -215 556 -215 286 -215 c 0,7,8
 194 -215 194 -215 135 -182.5 c 128,-1,9
 76 -150 76 -150 63 -78 c 1,10,-1
 194 -38 l 1,11,12
 199 -80 199 -80 225.5 -100.5 c 128,-1,13
 252 -121 252 -121 301 -121 c 0,14,15
 354 -121 354 -121 386.5 -86.5 c 128,-1,16
 419 -52 419 -52 419 7 c 2,17,-1
 419 86 l 1,18,19
 394 50 394 50 353.5 29.5 c 128,-1,20
 313 9 313 9 262 9 c 0,21,22
 162 9 162 9 105 75 c 128,-1,23
 48 141 48 141 48 258 c 0,24,25
 48 377 48 377 105 443.5 c 128,-1,26
 162 510 162 510 262 510 c 0,27,28
 322 510 322 510 365 483 c 128,-1,29
 408 456 408 456 429 409 c 1,30,-1
 436 500 l 1,31,-1
 556 500 l 1,4,-1
387.5 150 m 128,-1,33
 419 187 419 187 419 254 c 2,34,-1
 419 264 l 2,35,36
 419 330 419 330 388 367.5 c 128,-1,37
 357 405 357 405 303 405 c 0,38,39
 248 405 248 405 217 367.5 c 128,-1,40
 186 330 186 330 186 259 c 256,41,42
 186 188 186 188 217 150.5 c 128,-1,43
 248 113 248 113 303 113 c 0,44,32
 356 113 356 113 387.5 150 c 128,-1,33
EndSplineSet
Validated: 1
EndChar

StartChar: l.ss02
Encoding: 65614 -1 288
Width: 284
GlyphClass: 2
Flags: W
AnchorPoint: "Anchor-0" 146 0 basechar 0
LayerCount: 2
Back
Fore
SplineSet
211 0 m 1,0,-1
 74 0 l 1,1,-1
 74 719 l 1,2,-1
 211 719 l 1,3,-1
 211 0 l 1,0,-1
EndSplineSet
Validated: 1
EndChar

StartChar: lacute.ss02
Encoding: 65615 -1 289
Width: 284
GlyphClass: 2
Flags: W
AnchorPoint: "Anchor-0" 146 0 basechar 0
LayerCount: 2
Back
Fore
SplineSet
255 924 m 1,0,-1
 183 779 l 1,1,-1
 82 779 l 1,2,-1
 127 924 l 1,3,-1
 255 924 l 1,0,-1
211 0 m 1,4,-1
 74 0 l 1,5,-1
 74 719 l 1,6,-1
 211 719 l 1,7,-1
 211 0 l 1,4,-1
EndSplineSet
Validated: 1
EndChar

StartChar: lcaron.ss02
Encoding: 65616 -1 290
Width: 341
GlyphClass: 2
Flags: W
AnchorPoint: "Anchor-0" 146 0 basechar 0
LayerCount: 2
Back
Fore
SplineSet
341 495 m 1,0,-1
 259 495 l 1,1,-1
 280 719 l 1,2,-1
 390 719 l 1,3,-1
 341 495 l 1,0,-1
211 0 m 1,4,-1
 74 0 l 1,5,-1
 74 719 l 1,6,-1
 211 719 l 1,7,-1
 211 0 l 1,4,-1
EndSplineSet
Validated: 1
EndChar

StartChar: lslash.ss02
Encoding: 65619 -1 293
Width: 340
GlyphClass: 2
Flags: W
AnchorPoint: "Anchor-0" 175 0 basechar 0
LayerCount: 2
Back
Fore
SplineSet
316 385 m 1,0,-1
 239 341 l 1,1,-1
 239 0 l 1,2,-1
 102 0 l 1,3,-1
 102 256 l 1,4,-1
 25 206 l 1,5,-1
 25 312 l 1,6,-1
 102 356 l 1,7,-1
 102 719 l 1,8,-1
 239 719 l 1,9,-1
 239 440 l 1,10,-1
 316 491 l 1,11,-1
 316 385 l 1,0,-1
EndSplineSet
Validated: 1
EndChar

StartChar: n.swsh
Encoding: 65620 -1 294
Width: 638
GlyphClass: 2
Flags: W
AnchorPoint: "Anchor-0" 308 0 basechar 0
LayerCount: 2
Back
Fore
SplineSet
621 0 m 128,-1,1
 631 2 631 2 643 8 c 1,2,-1
 630 -78 l 1,3,4
 608 -89 608 -89 590.5 -93.5 c 128,-1,5
 573 -98 573 -98 544 -98 c 0,6,7
 484 -98 484 -98 448.5 -63 c 128,-1,8
 413 -28 413 -28 413 35 c 2,9,-1
 413 288 l 2,10,11
 413 402 413 402 324 402 c 0,12,13
 276 402 276 402 242.5 368 c 128,-1,14
 209 334 209 334 209 264 c 2,15,-1
 209 0 l 1,16,-1
 72 0 l 1,17,-1
 72 500 l 1,18,-1
 195 500 l 1,19,-1
 199 411 l 1,20,21
 224 460 224 460 268 485 c 128,-1,22
 312 510 312 510 370 510 c 0,23,24
 451 510 451 510 500.5 463 c 128,-1,25
 550 416 550 416 550 328 c 2,26,-1
 550 47 l 2,27,28
 550 22 550 22 562.5 10 c 128,-1,29
 575 -2 575 -2 595 -2 c 0,30,0
 611 -2 611 -2 621 0 c 128,-1,1
EndSplineSet
Validated: 1
EndChar

StartChar: r.swsh
Encoding: 65625 -1 299
Width: 566
GlyphClass: 2
Flags: W
AnchorPoint: "Anchor-0" 149 0 basechar 0
LayerCount: 2
Back
Fore
SplineSet
418.5 500 m 128,-1,1
 445 490 445 490 478 470 c 0,2,3
 506 454 506 454 525 445.5 c 128,-1,4
 544 437 544 437 572 432 c 1,5,-1
 506 333 l 1,6,7
 469 341 469 341 426 366 c 0,8,9
 399 381 399 381 380.5 388 c 128,-1,10
 362 395 362 395 337 395 c 0,11,12
 280 395 280 395 244.5 355.5 c 128,-1,13
 209 316 209 316 209 251 c 2,14,-1
 209 0 l 1,15,-1
 72 0 l 1,16,-1
 72 500 l 1,17,-1
 191 500 l 1,18,-1
 200 401 l 1,19,20
 220 457 220 457 259.5 483.5 c 128,-1,21
 299 510 299 510 351 510 c 0,22,0
 392 510 392 510 418.5 500 c 128,-1,1
EndSplineSet
Validated: 1
EndChar

StartChar: t.swsh
Encoding: 65629 -1 303
Width: 487
GlyphClass: 2
Flags: W
AnchorPoint: "Anchor-0" 254 0 basechar 0
LayerCount: 2
Back
Fore
SplineSet
248 398 m 1,0,-1
 248 163 l 2,1,2
 248 94 248 94 317 94 c 0,3,4
 361 94 361 94 394 122 c 1,5,-1
 415 31 l 1,6,7
 391 12 391 12 354.5 1 c 128,-1,8
 318 -10 318 -10 278 -10 c 0,9,10
 111 -10 111 -10 111 141 c 2,11,-1
 111 398 l 1,12,-1
 20 398 l 1,13,-1
 20 500 l 1,14,-1
 111 500 l 1,15,-1
 111 615 l 1,16,-1
 248 653 l 1,17,-1
 248 500 l 1,18,-1
 383 500 l 2,19,20
 441 500 441 500 476 510 c 128,-1,21
 511 520 511 520 539 546 c 1,22,-1
 584 467 l 1,23,24
 552 430 552 430 506 414 c 128,-1,25
 460 398 460 398 385 398 c 2,26,-1
 248 398 l 1,0,-1
EndSplineSet
Validated: 1
EndChar

StartChar: tcaron.swsh
Encoding: 65630 -1 304
Width: 487
GlyphClass: 2
Flags: W
AnchorPoint: "Anchor-0" 254 0 basechar 0
LayerCount: 2
Back
Fore
SplineSet
382 556 m 1,0,-1
 300 556 l 1,1,-1
 321 767 l 1,2,-1
 431 767 l 1,3,-1
 382 556 l 1,0,-1
248 398 m 1,4,-1
 248 163 l 2,5,6
 248 94 248 94 317 94 c 0,7,8
 361 94 361 94 394 122 c 1,9,-1
 415 31 l 1,10,11
 391 12 391 12 354.5 1 c 128,-1,12
 318 -10 318 -10 278 -10 c 0,13,14
 111 -10 111 -10 111 141 c 2,15,-1
 111 398 l 1,16,-1
 20 398 l 1,17,-1
 20 500 l 1,18,-1
 111 500 l 1,19,-1
 111 615 l 1,20,-1
 248 653 l 1,21,-1
 248 500 l 1,22,-1
 383 500 l 2,23,24
 441 500 441 500 476 510 c 128,-1,25
 511 520 511 520 539 546 c 1,26,-1
 584 467 l 1,27,28
 552 430 552 430 506 414 c 128,-1,29
 460 398 460 398 385 398 c 2,30,-1
 248 398 l 1,4,-1
EndSplineSet
Validated: 1
EndChar

StartChar: uni0163.swsh
Encoding: 65631 -1 305
Width: 497
GlyphClass: 2
Flags: W
AnchorPoint: "Anchor-0" 254 0 basechar 0
LayerCount: 2
Back
Fore
SplineSet
248 398 m 1,0,-1
 248 163 l 2,1,2
 248 94 248 94 317 94 c 0,3,4
 361 94 361 94 394 122 c 1,5,-1
 415 31 l 1,6,7
 387 9 387 9 343 -2 c 1,8,9
 371 -22 371 -22 385.5 -47.5 c 128,-1,10
 400 -73 400 -73 400 -101 c 0,11,12
 400 -154 400 -154 363.5 -184.5 c 128,-1,13
 327 -215 327 -215 267 -215 c 0,14,15
 189 -215 189 -215 148 -177 c 1,16,-1
 184 -106 l 1,17,18
 196 -119 196 -119 214 -127.5 c 128,-1,19
 232 -136 232 -136 253 -136 c 0,20,21
 279 -136 279 -136 294.5 -122 c 128,-1,22
 310 -108 310 -108 310 -83 c 256,23,24
 310 -58 310 -58 296.5 -41.5 c 128,-1,25
 283 -25 283 -25 248 -9 c 1,26,27
 111 6 111 6 111 141 c 2,28,-1
 111 398 l 1,29,-1
 20 398 l 1,30,-1
 20 500 l 1,31,-1
 111 500 l 1,32,-1
 111 615 l 1,33,-1
 248 653 l 1,34,-1
 248 500 l 1,35,-1
 383 500 l 2,36,37
 441 500 441 500 476 510 c 128,-1,38
 511 520 511 520 539 546 c 1,39,-1
 584 467 l 1,40,41
 552 430 552 430 506 414 c 128,-1,42
 460 398 460 398 385 398 c 2,43,-1
 248 398 l 1,0,-1
EndSplineSet
Validated: 1
EndChar

StartChar: y.swsh
Encoding: 65633 -1 307
Width: 590
GlyphClass: 2
Flags: W
LayerCount: 2
Back
Fore
SplineSet
7 -176 m 1,1,-1
 41 -79 l 1,2,3
 57 -97 57 -97 76.5 -103.5 c 128,-1,4
 96 -110 96 -110 125 -110 c 0,5,6
 156 -110 156 -110 175 -97 c 128,-1,7
 194 -84 194 -84 207 -50 c 2,8,-1
 225 -7 l 1,9,-1
 170 123 l 1,10,-1
 17 500 l 1,11,-1
 169 500 l 1,12,-1
 263 200 l 1,13,-1
 290 100 l 1,14,-1
 320 206 l 1,15,-1
 405 452 l 2,16,17
 427 522 427 522 468 555.5 c 128,-1,18
 509 589 509 589 569 589 c 0,19,20
 604 589 604 589 626.5 581.5 c 128,-1,21
 649 574 649 574 669 557 c 1,22,-1
 643 472 l 1,23,24
 633 479 633 479 623 482 c 128,-1,25
 613 485 613 485 596 485 c 0,26,27
 566 485 566 485 547.5 469 c 128,-1,28
 529 453 529 453 516 416 c 2,29,-1
 349 -31 l 2,30,31
 315 -132 315 -132 265.5 -173.5 c 128,-1,32
 216 -215 216 -215 134 -215 c 0,33,0
 53 -215 53 -215 7 -176 c 1,1,-1
EndSplineSet
Validated: 1
EndChar

StartChar: c_t
Encoding: 65636 -1 310
Width: 935
GlyphClass: 3
Flags: W
LayerCount: 2
Back
Fore
SplineSet
921 31 m 1,0,1
 897 12 897 12 861 1 c 128,-1,2
 825 -10 825 -10 785 -10 c 0,3,4
 706 -10 706 -10 661.5 26 c 128,-1,5
 617 62 617 62 617 141 c 2,6,-1
 617 523 l 2,7,8
 617 576 617 576 598 600.5 c 128,-1,9
 579 625 579 625 547 625 c 0,10,11
 479 625 479 625 479 534 c 0,12,13
 479 465 479 465 529 363 c 1,14,-1
 401 317 l 1,15,16
 392 361 392 361 367.5 384.5 c 128,-1,17
 343 408 343 408 305 408 c 0,18,19
 246 408 246 408 214.5 367.5 c 128,-1,20
 183 327 183 327 183 249 c 256,21,22
 183 171 183 171 215 131.5 c 128,-1,23
 247 92 247 92 304 92 c 0,24,25
 388 92 388 92 408 181 c 1,26,-1
 531 141 l 1,27,28
 516 72 516 72 457.5 31 c 128,-1,29
 399 -10 399 -10 306 -10 c 0,30,31
 182 -10 182 -10 114 58.5 c 128,-1,32
 46 127 46 127 46 250 c 256,33,34
 46 373 46 373 113.5 441.5 c 128,-1,35
 181 510 181 510 301 510 c 0,36,37
 347 510 347 510 386 494 c 1,38,39
 373 522 373 522 373 559 c 0,40,41
 373 641 373 641 424.5 684 c 128,-1,42
 476 727 476 727 559 727 c 0,43,44
 640 727 640 727 697 683.5 c 128,-1,45
 754 640 754 640 754 553 c 2,46,-1
 754 500 l 1,47,-1
 917 500 l 1,48,-1
 917 398 l 1,49,-1
 754 398 l 1,50,-1
 754 163 l 2,51,52
 754 128 754 128 772 111 c 128,-1,53
 790 94 790 94 823 94 c 0,54,55
 867 94 867 94 900 122 c 1,56,-1
 921 31 l 1,0,1
EndSplineSet
Validated: 1
Ligature2: "'dlig' Discretionary Ligatures lookup 45 subtable" c t
EndChar

StartChar: s_t
Encoding: 65637 -1 313
Width: 896
GlyphClass: 3
Flags: W
LayerCount: 2
Back
Fore
SplineSet
882 31 m 1,0,1
 858 12 858 12 821.5 1 c 128,-1,2
 785 -10 785 -10 745 -10 c 0,3,4
 578 -10 578 -10 578 141 c 2,5,-1
 578 519 l 2,6,7
 578 571 578 571 557.5 596 c 128,-1,8
 537 621 537 621 505 621 c 256,9,10
 473 621 473 621 456 600.5 c 128,-1,11
 439 580 439 580 439 543 c 0,12,13
 439 509 439 509 449 478.5 c 128,-1,14
 459 448 459 448 488 408 c 1,15,-1
 411 346 l 1,16,17
 374 414 374 414 277 414 c 0,18,19
 237 414 237 414 211 398.5 c 128,-1,20
 185 383 185 383 185 362 c 0,21,22
 185 339 185 339 208.5 326 c 128,-1,23
 232 313 232 313 296 303 c 0,24,25
 402 285 402 285 448 250 c 128,-1,26
 494 215 494 215 494 150 c 0,27,28
 494 104 494 104 467.5 68 c 128,-1,29
 441 32 441 32 389.5 11 c 128,-1,30
 338 -10 338 -10 266 -10 c 0,31,32
 186 -10 186 -10 126 14 c 128,-1,33
 66 38 66 38 32 88 c 1,34,-1
 111 162 l 1,35,36
 132 125 132 125 172.5 105.5 c 128,-1,37
 213 86 213 86 265 86 c 0,38,39
 308 86 308 86 332 100 c 128,-1,40
 356 114 356 114 356 137 c 0,41,42
 356 159 356 159 331.5 173 c 128,-1,43
 307 187 307 187 247 197 c 0,44,45
 140 216 140 216 94 252.5 c 128,-1,46
 48 289 48 289 48 351 c 0,47,48
 48 393 48 393 74 429.5 c 128,-1,49
 100 466 100 466 151 488 c 128,-1,50
 202 510 202 510 273 510 c 0,51,52
 315 510 315 510 348 502 c 1,53,54
 332 529 332 529 332 557 c 0,55,56
 332 641 332 641 385.5 684 c 128,-1,57
 439 727 439 727 523 727 c 0,58,59
 608 727 608 727 661.5 683.5 c 128,-1,60
 715 640 715 640 715 549 c 2,61,-1
 715 500 l 1,62,-1
 877 500 l 1,63,-1
 877 398 l 1,64,-1
 715 398 l 1,65,-1
 715 163 l 2,66,67
 715 94 715 94 784 94 c 0,68,69
 828 94 828 94 861 122 c 1,70,-1
 882 31 l 1,0,1
EndSplineSet
Validated: 1
Ligature2: "'dlig' Discretionary Ligatures lookup 45 subtable" s t
EndChar

StartChar: longs_l
Encoding: 65639 -1 315
Width: 621
GlyphClass: 3
Flags: W
LayerCount: 2
Back
Fore
SplineSet
70 560 m 2,0,1
 70 643 70 643 115 686 c 128,-1,2
 160 729 160 729 240 729 c 0,3,4
 303 729 303 729 330 705 c 1,5,-1
 318 614 l 1,6,7
 299 627 299 627 274 627 c 0,8,9
 204 627 204 627 204 549 c 2,10,-1
 204 0 l 1,11,-1
 70 0 l 1,12,-1
 70 560 l 2,0,1
508 159 m 2,13,14
 508 123 508 123 518.5 109 c 128,-1,15
 529 95 529 95 557 95 c 0,16,17
 574 95 574 95 586.5 97.5 c 128,-1,18
 599 100 599 100 616 106 c 1,19,-1
 605 11 l 1,20,21
 588 1 588 1 562.5 -4.5 c 128,-1,22
 537 -10 537 -10 512 -10 c 0,23,24
 438 -10 438 -10 404.5 25.5 c 128,-1,25
 371 61 371 61 371 139 c 2,26,-1
 371 719 l 1,27,-1
 508 719 l 1,28,-1
 508 159 l 2,13,14
EndSplineSet
Validated: 1
Substitution2: "'ss02' Style Set 2 lookup 48 subtable" longs_l.ss02
Ligature2: "'hlig' Historic Ligatures lookup 46 subtable" longs l
Ligature2: "'dlig' Discretionary Ligatures lookup 45 subtable" longs l
Substitution2: "'salt' Stylistic Alternatives lookup 42 subtable" longs_l.ss02
Substitution2: "'aalt' Access All Alternates lookup 0 subtable" longs_l.ss02
EndChar

StartChar: f_t.liga
Encoding: 65641 -1 317
Width: 780
GlyphClass: 3
Flags: W
LayerCount: 2
Back
Fore
SplineSet
766 31 m 1,0,1
 742 12 742 12 706 1 c 128,-1,2
 670 -10 670 -10 630 -10 c 0,3,4
 463 -10 463 -10 462 141 c 2,5,-1
 462 398 l 1,6,-1
 245 398 l 1,7,-1
 245 0 l 1,8,-1
 108 0 l 1,9,-1
 108 398 l 1,10,-1
 21 398 l 1,11,-1
 21 500 l 1,12,-1
 108 500 l 1,13,-1
 108 560 l 2,14,15
 108 642 108 642 158 686 c 128,-1,16
 208 730 208 730 291 730 c 0,17,18
 322 730 322 730 347 723 c 128,-1,19
 372 716 372 716 388 704 c 1,20,-1
 373 613 l 1,21,22
 350 627 350 627 319 627 c 0,23,24
 239 627 239 627 239 550 c 2,25,-1
 239 500 l 1,26,-1
 462 500 l 1,27,-1
 462 615 l 1,28,-1
 599 653 l 1,29,-1
 599 500 l 1,30,-1
 762 500 l 1,31,-1
 762 398 l 1,32,-1
 599 398 l 1,33,-1
 599 163 l 2,34,35
 599 128 599 128 617.5 111 c 128,-1,36
 636 94 636 94 669 94 c 0,37,38
 712 94 712 94 745 122 c 1,39,-1
 766 31 l 1,0,1
EndSplineSet
Validated: 1
Ligature2: "'liga' Standard Ligatures lookup 52 subtable" f t
EndChar

StartChar: g_j.liga
Encoding: 65642 -1 318
Width: 849
GlyphClass: 3
Flags: W
LayerCount: 2
Back
Fore
SplineSet
646 591 m 128,-1,1
 624 610 624 610 624 645 c 256,2,3
 624 680 624 680 646 699.5 c 128,-1,4
 668 719 668 719 709 719 c 256,5,6
 750 719 750 719 772 699.5 c 128,-1,7
 794 680 794 680 794 645 c 256,8,9
 794 610 794 610 772 591 c 128,-1,10
 750 572 750 572 709 572 c 256,11,0
 668 572 668 572 646 591 c 128,-1,1
529 522 m 0,13,14
 493 522 493 522 470 508 c 128,-1,15
 447 494 447 494 439 470 c 1,16,17
 504 426 504 426 504 340 c 0,18,19
 504 260 504 260 445.5 215.5 c 128,-1,20
 387 171 387 171 278 171 c 0,21,22
 229 171 229 171 190 180 c 1,23,24
 144 170 144 170 144 137 c 0,25,26
 144 94 144 94 221 94 c 2,27,-1
 354 94 l 2,28,29
 438 94 438 94 483.5 58 c 128,-1,30
 529 22 529 22 529 -45 c 0,31,32
 529 -125 529 -125 458.5 -170 c 128,-1,33
 388 -215 388 -215 271 -215 c 0,34,35
 151 -215 151 -215 88 -182 c 128,-1,36
 25 -149 25 -149 25 -92 c 0,37,38
 25 -57 25 -57 46 -30.5 c 128,-1,39
 67 -4 67 -4 109 8 c 1,40,41
 79 23 79 23 61 47.5 c 128,-1,42
 43 72 43 72 43 105 c 0,43,44
 43 140 43 140 64.5 166.5 c 128,-1,45
 86 193 86 193 123 206 c 1,46,47
 86 227 86 227 66.5 261 c 128,-1,48
 47 295 47 295 47 340 c 0,49,50
 47 420 47 420 108 465 c 128,-1,51
 169 510 169 510 278 510 c 0,52,53
 334 510 334 510 381 497 c 1,54,55
 390 553 390 553 429.5 588 c 128,-1,56
 469 623 469 623 531 619 c 1,57,-1
 549 521 l 1,58,12
 542 522 542 522 529 522 c 0,13,14
641 500 m 1,59,-1
 778 500 l 1,60,-1
 778 -40 l 2,61,62
 778 -136 778 -136 731 -175.5 c 128,-1,63
 684 -215 684 -215 610 -215 c 0,64,65
 566 -215 566 -215 534 -202 c 1,66,-1
 554 -97 l 1,67,68
 572 -108 572 -108 597 -108 c 0,69,70
 620 -108 620 -108 630.5 -90.5 c 128,-1,71
 641 -73 641 -73 641 -32 c 2,72,-1
 641 500 l 1,59,-1
345 280 m 128,-1,74
 370 302 370 302 370 341 c 0,75,76
 370 379 370 379 345 401 c 128,-1,77
 320 423 320 423 276 423 c 0,78,79
 231 423 231 423 206 401 c 128,-1,80
 181 379 181 379 181 341 c 0,81,82
 181 302 181 302 206 280 c 128,-1,83
 231 258 231 258 276 258 c 0,84,73
 320 258 320 258 345 280 c 128,-1,74
221 -17 m 2,85,86
 133 -17 133 -17 133 -64 c 0,87,88
 133 -91 133 -91 169.5 -106 c 128,-1,89
 206 -121 206 -121 278 -121 c 0,90,91
 345 -121 345 -121 381.5 -103.5 c 128,-1,92
 418 -86 418 -86 418 -59 c 0,93,94
 418 -38 418 -38 400 -27.5 c 128,-1,95
 382 -17 382 -17 339 -17 c 2,96,-1
 221 -17 l 2,85,86
EndSplineSet
Validated: 33
Ligature2: "'liga' Standard Ligatures lookup 52 subtable" g j
EndChar

StartChar: j_j.liga
Encoding: 65643 -1 319
Width: 562
GlyphClass: 3
Flags: W
LayerCount: 2
Back
Fore
SplineSet
204 699.5 m 128,-1,1
 226 680 226 680 226 645 c 256,2,3
 226 610 226 610 204 591 c 128,-1,4
 182 572 182 572 141 572 c 256,5,6
 100 572 100 572 78 591 c 128,-1,7
 56 610 56 610 56 645 c 256,8,9
 56 680 56 680 78 699.5 c 128,-1,10
 100 719 100 719 141 719 c 256,11,0
 182 719 182 719 204 699.5 c 128,-1,1
485.5 700 m 128,-1,13
 507 681 507 681 507 645 c 0,14,15
 507 610 507 610 485.5 591 c 128,-1,16
 464 572 464 572 422 572 c 0,17,18
 381 572 381 572 359 591 c 128,-1,19
 337 610 337 610 337 645 c 256,20,21
 337 680 337 680 359 699.5 c 128,-1,22
 381 719 381 719 422 719 c 0,23,12
 464 719 464 719 485.5 700 c 128,-1,13
209 -37 m 2,24,25
 209 -130 209 -130 161 -172.5 c 128,-1,26
 113 -215 113 -215 31 -215 c 0,27,28
 -41 -215 -41 -215 -89 -183 c 1,29,-1
 -67 -85 l 1,30,31
 -40 -109 -40 -109 3 -109 c 0,32,33
 37 -109 37 -109 54.5 -89 c 128,-1,34
 72 -69 72 -69 72 -24 c 2,35,-1
 72 500 l 1,36,-1
 209 500 l 1,37,-1
 209 -37 l 2,24,25
491 -40 m 2,38,39
 491 -136 491 -136 439 -175.5 c 128,-1,40
 387 -215 387 -215 311 -215 c 0,41,42
 257 -215 257 -215 215 -189 c 1,43,-1
 236 -85 l 1,44,45
 263 -108 263 -108 298 -108 c 0,46,47
 354 -108 354 -108 354 -32 c 2,48,-1
 354 500 l 1,49,-1
 491 500 l 1,50,-1
 491 -40 l 2,38,39
EndSplineSet
Validated: 1
Ligature2: "'liga' Standard Ligatures lookup 52 subtable" j j
EndChar

StartChar: t_t.liga
Encoding: 65644 -1 320
Width: 799
GlyphClass: 3
Flags: W
LayerCount: 2
Back
Fore
SplineSet
786 31 m 1,0,1
 761 12 761 12 725 1 c 128,-1,2
 689 -10 689 -10 649 -10 c 0,3,4
 482 -10 482 -10 481 141 c 2,5,-1
 481 398 l 1,6,-1
 248 398 l 1,7,-1
 248 163 l 2,8,9
 248 127 248 127 263.5 110.5 c 128,-1,10
 279 94 279 94 311 94 c 0,11,12
 334 94 334 94 351.5 101 c 128,-1,13
 369 108 369 108 385 123 c 1,14,-1
 407 31 l 1,15,16
 384 12 384 12 348.5 1 c 128,-1,17
 313 -10 313 -10 274 -10 c 0,18,19
 198 -10 198 -10 154.5 26 c 128,-1,20
 111 62 111 62 111 141 c 2,21,-1
 111 398 l 1,22,-1
 20 398 l 1,23,-1
 20 500 l 1,24,-1
 111 500 l 1,25,-1
 111 615 l 1,26,-1
 248 653 l 1,27,-1
 248 500 l 1,28,-1
 481 500 l 1,29,-1
 481 615 l 1,30,-1
 618 653 l 1,31,-1
 618 500 l 1,32,-1
 781 500 l 1,33,-1
 781 398 l 1,34,-1
 618 398 l 1,35,-1
 618 163 l 2,36,37
 618 128 618 128 636.5 111 c 128,-1,38
 655 94 655 94 688 94 c 0,39,40
 731 94 731 94 764 122 c 1,41,-1
 786 31 l 1,0,1
EndSplineSet
Validated: 1
Ligature2: "'liga' Standard Ligatures lookup 52 subtable" t t
EndChar

StartChar: g.ss01_j
Encoding: 65645 -1 321
Width: 896
GlyphClass: 3
Flags: W
LayerCount: 2
Back
Fore
SplineSet
706.5 591 m 128,-1,1
 685 610 685 610 685 645 c 0,2,3
 685 681 685 681 706.5 700 c 128,-1,4
 728 719 728 719 769 719 c 0,5,6
 811 719 811 719 833 699.5 c 128,-1,7
 855 680 855 680 855 645 c 256,8,9
 855 610 855 610 833 591 c 128,-1,10
 811 572 811 572 769 572 c 0,11,0
 728 572 728 572 706.5 591 c 128,-1,1
436 500 m 1,12,-1
 556 500 l 1,13,-1
 556 40 l 2,14,15
 556 -215 556 -215 286 -215 c 0,16,17
 194 -215 194 -215 135 -182.5 c 128,-1,18
 76 -150 76 -150 63 -78 c 1,19,-1
 194 -38 l 1,20,21
 199 -80 199 -80 225.5 -100.5 c 128,-1,22
 252 -121 252 -121 301 -121 c 0,23,24
 354 -121 354 -121 386.5 -86.5 c 128,-1,25
 419 -52 419 -52 419 7 c 2,26,-1
 419 86 l 1,27,28
 394 50 394 50 353.5 29.5 c 128,-1,29
 313 9 313 9 262 9 c 0,30,31
 162 9 162 9 105 75 c 128,-1,32
 48 141 48 141 48 258 c 0,33,34
 48 377 48 377 105 443.5 c 128,-1,35
 162 510 162 510 262 510 c 0,36,37
 322 510 322 510 365 483 c 128,-1,38
 408 456 408 456 429 409 c 1,39,-1
 436 500 l 1,12,-1
701 500 m 1,40,-1
 838 500 l 1,41,-1
 838 -40 l 2,42,43
 838 -136 838 -136 786 -175.5 c 128,-1,44
 734 -215 734 -215 658 -215 c 0,45,46
 604 -215 604 -215 562 -189 c 1,47,-1
 584 -85 l 1,48,49
 611 -108 611 -108 646 -108 c 0,50,51
 701 -108 701 -108 701 -32 c 2,52,-1
 701 500 l 1,40,-1
387.5 150 m 128,-1,54
 419 187 419 187 419 254 c 2,55,-1
 419 264 l 2,56,57
 419 330 419 330 388 367.5 c 128,-1,58
 357 405 357 405 303 405 c 0,59,60
 248 405 248 405 217 367.5 c 128,-1,61
 186 330 186 330 186 259 c 256,62,63
 186 188 186 188 217 150.5 c 128,-1,64
 248 113 248 113 303 113 c 0,65,53
 356 113 356 113 387.5 150 c 128,-1,54
EndSplineSet
Validated: 1
Ligature2: "'liga' Standard Ligatures lookup 52 subtable" g.ss01 j
EndChar

StartChar: longs_l.ss02
Encoding: 65647 -1 323
Width: 582
GlyphClass: 3
Flags: W
LayerCount: 2
Back
Fore
SplineSet
70 560 m 2,0,1
 70 643 70 643 115 686 c 128,-1,2
 160 729 160 729 240 729 c 0,3,4
 303 729 303 729 330 705 c 1,5,-1
 318 614 l 1,6,7
 299 627 299 627 274 627 c 0,8,9
 204 627 204 627 204 549 c 2,10,-1
 204 0 l 1,11,-1
 70 0 l 1,12,-1
 70 560 l 2,0,1
508 0 m 1,13,-1
 371 0 l 1,14,-1
 371 719 l 1,15,-1
 508 719 l 1,16,-1
 508 0 l 1,13,-1
EndSplineSet
Validated: 1
EndChar

StartChar: Scedilla.sc
Encoding: 65653 -1 329
Width: 568
GlyphClass: 2
Flags: W
AnchorPoint: "Anchor-0" 309 0 basechar 0
LayerCount: 2
Back
Fore
SplineSet
487.5 55 m 128,-1,1
 440 11 440 11 357 -2 c 1,2,3
 415 -42 415 -42 415 -101 c 0,4,5
 415 -154 415 -154 378.5 -184.5 c 128,-1,6
 342 -215 342 -215 282 -215 c 0,7,8
 204 -215 204 -215 163 -177 c 1,9,-1
 199 -106 l 1,10,11
 212 -120 212 -120 230.5 -128 c 128,-1,12
 249 -136 249 -136 270 -136 c 0,13,14
 294 -136 294 -136 309.5 -121.5 c 128,-1,15
 325 -107 325 -107 325 -83 c 0,16,17
 325 -58 325 -58 309 -40.5 c 128,-1,18
 293 -23 293 -23 250 -7 c 1,19,20
 106 1 106 1 26 91 c 1,21,-1
 96 190 l 1,22,23
 129 142 129 142 173.5 121 c 128,-1,24
 218 100 218 100 285 100 c 0,25,26
 395 100 395 100 395 156 c 0,27,28
 395 184 395 184 365.5 194.5 c 128,-1,29
 336 205 336 205 270 215 c 0,30,31
 198 226 198 226 152.5 240 c 128,-1,32
 107 254 107 254 73.5 289.5 c 128,-1,33
 40 325 40 325 40 389 c 0,34,35
 40 441 40 441 70 482 c 128,-1,36
 100 523 100 523 155.5 545.5 c 128,-1,37
 211 568 211 568 286 568 c 0,38,39
 372 568 372 568 429.5 544.5 c 128,-1,40
 487 521 487 521 533 469 c 1,41,-1
 458 374 l 1,42,43
 427 421 427 421 388.5 440.5 c 128,-1,44
 350 460 350 460 288 460 c 0,45,46
 236 460 236 460 208 444 c 128,-1,47
 180 428 180 428 180 400 c 0,48,49
 180 374 180 374 210 362 c 128,-1,50
 240 350 240 350 304 340 c 0,51,52
 375 328 375 328 421 313.5 c 128,-1,53
 467 299 467 299 501 264 c 128,-1,54
 535 229 535 229 535 166 c 0,55,0
 535 99 535 99 487.5 55 c 128,-1,1
EndSplineSet
Validated: 1
EndChar

StartChar: uni0162.sc
Encoding: 65655 -1 331
Width: 587
GlyphClass: 2
Flags: W
AnchorPoint: "Anchor-0" 294 0 basechar 0
LayerCount: 2
Back
Fore
SplineSet
362 453 m 1,0,-1
 362 0 l 1,1,2
 418 -34 418 -34 418 -99 c 0,3,4
 418 -153 418 -153 381 -184 c 128,-1,5
 344 -215 344 -215 284 -215 c 0,6,7
 207 -215 207 -215 163 -176 c 1,8,-1
 203 -104 l 1,9,10
 230 -134 230 -134 271 -134 c 0,11,12
 295 -134 295 -134 311.5 -119.5 c 128,-1,13
 328 -105 328 -105 328 -80 c 0,14,15
 328 -53 328 -53 310.5 -36 c 128,-1,16
 293 -19 293 -19 250 0 c 1,17,-1
 225 0 l 1,18,-1
 225 453 l 1,19,-1
 29 453 l 1,20,-1
 29 560 l 1,21,-1
 558 560 l 1,22,-1
 558 453 l 1,23,-1
 362 453 l 1,0,-1
EndSplineSet
Validated: 1
EndChar

StartChar: a.sc
Encoding: 65657 -1 333
Width: 617
GlyphClass: 2
Flags: W
LayerCount: 2
Back
Fore
SplineSet
419 130 m 1,0,-1
 194 130 l 1,1,-1
 146 0 l 1,2,-1
 13 0 l 1,3,-1
 226 560 l 1,4,-1
 390 560 l 1,5,-1
 604 0 l 1,6,-1
 466 0 l 1,7,-1
 419 130 l 1,0,-1
383 227 m 1,8,-1
 349 320 l 1,9,-1
 308 456 l 1,10,-1
 305 456 l 1,11,-1
 264 320 l 1,12,-1
 230 227 l 1,13,-1
 383 227 l 1,8,-1
EndSplineSet
Validated: 1
EndChar

